<?xml version="1.0" encoding="UTF-8"?>
<svg id="Layer_1" data-name="Layer 1" xmlns="http://www.w3.org/2000/svg" viewBox="0 0 481.99 481.92">
  <path d="m246.1,1c2.69,0,4.88,2.18,4.88,4.88s-2.19,4.88-4.88,4.88-4.88-2.18-4.88-4.88c0-2.69,2.19-4.88,4.88-4.88Zm10.83,5.42c-.18,2.69,1.85,5.02,4.54,5.2s5.02-1.85,5.19-4.54c.18-2.69-1.86-5.02-4.54-5.2-2.69-.18-5.01,1.85-5.19,4.54Zm15.63,1.59c-.36,2.67,1.51,5.13,4.19,5.49,2.67.36,5.13-1.51,5.49-4.19.36-2.67-1.52-5.13-4.19-5.49-2.68-.36-5.13,1.52-5.49,4.19Zm15.49,2.63c-.54,2.64,1.17,5.22,3.81,5.75,2.64.54,5.22-1.17,5.76-3.81s-1.17-5.22-3.81-5.76c-2.65-.53-5.23,1.18-5.76,3.82Zm15.28,3.66c-.71,2.6.82,5.28,3.42,6,2.6.71,5.28-.82,6-3.42.71-2.6-.82-5.29-3.42-6-2.61-.71-5.29.82-6,3.42Zm15,4.67c-.88,2.55.46,5.33,3.01,6.21,2.55.88,5.33-.46,6.21-3.01.88-2.55-.47-5.33-3.01-6.21-2.55-.89-5.33.46-6.21,3.01Zm14.65,5.66c-1.05,2.48.1,5.34,2.59,6.4,2.48,1.05,5.35-.1,6.4-2.59,1.05-2.48-.11-5.35-2.59-6.4-2.48-1.05-5.34.11-6.4,2.59Zm14.25,6.63c-1.22,2.4-.25,5.34,2.15,6.55,2.41,1.22,5.34.25,6.56-2.15,1.21-2.41.25-5.34-2.16-6.56-2.4-1.21-5.34-.25-6.55,2.16Zm13.77,7.56c-1.38,2.32-.61,5.31,1.71,6.68,2.32,1.37,5.31.61,6.69-1.71,1.37-2.32.6-5.31-1.71-6.69-2.32-1.36-5.32-.6-6.69,1.72Zm13.23,8.47c-1.53,2.22-.96,5.26,1.26,6.78,2.22,1.53,5.26.96,6.79-1.26,1.52-2.22.96-5.26-1.26-6.79-2.22-1.52-5.26-.95-6.79,1.27Zm12.64,9.33c-1.67,2.11-1.31,5.18.8,6.85,2.12,1.67,5.18,1.31,6.86-.8,1.67-2.12,1.31-5.19-.81-6.86-2.1-1.66-5.18-1.3-6.85.81Zm11.99,10.16c-1.81,2-1.65,5.08.34,6.89,2,1.81,5.08,1.66,6.9-.34,1.8-2,1.65-5.09-.35-6.89-1.99-1.82-5.08-1.66-6.89.34Zm11.28,10.93c-1.94,1.87-1.99,4.96-.12,6.9,1.88,1.94,4.96,1.99,6.91.12,1.93-1.87,1.99-4.97.11-6.9-1.87-1.94-4.96-1.99-6.9-.12Zm10.53,11.67c-2.06,1.74-2.32,4.82-.58,6.87,1.74,2.06,4.82,2.32,6.88.58,2.05-1.74,2.31-4.82.57-6.88-1.73-2.06-4.81-2.31-6.87-.57Zm9.72,12.34c-2.17,1.6-2.63,4.65-1.04,6.82,1.6,2.17,4.65,2.63,6.83,1.04,2.17-1.6,2.63-4.66,1.03-6.83-1.59-2.17-4.65-2.63-6.82-1.03Zm8.88,12.96c-2.27,1.45-2.94,4.47-1.49,6.74s4.47,2.94,6.74,1.49,2.93-4.47,1.48-6.74c-1.44-2.28-4.46-2.94-6.73-1.49Zm7.99,13.53c-2.36,1.29-3.23,4.26-1.94,6.62,1.3,2.36,4.26,3.23,6.63,1.94,2.36-1.3,3.23-4.26,1.93-6.63-1.29-2.36-4.25-3.23-6.62-1.93Zm7.07,14.03c-2.44,1.13-3.51,4.03-2.37,6.48,1.14,2.44,4.04,3.51,6.49,2.38,2.44-1.14,3.5-4.04,2.37-6.48-1.14-2.46-4.04-3.52-6.49-2.38Zm6.12,14.47c-2.51.97-3.77,3.79-2.8,6.3.97,2.52,3.79,3.77,6.31,2.8,2.51-.97,3.77-3.8,2.8-6.31-.97-2.51-3.79-3.76-6.31-2.79Zm5.14,14.85c-2.57.8-4.01,3.53-3.22,6.1.8,2.57,3.53,4.01,6.11,3.22,2.57-.8,4.01-3.54,3.21-6.11-.79-2.57-3.53-4.01-6.1-3.21Zm4.14,15.15c-2.62.62-4.24,3.25-3.62,5.87.63,2.62,3.26,4.24,5.88,3.62,2.62-.62,4.24-3.26,3.62-5.88-.63-2.61-3.26-4.23-5.88-3.61Zm3.11,15.4c-2.66.45-4.45,2.96-4,5.62.45,2.66,2.97,4.45,5.63,4s4.45-2.97,4-5.63c-.45-2.64-2.98-4.44-5.63-3.99Zm2.08,15.58c-2.68.27-4.64,2.66-4.37,5.34.28,2.68,2.66,4.64,5.35,4.37,2.68-.27,4.64-2.67,4.37-5.35-.28-2.68-2.68-4.63-5.35-4.36Zm1.03,15.67c-2.69.09-4.81,2.34-4.72,5.04.1,2.7,2.35,4.81,5.04,4.72s4.8-2.35,4.71-5.04c-.08-2.7-2.34-4.81-5.03-4.72Zm-.02,15.72c-2.69-.09-4.95,2.02-5.04,4.71-.08,2.7,2.02,4.95,4.72,5.05,2.69.09,4.95-2.02,5.04-4.72.09-2.7-2.03-4.96-4.72-5.04Zm-1.07,15.67c-2.68-.27-5.08,1.68-5.35,4.36-.26,2.68,1.68,5.08,4.37,5.35,2.68.27,5.07-1.69,5.34-4.37.28-2.68-1.68-5.07-4.36-5.34Zm-2.11,15.57c-2.66-.45-5.18,1.34-5.63,4-.44,2.66,1.34,5.18,4,5.63s5.18-1.35,5.62-4c.46-2.66-1.33-5.18-3.99-5.63Zm-3.14,15.39c-2.62-.63-5.26.99-5.88,3.61-.62,2.63.99,5.25,3.62,5.88,2.62.62,5.25-1,5.88-3.62.62-2.61-1-5.25-3.62-5.87Zm-4.17,15.15c-2.57-.8-5.31.64-6.11,3.21-.79,2.58.64,5.31,3.22,6.11,2.57.79,5.31-.64,6.11-3.22.79-2.57-.65-5.3-3.22-6.1Zm-5.17,14.84c-2.51-.97-5.34.28-6.31,2.79-.96,2.52.28,5.34,2.8,6.32,2.51.97,5.34-.29,6.31-2.8.97-2.52-.29-5.35-2.8-6.31Zm-6.15,14.46c-2.44-1.14-5.35-.08-6.48,2.37-1.13,2.45-.08,5.35,2.37,6.49,2.44,1.13,5.35.07,6.48-2.38,1.14-2.45.07-5.35-2.37-6.48Zm-7.11,14.01c-2.36-1.3-5.33-.44-6.62,1.93s-.43,5.33,1.93,6.63c2.36,1.29,5.33.43,6.62-1.94,1.31-2.36.44-5.33-1.93-6.62Zm-8.02,13.51c-2.27-1.45-5.29-.79-6.74,1.48-1.45,2.28-.79,5.29,1.49,6.75,2.27,1.45,5.29.78,6.74-1.49,1.45-2.27.79-5.29-1.49-6.74Zm-8.9,12.94c-2.17-1.6-5.22-1.14-6.82,1.03-1.6,2.18-1.14,5.22,1.03,6.83,2.17,1.59,5.22,1.13,6.82-1.04,1.6-2.16,1.14-5.22-1.03-6.82Zm-9.75,12.32c-2.05-1.74-5.13-1.49-6.87.57-1.74,2.07-1.48,5.14.57,6.88,2.06,1.74,5.14,1.48,6.88-.58,1.73-2.05,1.48-5.13-.58-6.87Zm-10.56,11.64c-1.93-1.87-5.02-1.83-6.9.11-1.87,1.95-1.82,5.03.11,6.91,1.94,1.87,5.03,1.82,6.9-.12,1.88-1.93,1.83-5.03-.11-6.9Zm-11.3,10.91c-1.81-2-4.89-2.16-6.89-.35-2,1.82-2.15,4.89-.35,6.9,1.81,1.99,4.89,2.15,6.89.34,2-1.8,2.16-4.89.35-6.89Zm-12.01,10.13c-1.67-2.11-4.74-2.48-6.85-.81-2.11,1.68-2.48,4.74-.81,6.86,1.67,2.11,4.74,2.47,6.85.8,2.12-1.66,2.48-4.74.81-6.85Zm-12.66,9.31c-1.52-2.22-4.56-2.79-6.78-1.27-2.22,1.53-2.79,4.56-1.26,6.79,1.53,2.22,4.56,2.78,6.78,1.26,2.22-1.52,2.79-4.57,1.26-6.78Zm-13.25,8.43c-1.37-2.32-4.36-3.09-6.68-1.72-2.32,1.38-3.09,4.37-1.72,6.69,1.37,2.31,4.37,3.08,6.68,1.71,2.32-1.36,3.09-4.36,1.72-6.68Zm-13.79,7.54c-1.21-2.4-4.14-3.37-6.55-2.16-2.41,1.23-3.37,4.15-2.16,6.56,1.22,2.4,4.15,3.36,6.55,2.15,2.41-1.21,3.38-4.15,2.16-6.55Zm-14.26,6.6c-1.05-2.48-3.91-3.65-6.39-2.59s-3.64,3.92-2.59,6.41c1.05,2.48,3.92,3.64,6.4,2.58,2.47-1.06,3.63-3.92,2.58-6.4Zm-14.67,5.63c-.88-2.54-3.66-3.9-6.2-3.01-2.55.9-3.9,3.67-3.02,6.22.89,2.54,3.67,3.89,6.21,3,2.55-.89,3.9-3.67,3.01-6.21Zm-15.01,4.63c-.71-2.6-3.39-4.13-5.99-3.42-2.6.72-4.13,3.4-3.42,6,.72,2.6,3.4,4.13,6,3.41,2.59-.7,4.12-3.39,3.41-5.99Zm-15.29,3.63c-.53-2.64-3.1-4.35-5.75-3.81-2.64.55-4.35,3.11-3.82,5.76.54,2.64,3.12,4.34,5.76,3.81,2.64-.54,4.35-3.12,3.81-5.76Zm-15.49,2.59c-.36-2.67-2.81-4.55-5.48-4.19-2.67.37-4.55,2.82-4.19,5.49.36,2.67,2.82,4.54,5.49,4.18,2.66-.35,4.54-2.81,4.18-5.48Zm-15.64,1.56c-.18-2.68-2.5-4.73-5.19-4.55-2.69.19-4.72,2.51-4.55,5.2.18,2.69,2.51,4.72,5.2,4.54,2.69-.18,4.73-2.51,4.54-5.19Zm-15.7.5c0-2.69-2.18-4.88-4.87-4.88-2.7.01-4.88,2.19-4.89,4.88,0,2.69,2.19,4.88,4.88,4.88s4.88-2.18,4.88-4.88Zm-15.7-.54c.18-2.68-1.85-5.02-4.54-5.2-2.7-.17-5.02,1.86-5.2,4.55s1.86,5.01,4.55,5.19c2.68.18,5.01-1.85,5.19-4.54Zm-15.63-1.59c.36-2.67-1.51-5.13-4.18-5.49-2.68-.35-5.13,1.52-5.5,4.19-.36,2.67,1.52,5.12,4.19,5.48,2.67.36,5.13-1.51,5.49-4.18Zm-15.49-2.63c.54-2.64-1.16-5.22-3.8-5.76-2.65-.53-5.22,1.17-5.76,3.81-.53,2.64,1.17,5.21,3.81,5.75,2.63.54,5.21-1.16,5.75-3.8Zm-15.28-3.66c.71-2.6-.81-5.28-3.41-6-2.61-.71-5.29.82-6.01,3.42-.71,2.6.82,5.28,3.42,5.99,2.6.72,5.29-.81,6-3.41Zm-15-4.68c.88-2.54-.45-5.33-3-6.21s-5.33.46-6.22,3.01c-.88,2.54.47,5.32,3.01,6.21,2.54.89,5.33-.46,6.21-3.01Zm-14.66-5.66c1.05-2.48-.1-5.35-2.58-6.4-2.49-1.05-5.35.11-6.41,2.59-1.05,2.48.11,5.34,2.59,6.39,2.49,1.06,5.35-.1,6.4-2.58Zm-14.24-6.63c1.21-2.4.26-5.34-2.15-6.56-2.42-1.21-5.34-.25-6.57,2.15-1.21,2.4-.25,5.34,2.16,6.55,2.41,1.23,5.35.26,6.56-2.14Zm-13.77-7.57c1.37-2.31.62-5.31-1.7-6.69-2.33-1.37-5.31-.61-6.7,1.71-1.37,2.32-.6,5.31,1.72,6.68,2.31,1.39,5.31.62,6.68-1.7Zm-13.23-8.47c1.52-2.22.97-5.26-1.25-6.78-2.23-1.52-5.26-.96-6.8,1.26-1.52,2.22-.96,5.26,1.27,6.78,2.22,1.53,5.26.96,6.78-1.26Zm-12.64-9.33c1.67-2.11,1.32-5.18-.8-6.85-2.13-1.67-5.19-1.31-6.86.8-1.66,2.12-1.31,5.18.81,6.85,2.11,1.67,5.18,1.31,6.85-.8Zm-11.98-10.16c1.81-1.99,1.66-5.08-.34-6.89-2.01-1.81-5.09-1.66-6.9.34-1.8,2-1.65,5.08.35,6.89,1.99,1.81,5.08,1.66,6.89-.34Zm-11.28-10.94c1.94-1.87,2-4.96.12-6.9s-4.97-1.99-6.91-.12c-1.93,1.87-1.98,4.96-.11,6.9s4.96,2,6.9.12Zm-10.53-11.66c2.06-1.74,2.32-4.82.58-6.87-1.75-2.06-4.82-2.32-6.89-.58-2.05,1.74-2.31,4.82-.57,6.88,1.74,2.05,4.83,2.31,6.88.57Zm-9.72-12.35c2.17-1.6,2.64-4.65,1.04-6.82-1.61-2.17-4.66-2.64-6.83-1.04-2.16,1.6-2.63,4.65-1.03,6.82,1.59,2.18,4.65,2.64,6.82,1.04Zm-8.88-12.96c2.27-1.45,2.95-4.46,1.5-6.74-1.46-2.27-4.47-2.94-6.75-1.49-2.27,1.45-2.93,4.47-1.48,6.74,1.44,2.27,4.46,2.94,6.73,1.49Zm-7.99-13.53c2.36-1.29,3.24-4.26,1.94-6.62-1.31-2.37-4.26-3.23-6.63-1.94-2.36,1.3-3.23,4.26-1.93,6.63,1.29,2.36,4.26,3.23,6.62,1.93Zm-7.07-14.03c2.44-1.13,3.51-4.03,2.38-6.47-1.14-2.45-4.04-3.51-6.49-2.38-2.44,1.14-3.5,4.04-2.37,6.48,1.14,2.44,4.04,3.5,6.48,2.37Zm-6.11-14.47c2.51-.97,3.78-3.79,2.81-6.3-.98-2.52-3.79-3.77-6.32-2.81-2.51.97-3.76,3.8-2.79,6.31.96,2.51,3.79,3.77,6.3,2.8Zm-5.14-14.85c2.57-.8,4.02-3.53,3.22-6.1-.81-2.58-3.53-4.02-6.11-3.23-2.57.8-4.01,3.54-3.21,6.11.8,2.58,3.53,4.02,6.1,3.22Zm-4.13-15.16c2.62-.62,4.25-3.25,3.62-5.87-.63-2.63-3.26-4.24-5.88-3.63-2.62.63-4.24,3.26-3.61,5.88.62,2.62,3.25,4.25,5.87,3.62Zm-3.11-15.4c2.65-.45,4.45-2.96,4.01-5.62-.46-2.66-2.97-4.45-5.63-4.01-2.65.45-4.45,2.97-4,5.63.45,2.65,2.97,4.45,5.62,4Zm-2.07-15.57c2.68-.27,4.64-2.66,4.37-5.34-.28-2.69-2.66-4.64-5.35-4.38-2.68.27-4.64,2.66-4.36,5.35.26,2.68,2.66,4.64,5.34,4.37Zm-1.03-15.68c2.69-.09,4.81-2.34,4.72-5.03-.1-2.7-2.35-4.81-5.04-4.73-2.69.1-4.8,2.35-4.71,5.04.08,2.7,2.34,4.81,5.03,4.72Zm.02-15.71c2.69.09,4.96-2.01,5.04-4.7.08-2.7-2.02-4.95-4.72-5.05-2.69-.09-4.95,2.02-5.04,4.72-.09,2.68,2.03,4.94,4.72,5.03Zm1.07-15.68c2.68.27,5.08-1.68,5.35-4.36.26-2.69-1.69-5.08-4.37-5.36-2.68-.26-5.07,1.69-5.34,4.37-.28,2.69,1.68,5.09,4.36,5.35Zm2.11-15.57c2.65.44,5.18-1.34,5.63-3.99.44-2.67-1.34-5.18-4-5.64-2.65-.44-5.17,1.34-5.62,4-.46,2.67,1.33,5.19,3.99,5.63Zm3.15-15.39c2.62.62,5.26-.99,5.88-3.61.62-2.63-.99-5.26-3.62-5.89-2.62-.62-5.25,1-5.88,3.62-.62,2.62,1,5.26,3.62,5.88Zm4.17-15.15c2.57.79,5.31-.63,6.11-3.21.79-2.58-.64-5.31-3.21-6.12-2.57-.79-5.31.64-6.1,3.22-.81,2.58.63,5.32,3.2,6.11Zm5.17-14.83c2.51.96,5.34-.28,6.31-2.79.97-2.53-.28-5.34-2.8-6.32-2.51-.96-5.34.29-6.3,2.8-.97,2.51.28,5.34,2.79,6.31Zm6.16-14.46c2.44,1.13,5.35.08,6.48-2.36,1.13-2.46.07-5.35-2.37-6.49-2.44-1.13-5.35-.07-6.48,2.38-1.14,2.43-.08,5.34,2.37,6.47Zm7.1-14.01c2.36,1.29,5.33.44,6.62-1.93s.43-5.33-1.93-6.64c-2.36-1.29-5.33-.43-6.62,1.94-1.3,2.37-.43,5.33,1.93,6.63Zm8.03-13.51c2.27,1.44,5.29.79,6.74-1.48,1.45-2.28.79-5.29-1.48-6.75-2.27-1.44-5.29-.78-6.74,1.49-1.46,2.27-.8,5.29,1.48,6.74Zm8.91-12.94c2.17,1.59,5.22,1.14,6.82-1.03,1.6-2.18,1.14-5.23-1.03-6.84-2.17-1.59-5.22-1.13-6.82,1.04-1.61,2.18-1.15,5.23,1.03,6.83Zm9.75-12.32c2.06,1.73,5.14,1.49,6.87-.57,1.74-2.07,1.48-5.14-.57-6.89-2.06-1.73-5.14-1.48-6.88.58-1.74,2.06-1.48,5.14.58,6.88Zm10.55-11.64c1.94,1.87,5.03,1.83,6.9-.11,1.87-1.95,1.82-5.03-.11-6.91-1.94-1.87-5.03-1.82-6.9.12-1.88,1.94-1.83,5.03.11,6.9Zm11.31-10.9c1.81,1.99,4.89,2.16,6.89.35,2-1.82,2.16-4.9.35-6.9-1.81-1.99-4.89-2.15-6.89-.34-2,1.8-2.16,4.89-.35,6.89Zm12.01-10.13c1.67,2.11,4.74,2.48,6.85.81,2.12-1.68,2.48-4.74.81-6.86-1.67-2.11-4.74-2.47-6.85-.8-2.12,1.66-2.48,4.73-.81,6.85Zm12.66-9.3c1.52,2.22,4.56,2.79,6.78,1.27,2.23-1.54,2.79-4.56,1.27-6.79-1.53-2.22-4.56-2.78-6.79-1.26-2.22,1.52-2.78,4.55-1.26,6.78Zm13.26-8.44c1.37,2.31,4.36,3.09,6.68,1.72,2.32-1.38,3.09-4.37,1.72-6.69-1.38-2.31-4.37-3.08-6.69-1.71-2.32,1.37-3.09,4.36-1.71,6.68Zm13.79-7.53c1.22,2.4,4.15,3.38,6.55,2.16,2.41-1.23,3.37-4.15,2.16-6.57-1.22-2.4-4.15-3.37-6.56-2.15-2.41,1.22-3.37,4.15-2.15,6.56Zm14.26-6.6c1.05,2.48,3.91,3.65,6.39,2.59,2.49-1.06,3.64-3.92,2.6-6.41-1.06-2.48-3.92-3.64-6.4-2.58-2.49,1.06-3.65,3.92-2.59,6.4Zm14.66-5.63c.89,2.54,3.66,3.9,6.2,3.02,2.55-.89,3.89-3.67,3.02-6.22-.89-2.54-3.67-3.89-6.21-3.01-2.54.89-3.89,3.67-3.01,6.21Zm15.02-4.63c.71,2.59,3.39,4.14,5.99,3.42,2.61-.72,4.13-3.4,3.43-6-.72-2.59-3.4-4.13-6-3.41-2.6.71-4.14,3.39-3.42,5.99Zm15.29-3.62c.54,2.64,3.11,4.35,5.75,3.82,2.65-.55,4.35-3.11,3.82-5.76-.54-2.64-3.12-4.34-5.75-3.81-2.66.53-4.36,3.11-3.82,5.75Zm15.49-2.59c.36,2.67,2.81,4.55,5.48,4.19,2.68-.37,4.55-2.82,4.2-5.49-.36-2.67-2.82-4.54-5.49-4.18-2.67.35-4.55,2.8-4.19,5.48Zm15.64-1.56c.18,2.68,2.5,4.73,5.19,4.55,2.7-.19,4.72-2.51,4.56-5.2-.18-2.69-2.51-4.72-5.2-4.54-2.7.18-4.74,2.5-4.55,5.19Zm123.9,343.08c.23,0,.47-.06.69-.18.69-.38.95-1.25.57-1.94M234.35,33.74c-17.25,0-34.73,6.22-43.55,8.54-10.18,3.72-24.09,2.73-38,11.92-7.01,4.63-10.96,6.5-18.88,12.91-4.6,3.73-19.37,12.43-24.84,16.64-12.92,9.94-16.04,14.51-21.86,21.11-9.19,10.43-10.13,17.03-14.65,22.85-2.73,3.5-8.56,11.67-14.9,24.09-4.31,8.45-10.27,16.57-13.91,27.07-4.67,13.45-6.71,28.32-6.71,41.97,0,9.94-2.48,16.89-2.48,26.82,0,13.41,2.96,27.04,6.46,37.01,2.1,5.99,1.8,15.93,4.22,22.11,3.03,7.72,9.38,19.4,11.68,29.31,1.98,8.44,18.13,22.35,20.61,27.07,2.24,8.69,6.95,15.9,13.41,21.36,8,6.77,15.65,12.65,20.62,17.39,10.98,10.48,18.9,17.75,30.3,19.62,1.21.2,2.32.29,3.34.29,11.67,0,11.02-12.48,13.8-22.77,1.24-4.59,2.61-5.96,5.84-10.93-5.71-5.46-17.24-19.75-26.45-23.97-8.19-3.75-9.88-8.28-16.89-17.63-4.56-6.11-10.07-13.8-14.16-21.11-5.31-9.49-12.08-18.62-14.65-25.58-3.33-9.02-1.58-9.27-3.48-22.11-.99-6.71-5.96-20.62-5.96-32.79,0-8.44.5-13.91.5-22.35,0-14.97,2.24-24.84,5.96-33.03,4.99-10.97,12.92-22.6,19.13-35.77,5.16-10.95,12.92-13.16,23.1-30.55,3.62-6.18,14.61-9.75,22.85-15.4,5.7-3.91,14.97-11.73,21.11-14.65,6.04-2.87,9.92-3.97,16.64-6.46,5.53-2.05,10.43-4.97,20.37-6.46,1.86-.28,3.66-.35,5.47-.35,2.14,0,4.29.11,6.58.11h.37c3.41-.02,7.46-.34,12.16-.55l3.3-10.25,3.1,10.11c21,.15,39.05,4.01,51.48,8.64,6.4,2.38,10.87,6.72,17.63,10.18,9.69,4.97,28.07,11.43,40.98,25.34,7.62,8.21,13.41,24.75,20.87,34.28,4.33,5.58,9.19,10.43,11.18,19.12,1.95,8.51,2.09,16.82,4.47,25.33,2.67,9.56,8.69,17.69,8.69,27.32,0,15.65-.49,12.92-.49,28.56,0,19.36-4.52,34.61-12.42,48.43-4.97,8.69-5.94,14.35-9.94,20.86-4.1,6.68-9.49,12.48-15.4,17.39-5.95,4.94-20.37,16.64-28.81,27.32-5.39,6.82-8.82,10.68-17.88,12.91,4.22,3.6,4.18,3.29,4.59,6.58,1.74,13.91,3.48,24.59,6.83,26.7,2.82,1.78,5.78,3.03,10.74,3.03,1.83,0,3.93-.17,6.39-.54,8.2-1.24,14.9-7.45,24.59-21.36,6.05-8.69,15.17-11.54,23.84-17.88,10.18-7.45,15.15-17.39,22.85-34.28,5.45-11.95,13.79-18.59,18.63-29.56,10.18-23.1,7.2-29.81,8.94-51.41.68-8.44,1.51-19.71,1.74-26.83.27-8.54.25-18.63-1.49-26.83-3.64-17.15-6.93-19.47-10.68-32.04-3.43-11.47-2.48-24.59-11.67-40.49-11.8-20.41-17.63-19.12-22.1-26.58-4.62-7.7-9.58-17.28-15.9-23.6-8.2-8.2-23.2-14.96-31.54-20.37-8.45-5.46-18.78-15.26-33.28-21.11-15.4-6.21-29.56-5.71-44.21-8.69-12.93-2.63-19.15-5.13-34.53-5.96-1.22-.02-2.44-.05-3.65-.05m123.88,310.12l1.14-.95c6.18-5.13,11.19-10.77,14.87-16.78,1.87-3.04,3.03-5.86,4.37-9.13,1.37-3.34,2.93-7.13,5.53-11.67,8.25-14.44,12.1-29.45,12.1-47.21,0-7.88.12-11.13.25-14.38.12-3.21.25-6.42.25-14.19,0-5.53-2.23-10.66-4.59-16.1-1.46-3.36-2.97-6.84-4.01-10.56-1.37-4.88-2.02-9.71-2.65-14.38-.49-3.63-1-7.39-1.84-11.07-1.55-6.76-4.98-11.01-8.61-15.52-.71-.88-1.42-1.75-2.1-2.64-3.59-4.59-6.79-10.7-9.88-16.6-3.43-6.56-6.98-13.35-10.85-17.52-9.98-10.75-23.52-16.99-33.41-21.54-2.58-1.19-4.91-2.26-6.89-3.28-3-1.54-5.51-3.2-7.94-4.81-3.09-2.05-6.01-3.98-9.43-5.26-8.31-3.1-25.94-8.31-50.64-8.49h-1.81s-.53-1.74-.53-1.74l-.53-7.01-2.34,2.8-1.06,6v.08l-4.8.25c-2.76.15-5.24.29-7.84.3-1.18,0-2.33-.03-3.46-.05-1.05-.03-2.09-.05-3.12-.05-1.69,0-3.37.07-5.1.33-7.22,1.08-11.58,2.91-15.79,4.68-1.38.58-2.71,1.14-4.09,1.65-1.87.69-3.53,1.28-5.07,1.83-3.98,1.41-7.12,2.52-11.36,4.54-3.92,1.87-9.39,6-14.22,9.64-2.41,1.82-4.68,3.53-6.56,4.82-3.01,2.06-6.31,3.83-9.5,5.53-5.46,2.92-10.62,5.67-12.62,9.08-5.47,9.34-10.36,14.53-14.3,18.7-3.58,3.79-6.4,6.79-8.7,11.66-3.16,6.71-6.72,12.95-10.17,18.98-3.35,5.87-6.51,11.4-8.94,16.75-3.97,8.74-5.74,18.61-5.74,32.02,0,4.26-.12,7.76-.25,11.27-.12,3.45-.25,6.9-.25,11.09,0,7.94,2.21,16.7,3.98,23.74.87,3.44,1.61,6.4,1.95,8.69.76,5.09.95,8.22,1.1,10.73.23,3.8.35,5.71,2.26,10.89,1.52,4.13,4.75,9.28,8.17,14.74,2.12,3.38,4.32,6.91,6.32,10.49,4.17,7.45,9.98,15.46,13.98,20.84,1.52,2.03,2.8,3.83,3.94,5.45,4.11,5.83,6.18,8.75,12.01,11.42,7.31,3.34,15.72,12.36,21.86,18.95,2.04,2.18,3.84,4.12,5.27,5.48l1.47,1.41-1.11,1.71-1.71,2.57c-2.01,2.99-2.92,4.35-3.82,7.66-.56,2.08-.98,4.25-1.39,6.39-1.64,8.53-3.51,18.2-14.78,18.2-1.14,0-2.38-.1-3.74-.33-12.5-2.05-21.35-10.49-31.6-20.27-3.09-2.95-7.22-6.33-11.99-10.24-2.72-2.22-5.59-4.58-8.51-7.05-7.01-5.93-11.92-13.76-14-22.09-.75-1.42-3.49-4.39-6.39-7.53-5.81-6.29-13.03-14.11-14.45-20.13-1.51-6.51-4.88-13.92-7.85-20.45-1.42-3.12-2.74-6.02-3.72-8.52-1.39-3.53-1.93-8-2.46-12.32-.46-3.74-.89-7.28-1.8-9.87-4.19-11.95-6.59-25.74-6.59-37.82,0-5.15.64-9.53,1.27-13.77.63-4.25,1.22-8.27,1.22-13.05,0-15.08,2.37-29.88,6.84-42.78,2.51-7.25,6.03-13.28,9.42-19.12,1.62-2.79,3.21-5.51,4.62-8.27,6.72-13.15,12.83-21.5,15.15-24.49,1.61-2.08,2.76-4.32,4.09-6.92,2.15-4.2,4.83-9.43,10.66-16.05l2.53-2.92c4.59-5.35,8.55-9.96,19.67-18.52,2.75-2.11,7.73-5.3,12.54-8.38,4.92-3.15,10-6.4,12.25-8.22,5.73-4.64,9.38-6.92,13.61-9.57,1.68-1.05,3.44-2.15,5.46-3.49,9.51-6.28,18.88-7.99,27.15-9.5,4.13-.75,8.03-1.46,11.58-2.75,1.59-.42,3.47-.97,5.58-1.58,9.62-2.8,24.15-7.04,38.6-7.04h0c1.26,0,2.52.03,3.78.1,11.37.61,17.92,2.14,25.49,3.92,2.85.67,5.87,1.37,9.39,2.09,4.93,1,9.93,1.62,14.77,2.22,9.56,1.18,19.45,2.4,29.87,6.61,10.56,4.26,19.06,10.61,25.89,15.72,2.8,2.1,5.39,4.03,7.81,5.6,2.55,1.65,5.74,3.43,9.16,5.34,7.92,4.43,16.9,9.45,22.79,15.35,5.35,5.35,9.75,12.91,13.63,19.58.9,1.54,1.77,3.05,2.64,4.49,1.45,2.42,3.06,3.78,5.28,5.65,3.9,3.28,9.23,7.78,16.85,20.96,6.43,11.12,8.07,20.93,9.52,29.59.67,4.04,1.31,7.85,2.38,11.43,1.45,4.84,2.84,8.17,4.19,11.39,2.11,5.03,4.29,10.24,6.54,20.84,1.88,8.88,1.78,19.9,1.54,27.41-.18,5.68-.77,14.74-1.74,26.95-.43,5.39-.57,9.85-.69,13.86-.37,11.97-.64,20.62-8.45,38.35-2.51,5.69-5.95,10.3-9.27,14.76-3.31,4.44-6.73,9.03-9.37,14.82-7.61,16.7-12.82,27.33-23.64,35.24-2.96,2.17-5.93,3.92-8.8,5.61-5.52,3.25-10.73,6.32-14.47,11.7-10.45,15-17.56,21.07-26.24,22.39-2.53.38-4.75.57-6.76.57-5.84,0-9.25-1.64-12.05-3.4-4.06-2.56-5.8-11.22-7.96-28.48q-.26-2.06-2.75-4.17l-1-.85-3.65-3.11,4.65-1.15c8.32-2.05,11.4-5.54,16.54-12.05m-26.52,9.09c-.55.42-1.1.75-1.66.96-1,.39-2.49.43-5.51.48-2.15.04-6.36.11-8.04.61.01.04.02.06.03.08h0s.37.15,1.41.15c.76,0,1.59-.07,2.43-.15,1.01-.09,2.04-.17,3.01-.17s1.86.09,2.62.27c2.33.55,4.91,2.42,3.98,8.25-.2,1.26-.13,2.29.02,3.85.22,2.33,3.16,6.96,5.31,10.34l1.03,1.62c1.67,2.65,3.62,6.3,5.34,9.52l1.69,3.15.65-.13c.18-.24.2-.7.04-1.26-1.02-4.66-1.39-8.51-1.69-11.6l-.25-2.44c-.14-1.24-.49-3.14-.8-4.89-.5-2.78-.7-3.98-.7-4.67,0-1.87-1.35-3.04-3.55-4.8-2.4-1.92-5.4-4.31-5.4-8.64.01-.18.02-.36.04-.53m8.17-10.41c.41,0,.78.15,1.09.5,3.72,4.1-6.83,7.08-6.83,10.43,0,6.3,8.94,7.14,8.94,13.44,0,1.06,1.18,6.64,1.49,9.28.37,3.2.62,7.95,1.86,13.66.82,2.95-1.06,4.6-2.86,4.6-.93,0-1.84-.44-2.35-1.37-2-3.67-4.73-9-6.96-12.54-2.73-4.35-6.4-9.72-6.71-13.04-.14-1.5-.26-2.86,0-4.47.5-3.11,0-4.97-2.11-5.46-.63-.15-1.33-.2-2.06-.2-1.78,0-3.76.31-5.44.31-2.35,0-4.11-.62-3.93-3.59.19-2.98,13.21-1.74,15.15-2.48,2.85-1.09,7.79-9.07,10.72-9.07h0Zm-2.88,11.83c1.49,2.36,5.96-1.12,9.31-2.36-1.24-1.99-1.99-2.61-3.1-4.1-2.67,2.79-6.82,5.49-6.21,6.46Zm-11.75,6.2c-.09-1.65-7.27-.81-8.45-.99,0,1.61.25,2.61.5,3.6,5.34-.62,8.2,1.86,7.95-2.61Zm-9.6,7.13c-3.44,0-6.96.22-8.71.81-11.11,3.72-15.78,6.71-26.33,6.71-4.43,0-8.21.26-12.04.26-3.04,0-6.11-.17-9.57-.76-8.69-1.49-25.55-5.1-29.81-6.21-.42-.06-.86-.08-1.31-.08-3.09,0-6.81,1.18-11.08,1.18-1.85,0-3.8-.22-5.86-.85-1.49,8.57-3.73,12.29-7.2,15.27-9.31,11.55-12.42,17.26-7.58,22.73,4.42,4.99,12.42,3.23,20.87,4.47,8.74,1.29,14.57,2.4,20.36,4.22,6.75,2.12,18.47,4.77,27.95,4.77.72,0,1.42-.02,2.11-.05,10.02-.46,22.6-4.47,22.6-4.47,5.64-2,10.09-2.27,14.9-2.27,1.75,0,3.55.04,5.47.04,4.81,0,15.69-1.39,21.11-4.22,13.78-7.2,0-23.1-3.97-31.3-1.74-3.97-4.22-4.22-3.48-9.69-1.33-.32-4.84-.56-8.43-.56m0-2.46c3.17,0,7.19.19,9,.62l2.17.52-.3,2.21c-.37,2.69.13,3.38,1.22,4.88.62.86,1.4,1.94,2.04,3.4.72,1.48,1.78,3.23,2.92,5.13,3.92,6.5,8.8,14.59,6.84,21.61-.92,3.28-3.23,5.91-6.86,7.81-6.09,3.18-17.5,4.5-22.25,4.5l-2.89-.02-2.58-.02c-5.11,0-9.06.35-14.15,2.15-.53.17-13.01,4.12-23.24,4.58-.72.03-1.46.05-2.22.05-9.71,0-21.52-2.63-28.68-4.88-5.96-1.87-12.07-2.97-19.99-4.14-2.46-.36-4.89-.46-7.19-.55-5.85-.24-11.38-.46-15.16-4.72-6.52-7.36-1.26-15.03,7.82-26.22,2.88-2.47,4.96-5.65,6.38-13.83l.48-2.74,2.66.81c1.63.5,3.31.74,5.14.74,2.12,0,4.11-.32,6.04-.63,1.82-.29,3.5-.55,5.04-.55.56,0,1.11.03,1.94.16,4.21,1.1,21.07,4.7,29.6,6.16,2.92.5,5.74.72,9.15.72,1.82,0,3.62-.06,5.49-.12,2.07-.07,4.22-.14,6.54-.14,7.54,0,11.83-1.59,18.32-4,2.14-.79,4.49-1.66,7.22-2.58,2.32-.75,6.45-.91,9.5-.91h0Zm-97.04-4.02c-2.05,0-4.16-.62-6.21-.62-.75,0-.76,2.28-.62,2.86.37,1.49,2.73,1.49,8.44.75.65-.9.37-1.71.37-2.86-.99-.25-.96-.13-1.98-.13Zm-21.71-16.36s-.19.04-.5.28c-.61.46-.73.71-.73.71.18.17,1.48,1.25,2.26,1.89,2.18,1.79,4.88,4.03,4.79,7.42-.09,3.42-2.43,6.69-4.69,9.85-1.31,1.83-2.67,3.72-3.13,5.13l-1.11,3.27c-1.34,3.87-5.42,15.65-4.19,17.84,1.34-.35,7.2-6.87,13.04-16.45.46-.76,1.27-3.8,1.93-6.24,2.17-8.1,3.46-12.33,6.72-12.33.15.01.3.02.45.03-4.06-.74-8.26-2.78-10.26-5.19-.65-.78-1.29-1.79-1.93-2.84-.65-1.05-2-3.22-2.65-3.37m21.19,11.5c-.58,0-1.18.05-1.72.1-.59.05-1.13.09-1.57.09-.53,0-1.08-.03-1.63-.09.07.01.14.02.21.04,1.05.18,2.39.42,3.64.42,1.39,0,1.7-.23,1.76-.55h-.05c-.15,0-.36-.01-.64-.01m-21.19-13.96c2.76,0,4.52,4.76,6.47,7.1,1.86,2.24,7.02,4.6,11.43,4.6.83,0,2.1-.2,3.29-.2,1.66,0,3.17.38,3.17,2.18,0,2.64-1.99,3.3-4.24,3.3s-4.65-.64-5.7-.69h-.03c-2.47,0-4.86,14.62-6.55,17.39-1.63,2.67-10.83,17.35-15.61,17.35-.32,0-.63-.07-.91-.21-3.85-1.99,2.24-17.39,4.35-23.84,1.38-4.21,7.57-9.69,7.7-14.28.14-5.1-11.21-7.52-5.34-11.92.71-.55,1.37-.78,1.97-.78h0Zm-5.24,5.86c-.37.71-1.3,1.99-1.92,2.98,1.12,1.37,4.29,5.4,6.33,5.22.34-.03,2.11-1.65,1.99-2.36-.29-1.65-5.28-4.1-6.4-5.84Zm30.57,54.11l6.69,1.54.12-.54c-.82-.41-.89-.64-.71-1.43l4.2-18.2c.18-.78.4-.99,1.27-.97l.12-.54-4.73-1.16-4.92,2.73-.2,1,.54.12,2.77-.18-3.72,16.12c-.18.78-.43.94-1.31.96l-.12.55h0Zm-9.89-14.41c-.48,1.67.47,3.38,2.16,3.87s3.38-.47,3.86-2.14-.44-3.4-2.13-3.88c-1.7-.49-3.41.48-3.89,2.15h0Zm40.73,7.76v-.04.08c2.77.93,4.58,2.62,4.19,5.76-.69,5.62-7.64,5.82-11.69,5.32-4.26-.52-9.87-2.72-9.28-7.52.42-3.43,2.56-4.47,5.68-4.93v-.08c-2.13-.72-3.84-2.49-3.55-4.89.63-5.13,6.19-5.28,10.16-4.8,3.85.47,9.66,2.03,9.04,7.03-.3,2.62-2.11,3.7-4.55,4.07h0Zm-5.82.92c-3.93-.48-6.06.43-6.34,2.71-.28,2.27,1.56,3.68,5.49,4.16,3.93.48,6.06-.43,6.34-2.71s-1.56-3.68-5.49-4.16h0Zm1.12-8.76c-3.56-.44-5.14.12-5.37,2.07-.24,1.94,1.16,2.87,4.71,3.31,3.56.44,5.14-.13,5.38-2.07.23-1.95-1.17-2.87-4.72-3.31h0Zm36.14-.65l.34.29-2.34,4.54-.5-.16c-.09-.25-.13-.54-.35-.78-1.15-1.65-4.58-2.09-5.91-2.06-4.21.07-6.71,2.28-6.8,6.58,2.56-1.42,4.71-2.21,7.67-2.26,4.08-.07,8.33,2.23,8.41,6.73.09,5.21-5.49,7.89-9.99,7.97-6.62.12-10.7-4.06-10.81-10.6-.12-6.71,4.75-11.71,11.46-11.83,2.58-.04,4.38.38,5.6.86,1.26.48,1.97.92,2.43.92.34-.02.67-.07.79-.2h0Zm-9.58,9.59c-3.12.05-5.26,1.59-5.22,3.93.04,2.33,2.23,3.79,5.36,3.74,3.12-.06,5.26-1.59,5.22-3.93-.04-2.34-2.23-3.8-5.36-3.74h0Zm31.83-4.29v-.04s0,.08,0,.08c2.93.07,5.16,1.16,5.71,4.28.98,5.58-5.61,7.8-9.63,8.51-4.23.75-10.23.28-11.07-4.48-.6-3.41,1.15-5.03,4-6.37v-.08c-2.26-.07-4.42-1.25-4.84-3.63-.9-5.09,4.37-6.86,8.31-7.56,3.82-.67,9.83-.89,10.7,4.08.46,2.58-.96,4.14-3.18,5.21h0Zm-5.3,2.58c-3.9.69-5.67,2.18-5.27,4.44s2.57,3.06,6.47,2.37,5.67-2.18,5.27-4.44c-.4-2.25-2.57-3.05-6.47-2.37h0Zm-1.49-8.7c-3.53.62-4.87,1.62-4.54,3.55.34,1.93,1.95,2.41,5.48,1.78,3.53-.62,4.88-1.62,4.54-3.55-.34-1.93-1.95-2.4-5.48-1.78h0Zm17.52,4.16c.48,1.67,2.19,2.62,3.88,2.13s2.62-2.19,2.14-3.86c-.48-1.67-2.17-2.65-3.87-2.16-1.68.48-2.62,2.21-2.15,3.89h0Zm78.7-292.58l.59-.43c-.34-.46-.35-.9.04-1.19l10.96-7.96-3.18,17.69c-.1.63-.21.96-.38,1.08-.2.14-.44.02-.61-.21l-.59.43,3.89,5.35.59-.43c-.24-.33-.26-.77.14-1.06l14.99-10.89c.4-.29.81-.13,1.05.2l.59-.43-3.62-4.98-.59.43c.41.56.43,1,.03,1.29l-10.5,7.63,2.95-16.62c.13-.8.25-1.19.44-1.33.23-.17.43-.11.52.02l.59-.43-4.1-5.64-.59.43c.24.33.26.77-.14,1.06l-14.99,10.89c-.4.29-.81.13-1.05-.2l-.59.43,3.56,4.87h0Zm64.7,120.81l-.04-.73c-.57.03-1-.36-1.06-1.5l-.97-18.58-.73.04c.02.37-.21.75-.69.77l-18.5.97c-.49.03-.75-.33-.77-.69l-.73.04,1,18.99c.04.81-.01,1.39-.82,1.43l.04.73,5.71-.3-.04-.73c-.65.03-1.09-.51-1.13-1.33l-.71-13.61,5.62-.29.42,7.99c.06,1.06-.15,1.72-1.38,1.79l.04.73,6.36-.33-.04-.73c-1.22.06-1.42-.58-1.47-1.64l-.42-7.99,5.05-.27.69,13.2c.06,1.14-.25,1.57-.82,1.6l.04.73,5.35-.29h0Zm-153.52-171.91l1.09-5.61-.72-.14c-.12.64-.76.93-1.56.78l-13.3-2.58,3.1-15.94c.09-.48.5-.65,1.26-.5l.14-.72-6.89-1.34-.14.72c.84.16,1.15.47,1.06.95l-3.53,18.18c-.09.48-.5.65-1.34.49l-.14.72,19.07,3.71c.8.16,1.35.35,1.19,1.15l.71.13h0Zm-130.93,325.36c.92-1.47.48-3.38-1.01-4.31-1.49-.93-3.38-.48-4.3.99s-.52,3.39.98,4.32,3.41.47,4.33-1h0Zm-24.08-7.75l-5.23-4.24c-.38-.31-.67-.86-.21-1.43l-.57-.46-3.59,4.44.57.46c.46-.57,1.06-.4,1.44-.09l14.08,11.4c.38.31.67.86.21,1.43l.57.46,3.59-4.44-.57-.46c-.46.57-1.06.4-1.44.09l-5.23-4.24,10.22-12.62c.31-.38.75-.34,1.03-.11l.46-.57-4.88-3.95-.46.57c.41.33.54.76.24,1.14l-10.23,12.62h0Zm-47-47.24l.42.6c.47-.33,1.04-.23,1.69.71l10.67,15.24.6-.42c-.21-.3-.22-.74.18-1.02l15.17-10.62c.4-.28.81-.12,1.02.18l.6-.42-10.91-15.57c-.47-.67-.73-1.18-.06-1.65l-.42-.6-4.68,3.28.42.6c.53-.37,1.2-.14,1.66.53l7.82,11.16-4.61,3.23-4.59-6.55c-.61-.87-.78-1.54.22-2.25l-.42-.6-5.21,3.65.42.6c1-.7,1.51-.26,2.12.61l4.59,6.55-4.14,2.9-7.58-10.83c-.66-.94-.62-1.46-.15-1.78l-.42-.6-4.41,3.07h0Zm6.67-12.09c1.51-.87,2.01-2.76,1.13-4.28-.88-1.53-2.76-2.01-4.26-1.14-1.51.87-2.04,2.75-1.16,4.27.88,1.53,2.78,2.02,4.29,1.15h0Zm-17.25-8.25l.69-.25c-.27-.73-.16-1.16.3-1.33l11.31-4.12c6.02-2.19,6.42-6.33,3.95-13.12s-5.44-9.7-11.46-7.51l-11.31,4.12c-.46.17-.82-.09-1.02-.67l-.69.25,2.23,6.13.69-.25c-.29-.81-.19-1.23.27-1.4l11.5-4.19c3.22-1.17,5.01.65,6.44,4.56,1.42,3.91,1.22,6.46-2,7.63l-11.5,4.19c-.46.17-.82-.09-1-.59l-.69.25,2.29,6.3h0Zm10.15-39.39l-.72.14c.11.56-.06.97-.54,1.06l-13.3,2.59,10.36-14.69c.35-.53.6-.78.8-.82.24-.05.41.17.46.45l.72-.14-1.26-6.49-.72.14c.08.4-.09.81-.57.9l-18.18,3.53c-.48.09-.79-.22-.87-.62l-.72.14,1.18,6.05.72-.14c-.13-.68.04-1.09.52-1.18l12.74-2.48-9.7,13.82c-.45.67-.73.97-.97,1.02-.28.05-.43-.08-.46-.24l-.72.14,1.33,6.85.72-.14c-.08-.4.09-.81.57-.9l18.18-3.53c.48-.09.79.22.87.62l.72-.14-1.16-5.94h0Zm-4.75-29.27l-.73.08c.07.69-.13,1.08-.62,1.13l-18.42,1.94c-.49.05-.77-.29-.84-.98l-.73.08.71,6.74.73-.08c-.07-.69.13-1.08.62-1.13l18.42-1.94c.49-.05.77.29.84.98l.73-.08-.71-6.74h0Zm-22.7-19.72l.73-.04c-.04-.73.14-1.15.59-1.17s1.67.61,3.13,1.18l11.31,4.51-10.93,5.8c-1.31.72-2.22,1.3-2.79,1.33-.53.03-.72-.41-.74-.78l-.73.04.38,7.29.73-.04c.2-.91.42-1.37.97-1.69l15.55-8.17c1.19-.63,2.1-1.17,2.35-1.19.2,0,.49.06.59.34l.73-.04-.33-6.23-.73.04c-.15.21-.27.38-.55.4-.24,0-.96-.32-2.04-.75l-16.23-6.38c-.5-.22-1.58-.53-1.64-1.63l-.73.04.38,7.14h0Zm2.28-33.31l-.09.73c.57.07.92.52.78,1.66l-2.27,18.47.73.09c.04-.36.33-.7.82-.64l18.39,2.26c.49.06.68.45.64.82l.73.09,2.32-18.87c.1-.81.25-1.37,1.06-1.27l.09-.73-5.67-.7-.09.73c.65.08.98.7.88,1.51l-1.66,13.53-5.59-.69.97-7.94c.13-1.05.45-1.67,1.67-1.52l.09-.73-6.32-.78-.09.73c1.22.15,1.3.82,1.17,1.87l-.97,7.94-5.02-.62,1.61-13.12c.14-1.13.51-1.5,1.08-1.43l.09-.73-5.35-.66h0Zm3.15-7.12l-.71-.19,3.61-13.48c1.35-5.04,3.89-7.91,8.39-6.71,3.43.92,4.61,3.6,4.31,7.24l8.89-3.24c.61-.22.79-.76.91-1.19l.71.19-1.97,7.37-.71-.19c.13-.47.03-.92-.2-.98-.28-.07-.65.08-1.31.32l-7.31,2.69-1.51,5.64,7.02,1.88c.47.13.78-.09,1.03-.99l.71.19-1.83,6.82-.71-.19c.21-.79.07-1.21-.4-1.33l-17.89-4.79c-.49-.14-.82.15-1.03.94h0Zm4.19-4.92l5.83,1.56,1.83-6.82c1.01-3.78.05-5.23-1.61-5.67s-3.21.32-4.23,4.11l-1.82,6.82h0Zm23.36-15.61c-.09-.18-.14-.44-.05-.62.56-1.09,3.15-1.69,6-7.29,2-3.93,3.82-10.55-1.2-13.11-8.73-4.45-10.87,13.06-15.48,10.7-1.6-.82-.87-3.78.23-5.93,1.43-2.8,4.18-5.24,5.7-5.43.29-.03.64,0,.98.14l.33-.29-3.27-4.82-.51.29c.07.22.03.47-.15.84-.63,1.24-3.69,2.75-6.26,7.8-3.08,6.04-1.48,10.37,1.53,11.91,8.91,4.54,10.86-13.06,15.3-10.8,2.22,1.13.45,5.59-.36,7.19-1.17,2.29-4.13,5.31-5.7,5.43-.24.02-.44-.04-.66-.15l-.37.27,3.38,4.24.56-.37h0Zm17.25-26.42l-.61-.41c-.39.57-.8.74-1.2.47l-15.36-10.36c-.41-.27-.4-.72-.02-1.29l-.61-.41-3.79,5.62.61.41c.39-.58.8-.74,1.2-.47l15.36,10.36c.41.27.4.72.02,1.29l.61.41,3.79-5.62h0Zm-3.43-24.56l4.24-5.23c.31-.38.86-.67,1.43-.21l.46-.57-4.44-3.59-.46.57c.57.46.4,1.06.09,1.44l-11.4,14.08c-.31.38-.86.67-1.43.21l-.46.57,4.44,3.59.46-.57c-.57-.46-.4-1.06-.09-1.44l4.24-5.23,12.62,10.22c.38.31.34.75.11,1.03l.57.46,3.95-4.88-.57-.46c-.33.41-.76.54-1.14.24l-12.62-10.23h0Zm4.94-11.32c.38-.37,1.4-.73,2.03-.6l13.32,2.45,5.04,5.22c.34.35.25.78-.11,1.12l.51.53,4.64-4.48-.51-.53c-.41.4-.84.48-1.18.12l-5.05-5.22-1.84-11.89c-.36-2.32-.24-2.77.44-3.43l-.51-.53-5.14,4.96.51.53c.32-.31.85-.71,1.1-.44.23.23.25.67.38,1.45l1.13,8.04c-2.61-.65-8.51-1.59-8.97-2.06-.37-.38-.04-.81.31-1.15l-.51-.53-6.1,5.9.51.54h0Zm25.99-10.42c1.12,1.33,3.06,1.5,4.41.37s1.5-3.06.38-4.4c-1.12-1.33-3.06-1.54-4.41-.4-1.35,1.13-1.5,3.1-.38,4.43h0Zm15.13-26.17c5.05-3.16,13.04-4.01,16.99,2.32,3.96,6.33-.31,13.14-5.36,16.29-5.05,3.16-13.04,4.01-16.99-2.32-3.96-6.33.3-13.13,5.36-16.29h0Zm1.98,3.18c-3.53,2.21-5.99,6.82-3.54,10.73,2.44,3.91,7.67,3.72,11.2,1.52,3.53-2.2,5.99-6.82,3.54-10.73-2.44-3.91-7.67-3.72-11.2-1.52h0Zm42.93-11.64c.48,1.67,2.19,2.62,3.88,2.13,1.69-.49,2.62-2.19,2.14-3.86s-2.17-2.65-3.87-2.16c-1.69.49-2.63,2.22-2.15,3.89h0Zm36.25-5.35l-.52.4c.1.11.21.3.23.46.21,1.5-4.19,3.89-7.59,4.36-4.57.64-8.85-1.43-9.51-6.08s2.9-7.82,7.46-8.47c2.67-.37,7.02.41,7.43,1.59.07.2.13.35.15.51l.44.23,2.46-5.33-.67-.4c-.1.18-.25.57-.49.61-.2.03-1.29-.36-3.01-.61-1.73-.25-4.1-.45-6.81-.07-6.83.96-12.41,5.53-11.4,12.69,1.01,7.15,7.63,10.01,14.46,9.05,5.21-.73,9.29-4.56,9.89-4.65.16-.02.29,0,.45-.02l.28-.37-3.25-3.9h0Zm12.08,6.22l-5.79-.2.03-.73c.7-.06,1.09-.74,1.48-1.5l8.1-15.6c.39-.68.78-1.32.79-1.73.02-.53-.46-.75-.87-.85l.03-.73,6.89.24-.03.73c-.37.07-.87.22-.88.79,0,.41.18.82.52,1.53l7.9,16.89c.27.58.71.84,1.31,1.11l-.03.73-7.18-.25.03-.73c.2.01.66-.14.67-.47.01-.24-.06-.61-.29-1.07l-1.44-3.07-9.95-.35-1.57,2.84c-.26.52-.44.96-.45,1.21,0,.24.35.46.76.48l-.03.73h0Zm6.71-15.68l-4.1,7.45,7.26.25-3.16-7.7h0Zm47.38,23.63l.19-.71c-.67-.18-.96-.51-.84-.98l4.79-17.89c.13-.47.54-.61,1.22-.44l.19-.71-6.54-1.75-.19.71c.67.18.96.51.83.98l-4.79,17.89c-.13.47-.54.61-1.21.44l-.19.71,6.54,1.75h0Zm33.4-10.98l-.68-.29c-.22.53-.76.74-1.81.3l-17.43-7.4-.29.68c.64.27.88.64.69,1.09l-7.24,17.05c-.19.45-.62.53-1.26.26l-.29.68,6.38,2.71.29-.68c-.64-.27-1.03-.7-.84-1.15l3.09-7.29,7.36,3.12c.98.41,1.48.89,1,2.02l.68.29,2.3-5.41-.68-.29c-.29.68-.95.57-1.93.16l-7.36-3.12,1.98-4.66,12.17,5.17c1.05.45,1.3.91,1.08,1.43l.68.29,2.11-4.96h0Zm48.37,319.21l.54-.5c-.39-.42-.37-1,.47-1.77l13.61-12.69-.5-.54c-.27.25-.7.32-1.04-.04l-12.63-13.55c-.33-.36-.23-.79.04-1.04l-.5-.54-13.91,12.97c-.6.56-1.07.89-1.63.29l-.54.5,3.9,4.18.54-.5c-.44-.48-.31-1.17.29-1.72l9.97-9.29,3.84,4.12-5.85,5.45c-.78.72-1.42.99-2.25.09l-.54.5,4.34,4.65.54-.5c-.84-.9-.47-1.46.31-2.18l5.85-5.45,3.45,3.7-9.67,9.02c-.84.78-1.36.82-1.75.4l-.54.5,3.66,3.94h0Zm-6.09,2.69c-.42.32-1.48.55-2.09.35l-12.92-4.06-4.37-5.8c-.29-.39-.15-.81.24-1.1l-.44-.59-5.15,3.88.44.59c.46-.34.9-.37,1.19.02l4.37,5.8.38,12.03c.08,2.34-.1,2.78-.85,3.35l.44.59,5.7-4.3-.44-.59c-.36.27-.93.6-1.15.3-.2-.26-.16-.69-.2-1.48l-.14-8.12c2.52.97,8.26,2.62,8.65,3.14.32.42-.06.81-.45,1.1l.44.59,6.78-5.11-.43-.59h0Zm-28.7,8.17c-1.02-1.41-2.95-1.71-4.38-.68-1.43,1.04-1.71,2.95-.69,4.36,1.02,1.41,2.95,1.75,4.37.71,1.43-1.03,1.72-2.98.7-4.39h0Zm-223.32-20.29l-5.15,4.64c-.36.33-.79.22-1.04-.05l-.55.49,4.12,4.58.55-.49c-.27-.3-.34-.74.03-1.07l13.77-12.39c.36-.33.79-.22,1.06.08l.55-.49-4.12-4.58-.55.49c.25.27.31.71-.05,1.04l-5.7,5.13-8.79-9.76,5.7-5.13c.36-.33.79-.22,1.15.18l.55-.49-4.2-4.67-.55.49c.25.27.31.71-.05,1.04l-13.77,12.39c-.36.33-.79.22-1.04-.05l-.55.49,4.2,4.67.55-.49c-.36-.39-.42-.83-.05-1.16l5.15-4.64,8.78,9.75h0ZM176.77,56.18l-.65.33c.26.51.08,1.06-.94,1.58l-16.87,8.6.33.65c.62-.31,1.06-.26,1.28.17l8.41,16.51c.22.44,0,.82-.61,1.14l.33.65,6.18-3.15-.33-.65c-.62.31-1.2.34-1.42-.1l-3.59-7.05,7.13-3.63c.95-.48,1.64-.56,2.19.53l.65-.33-2.67-5.24-.65.33c.33.65-.17,1.1-1.12,1.58l-7.13,3.63-2.3-4.51,11.78-6c1.02-.52,1.53-.41,1.79.1l.65-.33-2.44-4.81h0Zm233.07,281.77l.36-.64c-.5-.28-.66-.83-.1-1.83l9.02-16.27-.64-.36c-.18.32-.57.52-1,.29l-16.2-8.98c-.43-.24-.46-.68-.29-1l-.64-.36-9.22,16.63c-.4.71-.74,1.17-1.46.78l-.36.64,5,2.77.36-.64c-.57-.32-.65-1.01-.26-1.73l6.61-11.92,4.93,2.73-3.88,6.99c-.51.93-1.05,1.38-2.12.79l-.36.64,5.57,3.09.36-.64c-1.07-.59-.9-1.24-.38-2.17l3.88-6.99,4.43,2.45-6.41,11.56c-.55,1-1.04,1.2-1.54.92l-.36.64,4.7,2.61h0Zm-35.21,10.65l4.68,3.28.42-.6c-.53-.37-.54-1.08-.07-1.74l7.77-11.1,13.3,9.31c.4.28.39.72-.05,1.36l.6.42,4.02-5.75-.6-.42c-.49.7-.9.86-1.3.58l-15.17-10.62c-.4-.28-.39-.72.1-1.42l-.6-.42-11.14,15.91c-.47.67-.86,1.09-1.53.62l-.43.59h0Zm40.61-57.02l-9.4,4.99c-.52.26-.84.39-1,.35-.2-.05-.23-.26-.16-.58l-.72-.17-1.7,7.36.72.17c.49-.85,1.59-1.64,2.54-2.13l11.59-6.12,5.16,10.82c.26.52.38,1.05.27,1.57l.72.16,1.93-8.35-.72-.17c-.07.32-.3.56-.66.48-.28-.06-.53-.58-1-1.49l-4.58-9.73,7.55,1.74c.48.11.63.52.53.96l.72.17,1.43-6.2-.72-.16c-.12.52-.44.82-.92.71l-18.05-4.17c-.48-.11-.63-.52-.51-1.04l-.72-.16-1.43,6.2.72.17c.1-.44.42-.74.9-.63l5.69,1.31,1.82,3.94h0Zm-75.25-218.01c4.94,3.33,8.96,10.28,4.79,16.47-4.18,6.19-12.13,5.06-17.06,1.73-4.94-3.33-8.96-10.28-4.79-16.47s12.12-5.06,17.06-1.73h0Zm-2.1,3.11c-3.45-2.33-8.67-2.7-11.24,1.13-2.58,3.82-.28,8.52,3.17,10.85s8.67,2.69,11.24-1.13c2.57-3.82.28-8.52-3.17-10.85h0Zm19.19,8.94l.47-.56,10.69,8.97c4,3.36,5.52,6.87,2.53,10.44-2.28,2.72-5.21,2.66-8.38.85l-.83,9.43c-.06.64.35,1.04.7,1.33l-.47.56-5.84-4.9.47-.56c.37.31.82.42.98.23.18-.22.21-.63.26-1.33l.65-7.76-4.47-3.75-4.67,5.56c-.31.37-.25.75.47,1.35l-.47.56-5.41-4.54.47-.56c.62.52,1.06.57,1.38.2l11.91-14.19c.31-.38.19-.8-.44-1.33h0Zm2.69,5.88l-3.88,4.63,5.41,4.54c3,2.52,4.71,2.25,5.82.94,1.1-1.31,1.07-3.05-1.93-5.57l-5.42-4.54h0Zm30.03,67.01l-2.08-5.41.69-.26c.32.62,1.1.71,1.96.78l17.52,1.36c.78.09,1.52.2,1.9.06.5-.19.51-.72.44-1.13l.69-.26,2.47,6.44-.69.26c-.21-.31-.54-.71-1.07-.51-.38.15-.69.48-1.21,1.07l-12.46,13.87c-.43.47-.5.98-.51,1.64l-.69.26-2.57-6.7.69-.26c.07.19.39.55.69.43.23-.09.54-.3.87-.68l2.26-2.53-3.57-9.29-3.23-.33c-.58-.04-1.06-.03-1.29.06s-.29.5-.14.88l-.67.25h0Zm17.06.05l-8.46-.86,2.6,6.78,5.86-5.92h0Zm2.25,21.35c-1.67.48-2.62,2.19-2.13,3.88s2.19,2.62,3.86,2.14c1.67-.48,2.65-2.17,2.16-3.87-.49-1.69-2.22-2.63-3.89-2.15h0Zm15.04,13.67l3.09,12.39c1.22,4.91.92,9.78-3.19,10.8-2.49.62-4.13-.86-5.4-2.77l-.08.02c-.1,2.63-1.11,4.99-4.12,5.74-3.17.79-6.25-1.47-7.5-6.46l-3.62-14.53.71-.18c.19.75.51,1.05.99.93l17.97-4.48c.47-.12.62-.53.44-1.29l.71-.17h0Zm-10.16,8.5l-5.62,1.4,1.89,7.56c.81,3.25,2.27,4.4,3.97,3.97,1.7-.42,2.46-2.13,1.65-5.37l-1.89-7.56h0Zm8.15-2.03l-4.75,1.18,1.89,7.56c.59,2.38,1.42,4.02,3.4,3.53,1.98-.49,1.94-2.33,1.35-4.71l-1.89-7.56h0Zm-36.62-49.88l.64-.37c-.35-.6-.32-1.04.11-1.29l16.04-9.26c.42-.24.82-.05,1.17.55l.64-.37-3.39-5.87-.64.37c.35.6.32,1.04-.11,1.29l-16.04,9.26c-.42.25-.82.05-1.17-.55l-.64.37,3.39,5.87h0Zm45.23,103.73l.73.05-.97,13.92c-.36,5.21-2.31,8.51-6.95,8.18-3.54-.25-5.21-2.65-5.61-6.28l-8.11,4.87c-.55.33-.63.9-.67,1.34l-.73-.05.53-7.61.73.05c-.03.49.14.91.38.93.28.02.63-.2,1.23-.57l6.66-4.03.41-5.82-7.25-.51c-.49-.03-.75.23-.82,1.17l-.73-.05.49-7.04.73.05c-.06.81.16,1.2.65,1.23l18.48,1.29c.5.05.76-.3.82-1.12h0Zm-3.17,5.63l-6.02-.42-.49,7.04c-.27,3.91.95,5.14,2.66,5.26s3.09-.93,3.37-4.84l.48-7.04h0Z" style="fill: #d7dde8; fill-rule: evenodd; stroke: #d7dde8; stroke-miterlimit: 10; stroke-width: 2px;"/>
  <g>
    <path d="m241.17,396.89c-.79,0-1.43-.63-1.43-1.42l-.06-8.29c0-.79.63-1.43,1.42-1.44h0c.79,0,1.43.63,1.43,1.42l.06,8.29c.01.79-.63,1.43-1.43,1.44.01,0,0,0,0,0Zm-56.13-22.11c-.17,0-.35-.03-.52-.1-.74-.29-1.1-1.12-.81-1.85l5.41-13.76c.29-.74,1.12-1.1,1.86-.81s1.1,1.12.81,1.85l-5.41,13.76c-.23.57-.77.91-1.34.91Zm112.26-.3c-.56,0-1.1-.34-1.33-.89l-2.61-6.4c-.3-.73.05-1.57.79-1.86.73-.29,1.57.05,1.86.79l2.61,6.4c.3.73-.05,1.57-.79,1.86-.16.07-.35.1-.53.1Zm-165.16-22.59c-.25,0-.5-.06-.72-.2-.68-.4-.91-1.28-.51-1.96l4.41-7.5c.4-.68,1.28-.91,1.96-.51.68.4.91,1.28.51,1.96l-4.41,7.5c-.27.45-.75.71-1.24.71Zm217.57-2.94c-.51,0-1-.27-1.26-.75l-3.04-5.56c-.38-.69-.12-1.56.57-1.94s1.56-.12,1.94.57l3.04,5.56c.38.69.12,1.56-.57,1.94-.21.13-.45.18-.68.18Zm-108.54-1.74c-.78,0-1.42-.63-1.43-1.41l-.06-5.06c0-.79.62-1.44,1.41-1.45h.02c.78,0,1.42.63,1.43,1.41l.06,5.06c0,.79-.62,1.44-1.41,1.45h-.02Zm-140.58-42.97c-.29,0-.58-.09-.83-.27-.64-.46-.79-1.36-.33-2l26.52-36.86c.46-.64,1.35-.79,2-.33.64.46.79,1.36.33,2l-26.52,36.86c-.29.4-.73.6-1.17.6Zm284.81-4.19c-.42,0-.84-.18-1.12-.54l-2.41-3.01c-.49-.62-.39-1.52.22-2.01.62-.49,1.52-.39,2.01.22l2.41,3.01c.49.62.39,1.52-.22,2.01-.26.22-.58.32-.89.32Zm-295.74-45.98c-.37,0-.73-.14-1.01-.42-.56-.56-.56-1.46,0-2.02l37.45-37.6c.56-.56,1.46-.56,2.02,0s.56,1.46,0,2.02l-37.45,37.6c-.28.28-.64.42-1.01.42Zm305.17-2.16c-.34,0-.69-.12-.96-.37l-13.82-12.49c-.59-.53-.63-1.43-.1-2.02.53-.59,1.44-.63,2.02-.1l13.82,12.5c.59.53.63,1.43.1,2.02-.28.3-.67.46-1.06.46Zm-301.69-52.98c-.49,0-.96-.25-1.23-.7-.4-.68-.18-1.56.5-1.96l33.97-20.22c.68-.41,1.56-.18,1.96.5.4.68.18,1.56-.5,1.96l-33.97,20.22c-.23.14-.48.2-.73.2Zm289.11-5.96c-.25,0-.51-.07-.74-.21l-26.63-16.24c-.67-.41-.89-1.29-.48-1.97.41-.68,1.29-.89,1.97-.48l26.62,16.25c.67.41.89,1.29.48,1.97-.27.44-.74.68-1.22.68Zm-258-47.29c-.6,0-1.16-.38-1.36-.99-.25-.75.16-1.56.92-1.8l12.17-3.97c.75-.25,1.56.16,1.8.92.25.75-.16,1.56-.92,1.8l-12.17,3.97c-.14.05-.29.07-.44.07Zm233.85-.99c-.14,0-.28-.02-.41-.06l-17.1-5.14c-.76-.23-1.19-1.03-.96-1.78.23-.76,1.03-1.18,1.78-.96l17.1,5.14c.76.23,1.19,1.03.96,1.78-.19.62-.76,1.02-1.37,1.02Zm-116.99-7.2c-.79,0-1.43-.64-1.43-1.43v-8.69c0-.79.64-1.43,1.43-1.43s1.43.64,1.43,1.43v8.69c0,.79-.64,1.43-1.43,1.43Zm-8.38-3.6c-.13,0-.27-.02-.4-.06-.76-.22-1.2-1.01-.98-1.77l.68-2.36c.22-.76,1.01-1.19,1.77-.98.76.22,1.2,1.01.98,1.77l-.68,2.36c-.18.63-.75,1.04-1.37,1.04Zm16.64-.03c-.62,0-1.19-.41-1.37-1.03l-.68-2.33c-.22-.76.22-1.55.97-1.77.76-.22,1.55.21,1.77.97l.68,2.33c.22.76-.22,1.55-.97,1.77-.14.04-.27.06-.4.06Zm-82.77-2.09c-.6,0-1.17-.39-1.36-.99-.24-.75.17-1.56.93-1.8l48.19-15.46c.75-.24,1.56.17,1.8.93.24.75-.17,1.56-.93,1.8l-48.19,15.46c-.15.04-.3.06-.44.06Zm148.34-.4c-.14,0-.28-.02-.43-.07l-47.99-15c-.75-.24-1.17-1.04-.94-1.79s1.03-1.18,1.79-.94l47.99,15c.75.24,1.17,1.04.94,1.79-.19.62-.75,1.01-1.36,1.01Zm-36.32-.34c-.26,0-.52-.07-.75-.21l-9.69-5.96c-.67-.41-.88-1.3-.47-1.97s1.3-.88,1.97-.47l9.69,5.96c.67.41.88,1.3.47,1.97-.27.44-.74.68-1.22.68Zm-75.51,0c-.48,0-.95-.24-1.22-.68-.41-.67-.2-1.55.47-1.97l9.69-5.96c.67-.41,1.55-.2,1.97.47.41.67.2,1.55-.47,1.97l-9.69,5.96c-.23.14-.49.21-.75.21Zm-57.87-9.44c-.68,0-1.28-.48-1.41-1.17-.14-.78.37-1.52,1.15-1.66l71.91-13.16c.78-.14,1.52.37,1.66,1.15s-.37,1.52-1.15,1.66l-71.91,13.16c-.08,0-.17.02-.25.02Zm194.48,0c-.08,0-.17,0-.25-.02l-75.01-13.16c-.78-.14-1.3-.88-1.16-1.66.14-.78.88-1.3,1.66-1.16l75.01,13.16c.78.14,1.3.88,1.16,1.66-.12.69-.73,1.18-1.41,1.18Zm-166.41-19.37c-.79,0-1.43-.64-1.43-1.43s.64-1.43,1.43-1.43l35.15-.06h0c.79,0,1.43.64,1.43,1.43s-.64,1.43-1.43,1.43l-35.15.06h0Zm133.87,0h-33.78c-.79,0-1.43-.64-1.43-1.43s.64-1.43,1.43-1.43h33.78c.79,0,1.43.64,1.43,1.43s-.64,1.43-1.43,1.43Z" style="fill: #d7dde8; stroke: #d7dde8; stroke-miterlimit: 10; stroke-width: 2px;"/>
    <path d="m239.13,102.03l-29.56-10.18h23.47l6.09,10.18h0Zm1.73-32.79v32.16l7.02-9.75-7.02-22.41h0Zm-.99,34.03l-10.25,3.6-7.56,22.62,17.81-26.22h0Zm1.18.25v11.8l18.75,14.1-18.75-25.9h0Zm31.48-11.74l-30.92,10.87,10.43,3.66,20.49-14.53h0Z" style="fill: #d7dde8; stroke: #d7dde8; stroke-miterlimit: 10; stroke-width: 2px;"/>
    <path d="m260.14,131.12c-.3,0-.59-.09-.84-.27l-18.33-13.28-18.31,13.28c-.5.36-1.18.36-1.68,0-.51-.37-.71-1.02-.51-1.61l7.3-22.14-19.67-14.14c-.5-.37-.71-1.01-.53-1.61.2-.59.75-.99,1.37-.99h0l23.55.02,7.11-22.13c.2-.6.75-.99,1.37-.99h.02c.62,0,1.17.41,1.35,1.01l6.77,22.11,23.91-.02h0c.62,0,1.17.4,1.37.99.19.6-.03,1.24-.53,1.61l-19.67,14.14,7.3,22.14c.2.59,0,1.24-.51,1.61-.25.17-.54.27-.84.27Zm-19.16-16.76c.3,0,.59.09.84.27l15.58,11.29-6.24-18.94c-.2-.6.02-1.25.51-1.62l16.92-12.16-20.52.02h0c-.62,0-1.18-.41-1.37-1.01l-5.75-18.76-6.04,18.78c-.2.6-.75.99-1.37.99h0l-20.15-.02,16.92,12.16c.5.37.71,1.02.51,1.62l-6.24,18.94,15.56-11.29c.25-.17.54-.27.84-.27Z" style="fill: #d7dde8; stroke: #d7dde8; stroke-miterlimit: 10; stroke-width: 2px;"/>
    <path d="m158.21,367.93c-1.27,0-2.55-.43-3.5-1.23-.98-.82-2.44-2.76-1.48-6.49-.23-1.74-.75-1.79-3.14-1.7-1.13,0-2.67.03-4.47-.23-4.41-.66-4.75-3.38-4.75-7.15,0-2.38,1.34-3.74,2.52-4.95,1.12-1.13,2.07-2.1,2.07-3.88s-.28-6.45-.59-7.16c-.14-.33-.09-.71.11-1.02.19-.3.53-.47.89-.47h0c3.82.02,13.02.02,20.95.02.59,0,1.07.48,1.07,1.07,0,1.51-.7,3.28-1.37,4.98-.5,1.28-1.03,2.59-1.03,3.33.08.52,1.66,2.02,2.61,2.91,2.02,1.9,4.09,3.84,4.09,5.78,0,1.68.09,3.07.17,4.11.05.68.08,1.22.08,1.61,0,1.1.68,1.62,1.24,1.87.65-.97,2.07-2.32,4.89-2.32,3.48,0,5.36,2.83,5.36,5.49,0,1.37-.47,2.65-1.34,3.59-.67.75-1.93,1.63-4.02,1.63-3.39,0-5.41-1.94-5.65-5.35-.56-.24-1.13-.4-1.69-.56-2.36-.66-4.8-1.34-5.62-7.18-.43-3.05-1.27-3.05-3.26-3.07-1.58-.01-3.74-.02-5.65-2.06l-.85-.9c-1.3-1.39-1.71-1.81-1.91-2.56-.54.92-1.3,1.79-2.39,2.41-1.63.93-2.19,1.79-2.16,2.27.02.43.5.9,1.34,1.29,1.15.53,1.74,1.71,2.42,3.07.45.92.96,1.92,1.69,2.85,1.21-.79,2.94-1.04,4.5-.53,1.1.37,3.68,1.72,3.68,6.26,0,1.64-.93,3.04-2.49,3.77-.73.33-1.52.5-2.32.5Zm-2.81-7.65c0,.09-.02.19-.03.29-.57,2.05-.33,3.6.73,4.49.92.78,2.38.94,3.53.42.56-.26,1.24-.79,1.24-1.82,0-2.25-.79-3.75-2.22-4.23-1.26-.43-2.58.02-3.06.65-.05.08-.11.15-.19.2Zm19.59,1.05c.05.12.06.23.06.35,0,2.62,1.15,3.89,3.53,3.89,1.06,0,1.88-.32,2.45-.94.48-.54.76-1.3.76-2.14,0-1.66-1.1-3.35-3.22-3.35-2.63,0-3.26,1.6-3.32,1.79-.06.15-.15.29-.26.4Zm-19.77-19.64c.51,1.81.64,2.76.71,3.34q.08.63,1.46,2.1l.85.91c1.29,1.37,2.66,1.37,4.12,1.38,2.08.01,4.66.02,5.36,4.9.53,3.66,1.55,4.57,3.04,5.1-.3-.54-.47-1.19-.47-1.96,0-.36-.03-.85-.08-1.46-.08-1.08-.17-2.52-.17-4.26,0-1.01-1.97-2.86-3.4-4.21-1.85-1.73-3.29-3.1-3.29-4.48,0-1.14.57-2.59,1.17-4.12.42-1.03.85-2.16,1.09-3.12-6.83,0-14.32,0-18.42-.01.34,2.42.42,6.45.42,6.5,0,2.66-1.48,4.16-2.67,5.37-1.07,1.09-1.91,1.94-1.91,3.45,0,3.9.43,4.65,2.92,5.02,1.63.26,3.01.25,4.13.21.47,0,.87-.01,1.3.01-.06-.11-.11-.22-.17-.32-.48-.96-.93-1.87-1.4-2.09-2.17-1-2.55-2.4-2.58-3.14-.05-1.06.48-2.64,3.25-4.23,2.02-1.16,2.52-3.91,2.63-4.72.06-.54.54-.99,1.07-.99.03,0,.05.01.06.01.48.03.87.37.98.81Z" style="fill: #d7dde8; stroke: #d7dde8; stroke-miterlimit: 10; stroke-width: 2px;"/>
    <path d="m126.54,335.06c-6.28,0-12.61-4.05-12.61-13.12,0-.38.17-9.3,14.99-14.08.36-.13.59-.19.64-.19l.53,2.07c-.16.05-.33.1-.5.16-1.17.46-4.33,2.27-4.33,8.44,0,5.35,2.58,7.75,5.14,7.75.59,0,4.66-.62,5.16-.76l1.37-.4.02,7.79-.48.32c-1.65,1.08-7.35,2.02-9.93,2.02Zm-2.11-23.04c-8.25,4.3-8.36,9.85-8.36,9.92,0,8.1,5.64,10.97,10.47,10.97,2.27,0,6.59-.78,8.25-1.43v-3.84c-1.54.26-3.82.58-4.4.58-3.51,0-7.29-3.1-7.29-9.89,0-2.74.55-4.79,1.33-6.31Z" style="fill: #d7dde8; stroke: #d7dde8; stroke-miterlimit: 10; stroke-width: 2px;"/>
    <g>
      <path d="m220.8,321.27c3.68,0,8.44,3.3,9.47,5.37.26.53.91.75,1.44.48s.75-.91.48-1.44c-1.48-2.95-7.02-6.56-11.39-6.56-2.98,0-6.16.56-10.55,1.34-1.28.23-2.66.47-4.18.73.21.7.44,1.37.7,2.06,1.38-.24,2.68-.47,3.86-.67,4.28-.76,7.38-1.31,10.17-1.31Z" style="fill: #d7dde8; stroke: #d7dde8; stroke-miterlimit: 10; stroke-width: 2px;"/>
      <path d="m137.26,333.66v-26.48c-.72.09-1.43.17-2.14.29v27.26c0,.59.48,1.07,1.07,1.07h43.26c-.21-.72-.34-1.42-.52-2.14h-41.67Z" style="fill: #d7dde8; stroke: #d7dde8; stroke-miterlimit: 10; stroke-width: 2px;"/>
      <path d="m234.37,323.78c.19.38.57.59.96.59.16,0,.33-.04.48-.11.53-.27.74-.91.48-1.44-1.08-2.15-5.4-9.16-15.99-9.16-5.82,0-10.04.91-15.38,2.07-.1.02-.21.04-.31.07.18.68.35,1.38.53,2.08.08-.02.16-.03.23-.05,5.22-1.13,9.33-2.02,14.93-2.02,9.36,0,13.14,6.1,14.07,7.97Z" style="fill: #d7dde8; stroke: #d7dde8; stroke-miterlimit: 10; stroke-width: 2px;"/>
      <path d="m139.26,306.93v23.7c0,.59.48,1.07,1.07,1.07,15.22,0,27.72-.37,37.92-.89-.04-.22-.12-.46-.16-.68-.08-.44-.35-.97-.51-1.44-9.83.5-21.72.85-36.17.87v-22.78c-.72.04-1.43.08-2.15.15Z" style="fill: #d7dde8; stroke: #d7dde8; stroke-miterlimit: 10; stroke-width: 2px;"/>
      <path d="m153.66,308.23v8.99c0,.28.11.56.31.76s.47.31.76.31c5.66,0,10.62-.17,15.13-.45-.72-.69-1.43-1.38-2.23-2.04-3.63.19-7.48.32-11.83.34v-7.24c-.69-.26-1.42-.45-2.14-.67Z" style="fill: #d7dde8; stroke: #d7dde8; stroke-miterlimit: 10; stroke-width: 2px;"/>
      <path d="m144.43,306.66c-.07,0-.14.01-.2.01v19.74c0,.59.48,1.07,1.07,1.07,12.69,0,22.89-.36,31.47-.89-.34-.67-.82-1.38-1.27-2.08-8.07.47-17.51.8-29.13.82v-18.46c-.65-.04-1.28-.21-1.94-.21Z" style="fill: #d7dde8; stroke: #d7dde8; stroke-miterlimit: 10; stroke-width: 2px;"/>
      <path d="m148.94,307.15v14.54c0,.59.48,1.07,1.07,1.07,9.49,0,17.19-.26,23.78-.65-.53-.68-1.1-1.35-1.71-2.03-5.93.32-12.81.53-21,.54v-13.18c-.69-.16-1.42-.19-2.14-.29Z" style="fill: #d7dde8; stroke: #d7dde8; stroke-miterlimit: 10; stroke-width: 2px;"/>
    </g>
    <path d="m249.22,382.67c-5.5,0-9.58-.74-12.54-1.27-1.79-.33-3.32-.61-4.15-.52-8.68.42-14.03-3.27-18.81-6.61-2.97-2.09-5.78-4.05-9.07-4.85-3.03-.71-5.02-3.91-7.33-7.61-2.1-3.36-4.47-7.15-7.86-9.15-6.15-3.6-10.33-11.11-12.44-22.34-1.44-7.73-16.22-22.59-32.59-22.59-11.42,0-25.74,3.65-28.47,13.94l-2.11-.25c-.14-5.36,3.29-9.55,6.6-13.6,2.76-3.39,5.39-6.59,5.39-9.98,0-2.45-.42-2.96-.81-3.45-.51-.63-.93-1.27-.93-2.76,0-1.82,1.03-3.55,3.04-5.16,5.28-4.18,16.17-6.48,17.91-6.07,1.93.47,4.19.04,6.57-.41,3.6-.68,7.36-1.41,10.66.89,3.08,2.16,4.85,2.67,7.1,3.32,2.3.66,5.16,1.48,10.21,4.26,5.95,3.26,9.57,7.04,13.06,10.7,2.49,2.59,4.83,5.04,7.91,7.25,3.45,2.46,4.47,6.57,5.56,10.93,1.26,5.06,2.56,10.3,7.81,13.62,5.96,3.79,7.66,6.83,9.04,9.27,1.51,2.7,2.5,4.49,9.04,6.25,4.96,1.34,7.41,2.66,9.38,3.74,3.06,1.65,4.71,2.59,14.07,1.69,3.95-.37,5.3-1.82,6.73-3.36.81-.86,1.65-1.76,2.9-2.46,1.32-.74,2.76-1.36,4.18-1.97,3.12-1.34,6.09-2.61,6.09-4.56,0-6.26-.23-8.29-.25-8.31l-.14-1.2h1.21c5.48,0,21.81,4.34,22.68,12.64h0c.09.89.2,1.77.3,2.62.4,3.37.76,6.28.03,8.51-1.54,4.61-5,6.59-7.3,7.9-.7.4-1.37.78-1.65,1.07-.22.23-.48.54-.79.89-2,2.31-6.2,7.11-12.16,9.19-1.68.59-2.44,1.5-3.42,2.65-1.6,1.89-3.59,4.24-10.13,5.58-5.68,1.18-10.48,1.57-14.52,1.57Zm-16.38-3.94c1.13,0,2.53.25,4.24.56,4.96.89,13.22,2.37,26.24-.28,5.81-1.2,7.39-3.07,8.92-4.88,1.06-1.23,2.13-2.5,4.35-3.28,5.44-1.9,9.23-6.24,11.26-8.58.33-.38.62-.71.85-.96.5-.52,1.23-.94,2.14-1.46,2.13-1.21,5.05-2.87,6.31-6.71.59-1.78.26-4.47-.11-7.58-.11-.85-.22-1.75-.31-2.66h0c-.61-5.8-13.05-10.14-19.37-10.66.08,1.23.16,3.51.16,7.32,0,3.36-3.76,4.98-7.39,6.53-1.35.58-2.75,1.18-3.96,1.86-.98.54-1.66,1.27-2.39,2.06-1.57,1.68-3.34,3.57-8.08,4.03-9.96.93-11.98-.13-15.32-1.94-1.88-1.02-4.21-2.28-8.92-3.56-7.41-1.99-8.78-4.43-10.36-7.27-1.32-2.35-2.81-5.01-8.31-8.5-5.96-3.78-7.44-9.7-8.75-14.92-1.03-4.13-1.93-7.7-4.72-9.71-3.25-2.31-5.78-4.96-8.22-7.5-3.39-3.54-6.88-7.2-12.54-10.31-4.85-2.66-7.47-3.42-9.77-4.09-2.35-.67-4.36-1.25-7.75-3.62-2.52-1.76-5.7-1.17-9.01-.54-2.49.47-5.06.99-7.47.39-1.15-.19-11.65,1.93-16.33,5.88-1.32,1.1-1.99,2.21-1.99,3.26,0,.85.16,1.04.45,1.41.71.87,1.29,1.83,1.29,4.8,0,4.16-2.86,7.65-5.87,11.34-1.06,1.28-2.11,2.58-3.04,3.91,6.28-5.42,16.62-7.51,25.37-7.51,17.71,0,33.1,15.79,34.7,24.35,1.99,10.58,5.83,17.6,11.42,20.88,3.85,2.26,6.37,6.3,8.59,9.86,1.97,3.17,3.85,6.15,6.01,6.67,3.7.88,6.66,2.96,9.82,5.16,4.71,3.31,9.49,6.77,17.44,6.23.12.02.26.02.42.02Z" style="fill: #d7dde8; stroke: #d7dde8; stroke-miterlimit: 10; stroke-width: 2px;"/>
    <path d="m296.63,341.96c-.4-2.83-6.99-7.85-16.37-9.27l-2.36-.35c-11.87-1.73-24.14-3.53-24.14-19.34,0-3.72,3.18-6.61,8.98-8.14,5.58-1.44,12.75-.91,18.27,1.37l2.55,1.06-2.58.95c-.17.06-4.21,1.67-4.21,7.5,0,3.68,4.15,6.36,8.95,9.47,6.12,3.96,13.05,8.44,13.05,16.61l-2.14.14Zm-27.12-35.77c-2.19,0-4.3.25-6.21.75-2.76.72-7.39,2.48-7.39,6.06,0,13.96,10.84,15.54,22.31,17.21l2.36.35c6.32.96,11.59,3.43,14.82,6.16-2.1-4.05-6.52-6.92-10.84-9.72-5.11-3.3-9.93-6.42-9.93-11.27,0-4.42,1.94-6.94,3.53-8.26-2.73-.84-5.74-1.28-8.65-1.28Z" style="fill: #d7dde8; stroke: #d7dde8; stroke-miterlimit: 10; stroke-width: 2px;"/>
    <path d="m318.85,321.57c-3.29,0-6.51-2.17-9.88-4.46-3.67-2.48-7.46-5.03-11.54-5.03-6.23,0-11.28-1.83-15.74-3.45-3.54-1.28-6.63-2.4-9.65-2.4-.14,0-.28,0-.42.01l-.5.02c-4.8.16-13.75.45-15.25,6.98l-2.11-.28c.09-2.48,2.31-4.68,4.89-7.22,3.79-3.75,8.51-8.41,8.51-15.72,0-3.04-1.41-3.58-2.76-4.1-.82-.32-1.94-.75-1.94-1.99,0-3,1.88-8.02,14.48-8.02,11.17,0,13.39,1.11,19.35,4.08,2.33,1.17,3.84,1.06,5.7.94,2.33-.18,5-.38,9.34,2.62,11.53,7.95,16.73,6.68,21.78,5.44,2.72-.66,5.48-1.34,9.12-.63.67.13,1.43.3,2.24.47,3.25.69,7.7,1.64,9.24,1.27,1.88-.42,12.07-4.33,12.07-11.62,0-9.03-6.82-11.67-7.11-11.78l-2.36-.89,2.27-1.1c3.26-1.55,5.87-2.21,8.78-2.21,10.59,0,13.92,3.4,15.49,15.84,1.54,12.4-11.2,32.43-16.78,37.21-7.18,6.14-15.16,5.8-25.29,5.42-6.04-.26-12.92-.53-20.97.54-.33.04-.65.06-.96.06Zm-46.82-17.48c3.42,0,6.8,1.23,10.39,2.53,4.29,1.55,9.15,3.32,15.01,3.32,4.75,0,8.99,2.87,12.74,5.4,3.36,2.27,6.46,4.42,9.35,4.05,8.17-1.09,15.15-.83,21.34-.55,9.99.39,17.27.7,23.8-4.91,5.36-4.59,17.41-24.26,16.03-35.32-1.41-11.36-3.91-13.96-13.34-13.96-1.99,0-3.79.34-5.87,1.15,2.52,1.69,6.45,5.47,6.45,12.68,0,8.75-11.01,13.11-13.75,13.72-1.85.46-5.56-.3-10.14-1.27-.81-.17-1.55-.33-2.22-.46-3.18-.67-5.61-.02-8.19.61-5.28,1.29-11.22,2.71-23.5-5.76-3.74-2.58-5.81-2.43-7.97-2.25-1.83.16-3.91.3-6.82-1.15-5.78-2.89-7.74-3.86-18.39-3.86-7.78,0-12.15,2-12.33,5.63.16.08.39.16.56.23,1.44.56,4.15,1.59,4.15,6.11,0,6.75-3.57,11.48-7.01,15.08,3.09-.8,6.38-.91,8.76-.99l.5-.02c.14-.01.29-.01.45-.01Z" style="fill: #d7dde8; stroke: #d7dde8; stroke-miterlimit: 10; stroke-width: 2px;"/>
    <g>
      <g>
        <path d="m331.38,263.41c.72-.04,1.43-.19,2.15-.29v-26.66c-.55-.12-1.44-.14-2.15-.22v27.17Z" style="fill: #d7dde8; stroke: #d7dde8; stroke-miterlimit: 10; stroke-width: 2px;"/>
        <path d="m336.34,289.49c.7-.13,1.41-.23,2.15-.28v-9.97c-.67.22-1.43.25-2.15.36v9.89Z" style="fill: #d7dde8; stroke: #d7dde8; stroke-miterlimit: 10; stroke-width: 2px;"/>
        <path d="m280.89,157.83c-.11.58.28,1.14.86,1.25,5.46,1.03,12.33,1.53,21.02,1.54.59,0,1.07-.48,1.07-1.07s-.48-1.07-1.07-1.07c-8.56,0-15.3-.5-20.62-1.5-.59-.12-1.15.26-1.26.85Z" style="fill: #d7dde8; stroke: #d7dde8; stroke-miterlimit: 10; stroke-width: 2px;"/>
        <path d="m270.81,145.07c-.56-.19-1.17.12-1.35.69-.18.56.12,1.17.69,1.35,5.28,1.73,14.19,3.88,26.64,4.28h.03c.57,0,1.05-.46,1.07-1.04.02-.59-.44-1.09-1.04-1.11-12.2-.39-20.89-2.49-26.04-4.17Z" style="fill: #d7dde8; stroke: #d7dde8; stroke-miterlimit: 10; stroke-width: 2px;"/>
        <path d="m326.65,263.07c.73.13,1.43.25,2.15.3v-27.32c-.69,0-1.42.38-2.15.65v26.37Z" style="fill: #d7dde8; stroke: #d7dde8; stroke-miterlimit: 10; stroke-width: 2px;"/>
        <path d="m302.27,149.33h0c-.59,0-1.07.48-1.08,1.07,0,.59.48,1.07,1.07,1.08h.73c4.43,0,9.39-.13,14.73-.39.59-.03,1.05-.53,1.02-1.12s-.54-1.06-1.12-1.02c-5.6.26-10.78.4-15.35.38Z" style="fill: #d7dde8; stroke: #d7dde8; stroke-miterlimit: 10; stroke-width: 2px;"/>
        <path d="m338.48,325.42v-5.61c-.71-.03-1.41-.05-2.15-.07v4.6c-30.97-.04-47.11-1.81-57.78-3.29.89.88,1.9,1.74,3.07,2.57,10.87,1.4,27.04,2.87,55.79,2.87.59,0,1.07-.48,1.07-1.07Z" style="fill: #d7dde8; stroke: #d7dde8; stroke-miterlimit: 10; stroke-width: 2px;"/>
        <path d="m272.72,234.14c-.58-.12-1.15.25-1.27.83s.25,1.15.83,1.27l.94.2c3.18.68,7.13,1.53,12.44,2.29.05,0,.1,0,.15,0,.53,0,.98-.39,1.06-.92.09-.59-.32-1.13-.91-1.21-5.23-.75-9.15-1.59-12.29-2.27l-.95-.2Z" style="fill: #d7dde8; stroke: #d7dde8; stroke-miterlimit: 10; stroke-width: 2px;"/>
        <path d="m269.06,223.58c-2.11,0-3.94.05-5.6.14-.59.03-1.04.54-1.01,1.13.03.59.56,1.05,1.13,1.01,1.62-.09,3.41-.14,5.48-.14,1.95,0,3.54.35,5.95.88,3.66.8,9.19,2.02,20.24,2.74h.07c.56,0,1.03-.44,1.07-1,.04-.59-.41-1.1-1-1.14-10.88-.71-16.32-1.91-19.92-2.7-2.45-.53-4.22-.92-6.41-.92Z" style="fill: #d7dde8; stroke: #d7dde8; stroke-miterlimit: 10; stroke-width: 2px;"/>
        <path d="m260.43,244.06c-.59.05-1.03.57-.97,1.16.05.59.56,1.03,1.16.97,1.55-.14,3.29-.21,5.33-.21s4.34.53,7.55,1.27c5.76,1.32,14.46,3.3,29.64,4.11h.06c.57,0,1.04-.44,1.07-1.02.03-.59-.42-1.1-1.02-1.13-15-.8-23.59-2.76-29.28-4.06-3.35-.77-5.77-1.32-8.03-1.32-2.09.02-3.9.09-5.51.23Z" style="fill: #d7dde8; stroke: #d7dde8; stroke-miterlimit: 10; stroke-width: 2px;"/>
        <path d="m287.74,260.59s.09.01.14.01c.53,0,.99-.4,1.06-.94.08-.59-.34-1.13-.93-1.2-5.49-.7-11.59-1.96-14.36-2.64-.58-.14-1.16.21-1.3.79-.14.58.21,1.16.79,1.3,2.82.69,9.03,1.97,14.6,2.68Z" style="fill: #d7dde8; stroke: #d7dde8; stroke-miterlimit: 10; stroke-width: 2px;"/>
        <path d="m267.42,266.56c.02.58.49,1.05,1.07,1.05h.03c2.36-.06,5.88.5,9.94,1.14,4.39.7,9.36,1.49,14.25,1.71h.05c.57,0,1.05-.45,1.07-1.03.03-.59-.43-1.09-1.02-1.12-4.77-.22-9.68-1-14.01-1.69-4.16-.66-7.76-1.23-10.33-1.17-.59.02-1.06.52-1.05,1.11Z" style="fill: #d7dde8; stroke: #d7dde8; stroke-miterlimit: 10; stroke-width: 2px;"/>
        <path d="m246.59,213.03c.17.1.36.15.54.15.37,0,.73-.19.93-.53,2.82-4.83,7.13-6.68,16.49-7.1.59-.03,1.05-.53,1.03-1.12-.03-.59-.52-1.04-1.12-1.03-10.09.45-15.04,2.66-18.25,8.16-.3.52-.13,1.17.38,1.47Z" style="fill: #d7dde8; stroke: #d7dde8; stroke-miterlimit: 10; stroke-width: 2px;"/>
        <path d="m247.13,304.78c.37,0,.73-.19.93-.53,1.18-2.02,2.5-3.32,4.16-4.1.54-.25.77-.89.52-1.43-.25-.54-.89-.77-1.43-.52-2.07.97-3.69,2.54-5.1,4.96-.3.51-.12,1.17.39,1.47.16.1.35.15.53.15Z" style="fill: #d7dde8; stroke: #d7dde8; stroke-miterlimit: 10; stroke-width: 2px;"/>
        <path d="m246.59,173.64c.17.1.36.15.54.15.37,0,.73-.19.93-.53,2.92-5,7.62-6.87,17.96-7.15.59-.02,1.06-.51,1.04-1.1-.02-.59-.5-1.08-1.1-1.04-11.23.3-16.4,2.45-19.76,8.22-.29.49-.12,1.15.39,1.45Z" style="fill: #d7dde8; stroke: #d7dde8; stroke-miterlimit: 10; stroke-width: 2px;"/>
        <path d="m246.53,253.57c.17.1.36.15.54.15.37,0,.73-.19.93-.53,2-3.43,4.49-5.31,8.32-6.29.57-.15.92-.73.77-1.3-.15-.57-.72-.92-1.3-.77-4.38,1.11-7.36,3.36-9.64,7.29-.3.49-.13,1.15.38,1.45Z" style="fill: #d7dde8; stroke: #d7dde8; stroke-miterlimit: 10; stroke-width: 2px;"/>
        <path d="m255.86,298.52c1.07-.36,1.77-.61,2.27-.8q1.07-.39,2.36-.39c.59,0,1.07-.48,1.07-1.07s-.48-1.07-1.07-1.07c-1.6,0-1.72.02-3.09.52-.49.18-1.17.43-2.22.77-.56.19-.86.8-.68,1.36.15.45.57.73,1.02.73.11,0,.22,0,.34-.05Z" style="fill: #d7dde8; stroke: #d7dde8; stroke-miterlimit: 10; stroke-width: 2px;"/>
        <path d="m246.53,242.79c.17.1.36.15.54.15.37,0,.73-.19.93-.53,2.9-4.97,8.28-7.19,17.45-7.19.59,0,1.07-.48,1.07-1.07s-.48-1.07-1.07-1.07c-10.02,0-15.98,2.55-19.31,8.25-.29.51-.12,1.16.39,1.46Z" style="fill: #d7dde8; stroke: #d7dde8; stroke-miterlimit: 10; stroke-width: 2px;"/>
        <path d="m261.31,287.41c-.01-.59-.48-1.05-1.09-1.06-6.14.08-10.43.59-13.99,6.68-.3.51-.12,1.17.39,1.47.17.1.36.15.54.15.37,0,.73-.19.93-.53,2.91-4.98,5.94-5.54,12.16-5.62.59-.01,1.07-.5,1.06-1.09Z" style="fill: #d7dde8; stroke: #d7dde8; stroke-miterlimit: 10; stroke-width: 2px;"/>
        <path d="m246.53,262.71c.17.1.36.15.54.15.37,0,.73-.19.93-.53,3.06-5.24,7.04-6.12,17.45-6.12,1.45,0,2.86.3,4.17.63.57.15,1.16-.21,1.3-.78.14-.57-.21-1.16-.78-1.3-1.44-.36-3.01-.69-4.69-.69-9.4,0-15.39.48-19.31,7.19-.29.49-.12,1.15.39,1.45Z" style="fill: #d7dde8; stroke: #d7dde8; stroke-miterlimit: 10; stroke-width: 2px;"/>
        <path d="m246.59,192.57c.17.1.36.15.54.15.37,0,.73-.19.93-.53,1.51-2.58,4-4.36,7.84-5.58.57-.18.88-.78.7-1.35s-.78-.88-1.35-.7c-4.38,1.39-7.26,3.47-9.05,6.54-.29.51-.12,1.17.39,1.47Z" style="fill: #d7dde8; stroke: #d7dde8; stroke-miterlimit: 10; stroke-width: 2px;"/>
        <path d="m246.59,183.23c.17.1.36.15.54.15.37,0,.73-.19.93-.53,3.17-5.44,8.28-7.19,21.01-7.19,1.76,0,3.14.45,5.05,1.08.43.14.87.29,1.35.44.56.18,1.17-.14,1.35-.7.18-.57-.14-1.17-.7-1.35-.47-.15-.91-.29-1.33-.43-2.02-.66-3.61-1.19-5.72-1.19-13.49,0-19.26,2.08-22.86,8.25-.3.51-.13,1.17.38,1.47Z" style="fill: #d7dde8; stroke: #d7dde8; stroke-miterlimit: 10; stroke-width: 2px;"/>
        <path d="m246.59,202.7c.17.1.36.15.54.15.37,0,.73-.19.93-.53,3.22-5.52,14.31-9.38,24.34-6.27.57.17,1.17-.14,1.34-.71.18-.57-.14-1.17-.71-1.34-11.29-3.49-23.19,1.01-26.83,7.24-.29.5-.12,1.16.39,1.46Z" style="fill: #d7dde8; stroke: #d7dde8; stroke-miterlimit: 10; stroke-width: 2px;"/>
        <path d="m246.59,223.17c.17.1.36.15.54.15.37,0,.73-.19.93-.53,3.17-5.44,8.28-7.19,21.01-7.19,1.88,0,3.76.47,6.36,1.12,1.65.41,3.52.88,5.85,1.34.58.11,1.15-.26,1.26-.84.11-.58-.26-1.15-.84-1.26-2.27-.45-4.12-.91-5.75-1.32-2.64-.66-4.73-1.18-6.88-1.18-13.49,0-19.26,2.08-22.86,8.25-.3.5-.13,1.16.38,1.46Z" style="fill: #d7dde8; stroke: #d7dde8; stroke-miterlimit: 10; stroke-width: 2px;"/>
        <path d="m246.59,233.3c.17.1.36.15.54.15.37,0,.73-.19.93-.53,2.07-3.55,4.87-5.39,9.66-6.35.58-.12.96-.68.84-1.26s-.68-.96-1.27-.84c-5.38,1.09-8.7,3.29-11.08,7.38-.3.49-.13,1.15.38,1.45Z" style="fill: #d7dde8; stroke: #d7dde8; stroke-miterlimit: 10; stroke-width: 2px;"/>
        <path d="m311.98,278.42c-.71.02-1.1.02-2.72-.02-.58-.04-1.09.45-1.1,1.04-.02.59.45,1.09,1.04,1.1.95.03,1.49.04,1.92.04.33,0,.59,0,.91-.01.49-.01,1.12-.02,2.42-.02.59,0,1.07-.48,1.07-1.07s-.48-1.07-1.07-1.07c-1.32-.02-1.97,0-2.47,0Z" style="fill: #d7dde8; stroke: #d7dde8; stroke-miterlimit: 10; stroke-width: 2px;"/>
        <path d="m317.62,197.22c-1.48.07-3.07.05-4.61.04-1.18,0-2.31-.03-3.32,0-.59.02-1.06.51-1.04,1.1.02.58.49,1.04,1.07,1.04h.03c.99-.03,2.09,0,3.24,0,.7,0,1.4.02,2.1.02.89,0,1.78,0,2.64-.06.59-.03,1.05-.53,1.02-1.12-.04-.59-.55-1.06-1.13-1.02Z" style="fill: #d7dde8; stroke: #d7dde8; stroke-miterlimit: 10; stroke-width: 2px;"/>
        <path d="m275.06,165.46c-1.73-.5-3.23-.92-5.25-1.07-.61-.05-1.11.4-1.15.99-.04.59.4,1.1.99,1.15,1.81.13,3.14.51,4.82,1,4.36,1.24,10.94,3.13,33.27,3.13.59,0,1.07-.48,1.07-1.07s-.48-1.07-1.07-1.07c-22.03,0-28.43-1.84-32.68-3.06Z" style="fill: #d7dde8; stroke: #d7dde8; stroke-miterlimit: 10; stroke-width: 2px;"/>
        <path d="m313.16,168.36c-.59.02-1.06.52-1.03,1.11.02.58.5,1.03,1.07,1.03h.04c1.44-.05,2.93-.12,4.49-.19.59-.03,1.05-.53,1.02-1.12s-.5-1.06-1.12-1.02c-1.55.07-3.04.13-4.47.19Z" style="fill: #d7dde8; stroke: #d7dde8; stroke-miterlimit: 10; stroke-width: 2px;"/>
        <path d="m304.75,197.67c-15.56,0-22.39-1.32-26.6-2.47-.57-.16-1.16.18-1.32.75s.18,1.16.75,1.32c4.34,1.18,11.35,2.54,27.16,2.54.59,0,1.08-.48,1.08-1.07.01-.59-.47-1.07-1.07-1.07Z" style="fill: #d7dde8; stroke: #d7dde8; stroke-miterlimit: 10; stroke-width: 2px;"/>
        <path d="m317.62,158.08c-2.75.13-5.42.23-7.93.3-.59,0-1.06.51-1.04,1.1.02.58.49,1.05,1.07,1.05h.03c2.53-.06,5.22-.17,7.98-.3.59-.03,1.05-.53,1.02-1.12-.04-.6-.55-1.06-1.13-1.03Z" style="fill: #d7dde8; stroke: #d7dde8; stroke-miterlimit: 10; stroke-width: 2px;"/>
        <path d="m302.98,180.29c4.45,0,9.36-.13,14.74-.39.59-.03,1.05-.53,1.02-1.12s-.54-1.06-1.12-1.02c-15.19.74-26.47.44-34.5-.93-.58-.1-1.14.29-1.24.88-.1.58.29,1.14.88,1.24,5.31.89,11.99,1.34,20.22,1.34Z" style="fill: #d7dde8; stroke: #d7dde8; stroke-miterlimit: 10; stroke-width: 2px;"/>
        <path d="m305.27,210l2.49-.05c3.1-.05,7.33-.13,9.96-.25.59-.03,1.05-.53,1.02-1.12s-.54-1.06-1.12-1.02c-2.59.13-6.81.2-9.89.25l-2.5.05c-.59,0-1.06.5-1.05,1.1.01.59.49,1.05,1.07,1.05.01-.01.02-.01.02-.01Z" style="fill: #d7dde8; stroke: #d7dde8; stroke-miterlimit: 10; stroke-width: 2px;"/>
        <path d="m262.53,267.13c.59,0,1.07-.48,1.07-1.07s-.48-1.07-1.07-1.07c-7.25,0-12.48,0-16.33,6.59-.3.51-.12,1.17.39,1.47.17.1.36.15.54.15.37,0,.73-.19.93-.53,3.09-5.31,6.88-5.54,14.47-5.54Z" style="fill: #d7dde8; stroke: #d7dde8; stroke-miterlimit: 10; stroke-width: 2px;"/>
        <path d="m247.76,283.41c.37,0,.73-.19.93-.53,2.26-3.87,7.7-5.28,12.05-5.32.59,0,1.07-.49,1.06-1.08,0-.59-.48-1.05-1.08-1.07-4.94.04-11.18,1.74-13.89,6.38-.3.51-.13,1.17.39,1.47.18.1.36.15.54.15Z" style="fill: #d7dde8; stroke: #d7dde8; stroke-miterlimit: 10; stroke-width: 2px;"/>
        <path d="m248.06,154.03c2.85-4.89,7.3-6.75,17-7.12.59-.02,1.05-.52,1.03-1.11s-.52-1.06-1.11-1.03c-10.43.4-15.52,2.61-18.77,8.18-.3.51-.12,1.17.39,1.47.17.1.36.15.54.15.36-.01.72-.2.92-.54Z" style="fill: #d7dde8; stroke: #d7dde8; stroke-miterlimit: 10; stroke-width: 2px;"/>
        <path d="m246.59,163.56c.17.1.36.15.54.15.37,0,.73-.19.93-.53,3.17-5.44,8.28-7.19,21.01-7.19,1.76,0,3.14.45,5.05,1.08.58.19,1.2.4,1.9.61.57.17,1.17-.15,1.34-.71.17-.57-.15-1.17-.71-1.34-.68-.21-1.29-.41-1.86-.6-2.02-.66-3.61-1.19-5.72-1.19-13.49,0-19.26,2.08-22.86,8.25-.3.51-.13,1.17.38,1.47Z" style="fill: #d7dde8; stroke: #d7dde8; stroke-miterlimit: 10; stroke-width: 2px;"/>
        <path d="m346.35,260c.73-.22,1.45-.42,2.14-.61v-14.33c-.64-.22-1.39-.37-2.14-.55v15.49Z" style="fill: #d7dde8; stroke: #d7dde8; stroke-miterlimit: 10; stroke-width: 2px;"/>
        <path d="m341.88,243.7c-.33-.13-.52-.27-.81-.4v.89s-.02,0-.02,0v17.33c.71-.22,1.45-.41,2.15-.63v-11.64s.02-.01.02-.02v-5.31c-.49-.05-.81-.19-1.34-.23Z" style="fill: #d7dde8; stroke: #d7dde8; stroke-miterlimit: 10; stroke-width: 2px;"/>
        <path d="m336.34,237.67v25.08c.73-.16,1.43-.29,2.15-.48v-20.66c-.09-.09-.24-.18-.33-.28-.36-1.5-.7-2.74-1.82-3.66Z" style="fill: #d7dde8; stroke: #d7dde8; stroke-miterlimit: 10; stroke-width: 2px;"/>
        <path d="m291.91,237.35c-.58-.06-1.12.37-1.18.96-.06.59.37,1.12.96,1.18,1.93.2,2.88.35,3.57.45,1.65.25,1.78.27,8.94.27.59,0,1.07-.48,1.07-1.07s-.48-1.07-1.07-1.07c-7,0-7.12-.02-8.62-.25-.71-.11-1.69-.26-3.67-.47Z" style="fill: #d7dde8; stroke: #d7dde8; stroke-miterlimit: 10; stroke-width: 2px;"/>
        <path d="m317.85,320.3c-1.04-.22-2.09-.66-3.16-1.22-19.83-.67-29.87-2.43-37.19-3.73-.56-.1-1.03-.16-1.57-.25-.01.24-.11.37-.11.62,0,.58.31,1.07.47,1.61.29.05.54.08.84.14,7.66,1.36,18.16,3.23,39.66,3.84.55.05,1.02-.44,1.06-1.01Z" style="fill: #d7dde8; stroke: #d7dde8; stroke-miterlimit: 10; stroke-width: 2px;"/>
        <path d="m333.2,319.71c-.48,0-.99.01-1.49.02.18.33.33.73.74.73s.57-.4.75-.75Z" style="fill: #d7dde8; stroke: #d7dde8; stroke-miterlimit: 10; stroke-width: 2px;"/>
        <path d="m292.88,259c-.6-.05-1.11.38-1.17.97-.06.59.38,1.11.97,1.17l2.33.23c4.68.46,7.02.7,16.1.7.59,0,1.07-.48,1.07-1.07s-.48-1.07-1.07-1.07c-8.97,0-11.28-.23-15.88-.69l-2.35-.24Z" style="fill: #d7dde8; stroke: #d7dde8; stroke-miterlimit: 10; stroke-width: 2px;"/>
        <path d="m306.9,229.78c.88,0,2.05,0,3.76,0,.59,0,1.07-.48,1.07-1.07s-.48-1.07-1.07-1.07c-1.71,0-2.88,0-3.76,0-2.5,0-2.6,0-6.08-.14-.59-.02-1.09.43-1.12,1.03-.03.59.43,1.09,1.03,1.12,2.79.12,3.47.15,4.87.15.36,0,.78-.02,1.3-.02Z" style="fill: #d7dde8; stroke: #d7dde8; stroke-miterlimit: 10; stroke-width: 2px;"/>
        <path d="m312.05,317.53c-1.14-.74-2.31-1.53-3.51-2.32-13.25-.76-21.67-2.81-28.78-4.57-.78-.19-1.5-.32-2.26-.51-.39.57-.74,1.17-1.02,1.97.93.22,1.81.38,2.77.62,7.83,1.95,17.22,4.24,32.8,4.81Z" style="fill: #d7dde8; stroke: #d7dde8; stroke-miterlimit: 10; stroke-width: 2px;"/>
        <path d="m309.94,271.5h.72c.59,0,1.07-.48,1.07-1.07s-.48-1.07-1.07-1.07h-.72q-6.39,0-9.92-.37l-2.31-.24c-.58-.07-1.12.37-1.17.96-.06.59.37,1.12.96,1.17l2.3.24c3.3.35,3.62.38,8.47.38h1.67Z" style="fill: #d7dde8; stroke: #d7dde8; stroke-miterlimit: 10; stroke-width: 2px;"/>
        <path d="m267,182.85c-4.72,0-6.18.15-7.43.78-.53.27-.75.91-.48,1.44.26.53.91.74,1.44.48.77-.38,1.89-.55,6.48-.55,1.53,0,3.28.47,5.49,1.06,2.77.74,6.22,1.67,10.8,2.08h.1c.55,0,1.02-.42,1.07-.98.05-.59-.38-1.11-.97-1.17-4.4-.4-7.75-1.3-10.44-2.02-2.38-.62-4.25-1.12-6.06-1.12Z" style="fill: #d7dde8; stroke: #d7dde8; stroke-miterlimit: 10; stroke-width: 2px;"/>
        <path d="m333.52,290.12v-10.18c-.77-.01-1.44-.05-2.15-.08v10.69c.73-.14,1.46-.27,2.15-.43Z" style="fill: #d7dde8; stroke: #d7dde8; stroke-miterlimit: 10; stroke-width: 2px;"/>
        <path d="m245.67,323.07c-.26.53-.05,1.17.48,1.44.15.08.32.11.48.11.39,0,.77-.22.96-.59,1.04-2.08,3.71-5.04,7.83-6.78-.14-.71-.19-1.52-.26-2.32-6.34,2.38-9.12,7.41-9.49,8.14Z" style="fill: #d7dde8; stroke: #d7dde8; stroke-miterlimit: 10; stroke-width: 2px;"/>
        <path d="m317.62,187.09c-9.94.48-19.64.29-29.66-.59-.6-.05-1.11.39-1.16.97-.05.59.38,1.11.97,1.16,6.52.57,12.9.86,19.3.86,3.54,0,7.08-.09,10.65-.26.59-.03,1.05-.53,1.02-1.12-.03-.59-.54-1.05-1.12-1.02Z" style="fill: #d7dde8; stroke: #d7dde8; stroke-miterlimit: 10; stroke-width: 2px;"/>
        <path d="m267.99,204.39c0,.59.48,1.07,1.07,1.07,1.91,0,3.98.57,6.62,1.29,5.11,1.4,12.12,3.33,24.61,3.33.59,0,1.07-.48,1.07-1.07s-.48-1.07-1.07-1.07c-12.2,0-19.04-1.88-24.04-3.25-2.79-.77-4.99-1.37-7.18-1.37-.6,0-1.08.47-1.08,1.07Z" style="fill: #d7dde8; stroke: #d7dde8; stroke-miterlimit: 10; stroke-width: 2px;"/>
        <path d="m306.14,220.11c3.62,0,7.47-.09,11.58-.28.59-.03,1.05-.53,1.02-1.12s-.54-1.03-1.12-1.02c-11.56.52-21.06.31-29.04-.66-.59-.07-1.12.35-1.2.94-.07.59.35,1.12.94,1.19,5.25.64,11.14.95,17.82.95Z" style="fill: #d7dde8; stroke: #d7dde8; stroke-miterlimit: 10; stroke-width: 2px;"/>
        <path d="m326.65,290.94c.76.04,1.45-.02,2.15-.07v-11.15c-.78-.07-1.45-.17-2.15-.27v11.49Z" style="fill: #d7dde8; stroke: #d7dde8; stroke-miterlimit: 10; stroke-width: 2px;"/>
        <path d="m343.2,330.38v-10.42c-.72-.03-1.4-.04-2.15-.07v9.42c-25-.04-42.26-1.32-54.68-2.47,1.21.79,2.38,1.62,3.55,2.48,12.33,1.07,29.01,2.14,52.21,2.14.59,0,1.07-.48,1.07-1.08Z" style="fill: #d7dde8; stroke: #d7dde8; stroke-miterlimit: 10; stroke-width: 2px;"/>
        <path d="m164.65,188.84c1.86.04,5.44.07,7.53.08h.69c.59,0,1.07-.47,1.08-1.06,0-.59-.47-1.08-1.07-1.08h-.68c-2.09-.02-5.65-.04-7.5-.08-.59-.03-1.08.46-1.1,1.05s.45,1.08,1.05,1.09Z" style="fill: #d7dde8; stroke: #d7dde8; stroke-miterlimit: 10; stroke-width: 2px;"/>
        <path d="m175.65,148.93l-1.37-.06c-.5-.02-1.09-.1-1.72-.18-.92-.11-1.97-.24-2.97-.24-3.65,0-5.5,1.84-5.5,5.47v9.55c-.06,7.25,4.41,7.37,8,7.47.57,0,1.13.03,1.69.07l.78.06c.95.08,1.93.16,2.91.16,1.64,0,6.65,0,6.65-6.01v-9.44c0-6.5-3.01-6.62-8.47-6.85Zm6.33,16.28c0,2.81-1.22,3.86-4.5,3.86-.89,0-1.83-.08-2.74-.15l-.8-.06c-.59-.04-1.19-.06-1.79-.08-3.58-.1-5.95-.16-5.91-5.31v-9.56c0-2.77,1.28-3.32,3.35-3.32.87,0,1.8.12,2.7.23.67.08,1.3.16,1.89.19l1.37.06c5.44.23,6.42.27,6.42,4.7v9.44h.01Z" style="fill: #d7dde8; stroke: #d7dde8; stroke-miterlimit: 10; stroke-width: 2px;"/>
        <path d="m164.66,179.7c2.49.03,4.9.04,7.23.04,1.45,0,2.86,0,4.22-.02.59,0,1.07-.49,1.06-1.08,0-.59-.49-1.06-1.08-1.06h0c-3.55.03-7.38.02-11.41-.03-.57.03-1.08.47-1.09,1.06.01.59.49,1.08,1.08,1.09Z" style="fill: #d7dde8; stroke: #d7dde8; stroke-miterlimit: 10; stroke-width: 2px;"/>
        <path d="m164.66,198.97l12.42.14h0c.59,0,1.07-.47,1.07-1.06,0-.59-.47-1.08-1.06-1.09l-12.42-.14h0c-.59,0-1.07.47-1.07,1.06,0,.6.47,1.08,1.06,1.09Z" style="fill: #d7dde8; stroke: #d7dde8; stroke-miterlimit: 10; stroke-width: 2px;"/>
        <path d="m164.66,219.64c1.41,0,2.8.02,4.16.02,8.6,0,16.24-.21,22.75-.62.59-.04,1.04-.55,1-1.14s-.55-1.04-1.14-1c-7.49.47-16.49.67-26.76.6h0c-.59,0-1.07.48-1.07,1.07s.48,1.06,1.07,1.07Z" style="fill: #d7dde8; stroke: #d7dde8; stroke-miterlimit: 10; stroke-width: 2px;"/>
        <path d="m164.64,209.5c3.63.1,7.12.15,10.43.15,1.55,0,3.06,0,4.52-.03.59,0,1.06-.5,1.06-1.09,0-.59-.47-1.08-1.09-1.06-4.57.07-9.57.03-14.86-.11-.61-.03-1.08.45-1.1,1.04-.02.59.45,1.09,1.04,1.1Z" style="fill: #d7dde8; stroke: #d7dde8; stroke-miterlimit: 10; stroke-width: 2px;"/>
        <path d="m190.41,149.49c-.72,0-1.44,0-2.14,0-.59,0-1.07.48-1.07,1.07s.48,1.07,1.07,1.07c.7,0,1.41,0,2.13,0,.76,0,1.52,0,2.28,0,4.35,0,8.71-.14,12.53-1.23.57-.16.9-.76.74-1.33s-.76-.9-1.33-.74c-4.19,1.21-9.29,1.18-14.21,1.15Z" style="fill: #d7dde8; stroke: #d7dde8; stroke-miterlimit: 10; stroke-width: 2px;"/>
        <path d="m189.01,170.56c7.69,0,14.16-1.1,18.94-2.05.58-.12.96-.68.84-1.26-.11-.58-.68-.96-1.26-.84-4.68.93-11.02,2.01-18.52,2.01-.59,0-1.08.48-1.08,1.07,0,.59.49,1.07,1.08,1.07Z" style="fill: #d7dde8; stroke: #d7dde8; stroke-miterlimit: 10; stroke-width: 2px;"/>
        <path d="m197.11,159.97c.59-.07,1.01-.6.94-1.19-.07-.59-.61-1.01-1.19-.94-2.29.27-5.22.44-7.84.44-.59,0-1.08.48-1.08,1.07s.48,1.07,1.08,1.07c2.69,0,5.72-.16,8.09-.45Z" style="fill: #d7dde8; stroke: #d7dde8; stroke-miterlimit: 10; stroke-width: 2px;"/>
        <path d="m216.33,147.91c8.88,0,14.97,1.02,17.95,6.12.2.34.56.53.93.53.19,0,.37-.05.54-.15.51-.3.69-.96.39-1.47-3.87-6.63-12.25-7.19-19.81-7.19-1.8,0-3.86.21-6.69.68-.58.1-.98.65-.88,1.23.1.59.65.98,1.23.88,2.71-.43,4.66-.63,6.34-.63Z" style="fill: #d7dde8; stroke: #d7dde8; stroke-miterlimit: 10; stroke-width: 2px;"/>
        <path d="m180.5,178.59c0,.59.49,1.05,1.07,1.05h.02c17.44-.37,24.23-1.71,28.73-2.6,2.12-.42,3.66-.72,5.51-.72,3.62,0,6.19.14,8.35.45.59.09,1.13-.32,1.21-.91.09-.59-.32-1.13-.91-1.21-2.26-.33-4.93-.47-8.66-.47-2.07,0-3.69.32-5.93.76-4.42.87-11.11,2.19-28.36,2.56-.57.01-1.04.5-1.03,1.09Z" style="fill: #d7dde8; stroke: #d7dde8; stroke-miterlimit: 10; stroke-width: 2px;"/>
        <path d="m164.67,229.77c3.29,0,6.46-.02,9.45-.07.59,0,1.07-.5,1.06-1.09,0-.59-.48-1.02-1.09-1.06-2.97.05-6.14.07-9.42.07-.59,0-1.07.48-1.07,1.07,0,.6.48,1.08,1.07,1.08Z" style="fill: #d7dde8; stroke: #d7dde8; stroke-miterlimit: 10; stroke-width: 2px;"/>
        <path d="m172.68,153.41c-1.54,4.45-2.19,7.87-3.54,12.73.75.25,1.86.06,2.61.25.37-2.05.64-2.36,1.02-4.29,0,0,1.65.25,2.89.25l.93,4.29c1.11.22,1.3.07,2.41,0,0-.91-2.29-8.48-2.87-12.97-1.52-.07-1.84-.13-3.45-.26Zm.59,6.65s.47-2.42,1.03-4.22c.62,1.99.96,4.44.96,4.44-1.39-.06-1.99-.22-1.99-.22Z" style="fill: #d7dde8; stroke: #d7dde8; stroke-miterlimit: 10; stroke-width: 2px;"/>
        <path d="m203.08,302.2c3.1-.69,5.77-1.4,8.13-2.04,3.62-.97,6.48-1.74,8.61-1.74.75,0,1.47-.05,2.15-.1,1.34-.1,2.51-.18,3.47.16.56.2,1.17-.09,1.37-.65s-.09-1.17-.65-1.37c-1.39-.49-2.83-.39-4.35-.28-.65.05-1.32.1-2,.1-2.41,0-5.39.8-9.16,1.82-2.33.63-4.98,1.34-8.03,2.01-.58.13-.95.7-.82,1.28.11.5.56.84,1.05.84.07-.01.15-.01.23-.03Z" style="fill: #d7dde8; stroke: #d7dde8; stroke-miterlimit: 10; stroke-width: 2px;"/>
        <path d="m240.28,323.05c.16.43.57.7,1.01.7h.11c.43,0,.85-.27,1.01-.7,1.84-5,6.99-10.17,13.13-12.21.52-1.07,1.37-1.96,2.48-2.71-6.55,1.04-12.39,5.5-15.64,10.59v-161.57s.05-.03.05-.06c.11-1.55.81-4.53,1.12-5.24,3.42-7.88,15.01-10.68,24.71-10.68,2.72,0,7.02.82,12.01,1.77,7.46,1.42,16.75,3.19,25.69,3.19,7.53,0,13.55-1.44,19.11-4.65.69-.61,1.15-1.11,1.58-1.6v80.9c.54.19,1.18.38,2.15.54v-82.98c.89,1.01,1.74,1.88,2.59,2.72v80.52c.63.04,1.32.07,2.13.08v-78.59c.95.82,1.88,1.6,2.83,2.26,0,0-.01,0-.01,0v76.28c.46,0,.82,0,1.32-.03.29,0,.55-.08.82-.12v-74.87c.84.48,1.67,1,2.57,1.4v73.01c.68-.08,1.13.02,1.13.8-.35,5.44.49,8.19,1.03,9.39v-82.42c1.02.37,1.99.78,3.14,1.1v83.21c1.12.89,1.15,2,2.14,2.76v-86.8c0-.49-.33-.92-.79-1.04-7.92-2.09-12.33-5.1-18.89-12.91-.23-.27-.54-.42-.95-.37-.06,0-.08.08-.14.09,0,0,0,0-.01,0-.02,0-.01.03-.03.03-.26.09-.53.21-.66.46-.09.19-.17.28-.25.45-.01.07-.12.06-.12.12v.1c-.72,1.41-1.29,2.36-2.82,3.75-5.05,2.89-10.73,4.24-17.86,4.24-8.75,0-17.93-1.75-25.29-3.15-5.1-.97-9.49-1.81-12.41-1.81-13.47,0-23.44,4.47-26.67,11.97-.07.14-.13.32-.19.53-.04,0-.04-.08-.09-.08-.05-.14-.1-.28-.17-.42-3.22-7.51-13.2-12-26.69-12-2.92,0-7.32.84-12.41,1.81-7.36,1.41-16.54,3.15-25.29,3.15-5.17,0-11.53-2.21-15.95-4.06-2.83-1.18-4.6-4.94-4.61-4.98-.16-.33-.47-.56-.82-.61-.36-.1-.71.07-.95.33-.05.05-4.92,5.4-8.57,8.06-3.53,2.59-9.93,5.57-9.99,5.6-.37.17-.62.55-.62.97v134.3c.72-.26,1.44-.5,2.14-.72v-132.86c.47-.22,1.17-.57,2-.99v133.34c.77-.2,1.49-.38,2.15-.51v-133.95c.92-.5,1.88-1.03,2.82-1.6v135.18c.18,0,.47-.04.57-.01.5.12,1.05,0,1.57.03v-136.6c.2-.14.44-.28.63-.41.63-.46,1.29-1.11,1.95-1.67v138.73c.7-.09,1.43-.24,2.15-.37v-140.19c1.03-.97,1.8-1.74,2.59-2.55v142.33c.72-.12,1.42-.12,2.14-.17v-142.12c.98,1.3,2.25,2.71,4.03,3.45,4.61,1.93,11.26,4.23,16.79,4.23,8.95,0,18.24-1.77,25.69-3.19,4.99-.95,9.29-1.77,12.01-1.77,9.72,0,21.33,2.81,24.71,10.7.61,1.4.89,3.3,1.05,4.79v161.95c-3.71-5.74-10.68-10.92-18.31-10.92-7.19,0-12.82,1.31-19.17,2.84.35.64.71,1.27.97,1.98,6.22-1.49,11.43-2.68,18.19-2.68,8.08.01,16.02,6.84,18.36,13.21Z" style="fill: #d7dde8; stroke: #d7dde8; stroke-miterlimit: 10; stroke-width: 2px;"/>
        <path d="m193.98,291.41l-.63.06c-.59.06-1.02.58-.96,1.17.05.55.52.97,1.07.97h.11l.62-.06c1.57-.15,3.2-.3,4.89-1.02.55-.23.8-.87.56-1.41s-.86-.8-1.41-.56c-1.39.58-2.78.71-4.25.85Z" style="fill: #d7dde8; stroke: #d7dde8; stroke-miterlimit: 10; stroke-width: 2px;"/>
        <path d="m200.84,158.24c.06.59.59,1.02,1.17.96,3.06-.31,5.46-.87,7.59-1.37,2.23-.53,4.16-.98,6.24-.98,9.35,0,15.36,1.03,18.45,6.32.2.34.56.53.93.53.19,0,.37-.05.54-.15.51-.3.69-.96.39-1.47-3.98-6.82-12.21-7.39-20.3-7.39-2.33,0-4.36.48-6.73,1.04-2.06.49-4.39,1.04-7.31,1.33-.6.07-1.03.59-.97,1.18Z" style="fill: #d7dde8; stroke: #d7dde8; stroke-miterlimit: 10; stroke-width: 2px;"/>
        <path d="m256.63,333.04c-.16-.16-.4-.44-.65-.91-.07-.15-.26-.15-.39-.24-.13-.29-.24-.68-.35-1.12-.02-.09-.04-.18-.07-.27,2.16-1.84,4.74-2.63,7.88-2.95-.95-.48-1.8-1.09-2.62-1.73-2.72.62-5.14,1.62-7.2,3.53-.3.28-.42.7-.3,1.1.09.29.16.57.23.84.02.09.06.17.09.26h-23.2c.12-.39.26-.67.38-1.18.08-.37-.04-.77-.33-1.02-2.8-2.55-7.74-4.13-12.89-4.13-1.04,0-2.74.21-5.56.56-.98.12-2.17.27-3.45.42.38.7.89,1.34,1.39,1.99.79-.1,1.67-.2,2.33-.28,2.64-.33,4.39-.54,5.3-.54,4.35,0,8.48,1.2,10.98,3.17-.16.63-.32,1.09-.52,1.5-.07.14.14.23.13.38-.34.5-.68.99-.87,1.25h-10.99c.98.75,1.83,1.46,2.51,2.14h9.03c.34,0,.65-.16.85-.43,0,0,.45-.59,1.2-1.69h24.9c.61.91,1.21,1.28,1.34,1.36.17.09.34.13.53.13h20.24c-.02-.85-.04-1.59-.07-2.14h-19.85Z" style="fill: #d7dde8; stroke: #d7dde8; stroke-miterlimit: 10; stroke-width: 2px;"/>
        <path d="m286.05,333.04h-.32c1.72.58,3.41,1.32,5.01,2.14h.3c-1.48-.81-3.11-1.53-4.99-2.14Z" style="fill: #d7dde8; stroke: #d7dde8; stroke-miterlimit: 10; stroke-width: 2px;"/>
        <path d="m164.61,240.26c7.65,0,14.52-.17,20.4-.5.59-.03,1.04-.54,1.01-1.13-.03-.59-.54-1.05-1.13-1.01-5.84.33-12.67.5-20.28.5-.59,0-1.07.48-1.07,1.07s.48,1.07,1.07,1.07Z" style="fill: #d7dde8; stroke: #d7dde8; stroke-miterlimit: 10; stroke-width: 2px;"/>
        <path d="m346.35,320.06v12.98h-52.18c.59.66.99,1.42,1.46,2.14h51.79c.59,0,1.07-.48,1.07-1.07v-14.07c-.71,0-1.4.03-2.14.02Z" style="fill: #d7dde8; stroke: #d7dde8; stroke-miterlimit: 10; stroke-width: 2px;"/>
        <path d="m164.61,262.66c6.03,0,11.74-.17,16.96-.51.59-.04,1.04-.55,1-1.14-.04-.59-.53-1.02-1.14-1-5.18.33-10.84.5-16.82.5-.59,0-1.07.48-1.07,1.07,0,.59.48,1.08,1.07,1.08Z" style="fill: #d7dde8; stroke: #d7dde8; stroke-miterlimit: 10; stroke-width: 2px;"/>
        <path d="m164.67,270.94c-.59,0-1.07.48-1.07,1.07s.48,1.07,1.07,1.07c1.36,0,2.69-.01,3.98-.02.59-.01,1.07-.49,1.06-1.09,0-.59-.49-1.05-1.09-1.06-1.27.02-2.59.03-3.95.03Z" style="fill: #d7dde8; stroke: #d7dde8; stroke-miterlimit: 10; stroke-width: 2px;"/>
        <path d="m164.61,251.23c1.83,0,3.6-.02,5.29-.04.59-.01,1.06-.5,1.05-1.09s-.5-1.06-1.09-1.05c-1.68.03-3.43.04-5.25.04-.59,0-1.07.48-1.07,1.07,0,.59.48,1.07,1.07,1.07Z" style="fill: #d7dde8; stroke: #d7dde8; stroke-miterlimit: 10; stroke-width: 2px;"/>
        <path d="m194.59,271.42c.59-.07,1-.61.93-1.2-.08-.59-.61-1-1.2-.93-1.27.16-2.4.33-3.51.5-3.97.59-7.72,1.15-17.2,1.15-.59,0-1.07.48-1.07,1.07s.48,1.07,1.07,1.07c9.65,0,13.47-.57,17.52-1.18,1.09-.15,2.2-.32,3.46-.48Z" style="fill: #d7dde8; stroke: #d7dde8; stroke-miterlimit: 10; stroke-width: 2px;"/>
        <path d="m176.51,281.73c-.59.02-1.06.51-1.05,1.1.02.58.49,1.05,1.07,1.05h.03c2.97-.07,5.85-.2,8.56-.36.59-.04,1.04-.55,1.01-1.14-.04-.59-.55-1.03-1.14-1.01-2.68.17-5.53.29-8.48.36Z" style="fill: #d7dde8; stroke: #d7dde8; stroke-miterlimit: 10; stroke-width: 2px;"/>
        <path d="m217.34,278.55c.59,0,1.07-.48,1.07-1.07s-.48-1.07-1.07-1.07c-2.28,0-4.59.51-7.8,1.23-4.34.97-10.29,2.29-20.21,3.31-.59.06-1.02.59-.96,1.18.06.55.52.96,1.06.96.04,0,.07,0,.11-.01,10.04-1.03,16.06-2.37,20.46-3.35,3.08-.69,5.3-1.18,7.34-1.18Z" style="fill: #d7dde8; stroke: #d7dde8; stroke-miterlimit: 10; stroke-width: 2px;"/>
        <path d="m217.23,223.95c-.59.06-1.02.58-.97,1.17.06.59.58,1.03,1.17.97,9.21-.87,13.46.8,16.86,6.63.2.34.56.53.93.53.19,0,.37-.05.54-.15.51-.3.69-.96.39-1.47-3.83-6.54-8.96-8.63-18.92-7.68Z" style="fill: #d7dde8; stroke: #d7dde8; stroke-miterlimit: 10; stroke-width: 2px;"/>
        <path d="m208.77,184.16c-3.04.52-6.83,1.17-12.37,1.7-.59.06-1.02.58-.97,1.17s.59,1.03,1.17.97c5.62-.54,9.45-1.19,12.53-1.72,2.78-.47,4.78-.82,6.71-.82,9.57,0,15.35,1.01,18.45,6.32.2.34.56.53.93.53.19,0,.37-.05.54-.15.51-.3.69-.96.39-1.47-3.99-6.83-11.55-7.39-20.3-7.39-2.12.01-4.21.37-7.08.86Z" style="fill: #d7dde8; stroke: #d7dde8; stroke-miterlimit: 10; stroke-width: 2px;"/>
        <path d="m226.88,194.07c-.59-.07-1.13.33-1.21.92s.34,1.13.92,1.21c4.39.58,6.58,3.39,7.64,5.64.18.39.57.62.97.62.16,0,.31-.03.46-.1.54-.25.77-.89.51-1.43-1.28-2.74-3.94-6.15-9.29-6.86Z" style="fill: #d7dde8; stroke: #d7dde8; stroke-miterlimit: 10; stroke-width: 2px;"/>
        <path d="m235.21,173.84c.19,0,.37-.05.54-.15.51-.3.69-.96.39-1.47-.85-1.46-1.82-2.65-2.95-3.64-.44-.39-1.12-.34-1.51.11s-.34,1.12.1,1.51c.96.83,1.77,1.84,2.51,3.1.19.35.55.54.92.54Z" style="fill: #d7dde8; stroke: #d7dde8; stroke-miterlimit: 10; stroke-width: 2px;"/>
        <path d="m234.22,264.11c.2.34.56.53.93.53.18,0,.37-.05.54-.15.51-.3.69-.96.39-1.47-3.71-6.36-10.41-9.14-19.9-8.25-.59.06-1.03.58-.97,1.17.06.59.58,1.02,1.17.97,8.59-.79,14.59,1.62,17.84,7.2Z" style="fill: #d7dde8; stroke: #d7dde8; stroke-miterlimit: 10; stroke-width: 2px;"/>
        <path d="m217.7,245.79c3.62,0,6.74-.02,9.49,1.46.52.28,1.17.08,1.45-.44.28-.52.09-1.17-.44-1.45-3.23-1.74-6.6-1.73-10.51-1.72h-.93c-2.27,0-4.76.53-8.21,1.27-1.58.34-3.37.72-5.42,1.12-.58.11-.97.67-.85,1.26.1.51.55.87,1.05.87.07,0,.13-.01.2-.02,2.07-.4,3.88-.78,5.47-1.13,3.32-.71,5.71-1.23,7.76-1.23h.94Z" style="fill: #d7dde8; stroke: #d7dde8; stroke-miterlimit: 10; stroke-width: 2px;"/>
        <path d="m228.06,175.87c-.29.52-.1,1.17.42,1.46,1.81,1.01,4.8,3.6,5.8,5.32.2.34.56.53.93.53.19,0,.37-.05.54-.15.51-.3.69-.96.39-1.47-1.3-2.23-4.73-5.06-6.62-6.11-.52-.29-1.17-.1-1.46.42Z" style="fill: #d7dde8; stroke: #d7dde8; stroke-miterlimit: 10; stroke-width: 2px;"/>
        <path d="m219.81,286.34c-2.23,0-5.16.71-9.21,1.69-2.26.54-4.82,1.16-7.7,1.76-.58.12-.95.69-.83,1.27s.69.96,1.27.83c2.92-.6,5.49-1.23,7.77-1.77,3.76-.91,6.73-1.62,8.7-1.62,7.46,0,11.32.59,14.49,6.02.2.34.56.53.93.53.18,0,.37-.05.54-.15.51-.3.69-.96.39-1.47-3.86-6.59-8.98-7.09-16.35-7.09Z" style="fill: #d7dde8; stroke: #d7dde8; stroke-miterlimit: 10; stroke-width: 2px;"/>
        <path d="m192.55,187.26c-.04-.59-.53-1.03-1.14-1-4.34.29-9.17.47-14.33.52-.59,0-1.07.49-1.06,1.08,0,.59.49,1.06,1.07,1.06h0c5.21-.05,10.07-.23,14.45-.52.6-.04,1.04-.55,1-1.14Z" style="fill: #d7dde8; stroke: #d7dde8; stroke-miterlimit: 10; stroke-width: 2px;"/>
        <path d="m232.39,247.81l-.3-.24c-.46-.37-1.14-.29-1.51.18-.37.46-.29,1.14.17,1.51l.3.24c1.3,1.03,2.09,1.64,3.16,3.48.2.34.56.53.93.53.18,0,.37-.05.54-.15.51-.3.69-.95.39-1.47-1.27-2.18-2.33-3.02-3.68-4.08Z" style="fill: #d7dde8; stroke: #d7dde8; stroke-miterlimit: 10; stroke-width: 2px;"/>
        <path d="m341.06,278.06v11.23c.49.05.94.01,1.46.12.2.04.47.1.68.14v-12.63c-.68.45-1.43.76-2.14,1.14Z" style="fill: #d7dde8; stroke: #d7dde8; stroke-miterlimit: 10; stroke-width: 2px;"/>
        <path d="m348.49,272.84c-.71.59-1.44,1.18-2.14,1.74v15.61c.71.15,1.43.29,2.14.43v-17.78Z" style="fill: #d7dde8; stroke: #d7dde8; stroke-miterlimit: 10; stroke-width: 2px;"/>
        <path d="m182.09,199.07c10.93-.22,19.22-1.44,25.88-2.42,5.83-.85,10.04-1.47,13.18-.98.59.09,1.13-.31,1.23-.9.09-.59-.31-1.13-.9-1.23-3.46-.54-7.81.1-13.82.98-6.6.97-14.82,2.17-25.61,2.39-.59,0-1.06.5-1.05,1.09s.49,1.05,1.07,1.05c0,.02.02.02.02.02Z" style="fill: #d7dde8; stroke: #d7dde8; stroke-miterlimit: 10; stroke-width: 2px;"/>
        <path d="m230.11,297.08c-.56-.2-1.17.09-1.37.65s.09,1.17.65,1.37c2.87,1.03,3.85,2.72,4.7,4.21l.19.33c.2.34.56.53.93.53.19,0,.37-.05.54-.15.51-.3.69-.96.39-1.47l-.19-.32c-.94-1.62-2.23-3.85-5.84-5.15Z" style="fill: #d7dde8; stroke: #d7dde8; stroke-miterlimit: 10; stroke-width: 2px;"/>
        <path d="m218.32,164.84c-1.03,0-2.83.3-4.42.57-.56.1-1.07.18-1.45.24-.59.08-.99.63-.91,1.22.09.59.63.99,1.22.91.4-.06.92-.15,1.5-.24,1.36-.23,3.21-.54,4.06-.54,2.94,0,6.33.11,9.09.92.1.03.2.04.3.04.46,0,.89-.3,1.03-.77.17-.57-.16-1.17-.73-1.33-3.02-.91-6.59-1.02-9.69-1.02Z" style="fill: #d7dde8; stroke: #d7dde8; stroke-miterlimit: 10; stroke-width: 2px;"/>
        <path d="m217.77,233.04c-2.33,0-8.03,1.11-11.03,1.76-.58.13-.95.7-.82,1.28.13.58.7.94,1.28.82,2.72-.59,8.43-1.71,10.57-1.71,9.71,0,13.25,1.51,16.46,7.02.2.34.56.53.93.53.18,0,.37-.05.54-.15.51-.3.69-.96.39-1.47-3.63-6.19-7.9-8.08-18.32-8.08Z" style="fill: #d7dde8; stroke: #d7dde8; stroke-miterlimit: 10; stroke-width: 2px;"/>
        <path d="m189.79,239.41c.91-.08,1.81-.15,2.69-.21,3.41-.26,6.64-.5,9.78-1.31.57-.15.92-.73.77-1.31-.15-.57-.73-.92-1.3-.77-2.96.76-6.09,1-9.4,1.25-.89.07-1.8.13-2.72.21-.59.05-1.03.57-.98,1.16.05.56.52.98,1.07.98h.09Z" style="fill: #d7dde8; stroke: #d7dde8; stroke-miterlimit: 10; stroke-width: 2px;"/>
        <path d="m176.01,248.91c-.59.02-1.06.52-1.03,1.11.02.58.5,1.03,1.07,1.03h.36c9.63-.36,15.99-.59,22.75-2.14.58-.13.94-.71.81-1.29-.13-.58-.71-.94-1.29-.81-6.57,1.5-12.85,1.73-22.35,2.07l-.32.03Z" style="fill: #d7dde8; stroke: #d7dde8; stroke-miterlimit: 10; stroke-width: 2px;"/>
        <path d="m186.12,261.81c10.94-.95,17.69-2.49,22.61-3.62,1.39-.32,2.61-.6,3.72-.81.58-.11.96-.68.85-1.26-.11-.58-.67-.95-1.26-.85-1.13.22-2.38.5-3.79.83-4.86,1.11-11.52,2.63-22.31,3.57-.59.05-1.03.57-.97,1.16.05.56.52.98,1.07.98h.08Z" style="fill: #d7dde8; stroke: #d7dde8; stroke-miterlimit: 10; stroke-width: 2px;"/>
        <path d="m227.5,214.45c-.59-.09-1.13.31-1.23.89-.09.59.31,1.13.89,1.23,5.07.8,6.85,5.33,7.03,5.84.16.44.57.71,1.01.71.12,0,.24-.02.37-.06.56-.2.85-.82.64-1.37-1.03-2.88-3.93-6.5-8.71-7.24Z" style="fill: #d7dde8; stroke: #d7dde8; stroke-miterlimit: 10; stroke-width: 2px;"/>
        <path d="m222.78,276.52c-.59.01-1.06.51-1.04,1.1,0,.59.51,1.02,1.1,1.05,2.99-.08,8.45.57,11.45,5.71.2.34.56.53.93.53.19,0,.37-.05.54-.15.51-.3.69-.96.39-1.47-2.61-4.44-7.49-6.91-13.37-6.77Z" style="fill: #d7dde8; stroke: #d7dde8; stroke-miterlimit: 10; stroke-width: 2px;"/>
        <path d="m209.53,268.83c3.35-.7,5.77-1.21,7.8-1.21,10.28,0,13.92,1.42,16.96,6.62.2.34.56.53.93.53.19,0,.37-.05.54-.15.51-.3.69-.96.39-1.47-3.84-6.58-8.9-7.69-18.81-7.69-2.25,0-4.76.53-8.24,1.25-2.33.49-5.23,1.1-8.76,1.68-.58.1-.98.65-.88,1.23.1.59.65.98,1.23.88,3.56-.56,6.49-1.17,8.84-1.67Z" style="fill: #d7dde8; stroke: #d7dde8; stroke-miterlimit: 10; stroke-width: 2px;"/>
        <path d="m214.78,205.47c.1.58.65.98,1.23.89,9.16-1.51,14.97.43,18.27,6.09.2.34.56.53.93.53.19,0,.37-.05.54-.15.51-.3.69-.96.39-1.47-3.76-6.44-10.46-8.77-20.48-7.13-.58.11-.98.66-.88,1.24Z" style="fill: #d7dde8; stroke: #d7dde8; stroke-miterlimit: 10; stroke-width: 2px;"/>
        <path d="m177.51,228.54c0,.59.48,1.07,1.07,1.07,16.84,0,27.97-1.83,33.32-2.71l.13-.02c.58-.1.98-.65.88-1.23-.1-.59-.65-.98-1.23-.88l-.13.02c-5.3.87-16.31,2.69-32.98,2.69-.58-.02-1.06.46-1.06,1.06Z" style="fill: #d7dde8; stroke: #d7dde8; stroke-miterlimit: 10; stroke-width: 2px;"/>
        <path d="m251.22,327.23c.39,0,.77-.22.96-.59.64-1.29,2.77-2.98,5.15-4.13-.36-.57-.58-1.29-.87-1.95-2.78,1.32-5.29,3.3-6.2,5.12-.26.53-.05,1.17.48,1.44.16.08.32.11.48.11Z" style="fill: #d7dde8; stroke: #d7dde8; stroke-miterlimit: 10; stroke-width: 2px;"/>
        <path d="m184.08,209.51c8.59-.27,17.5-1.2,26.48-2.76.58-.1.97-.66.87-1.24s-.66-.97-1.24-.87c-8.88,1.54-17.69,2.46-26.18,2.73-.59.02-1.06.51-1.04,1.11.02.58.49,1.04,1.07,1.04.02,0,.03,0,.04,0Z" style="fill: #d7dde8; stroke: #d7dde8; stroke-miterlimit: 10; stroke-width: 2px;"/>
        <path d="m195.54,218.75c5.92-.48,9.77-1.08,13.16-1.6,4.3-.66,7.69-1.19,13.46-1.19.59,0,1.07-.48,1.07-1.07s-.48-1.07-1.07-1.07c-5.94,0-9.4.53-13.79,1.21-3.36.52-7.17,1.11-13.01,1.58-.59.05-1.03.57-.98,1.16.04.56.51.99,1.07.99.03,0,.06,0,.09,0Z" style="fill: #d7dde8; stroke: #d7dde8; stroke-miterlimit: 10; stroke-width: 2px;"/>
      </g>
      <path d="m334.07,281.04c-18.05,0-18.97-6.28-18.97-7.53,0-.97.73-1.9,1.65-3.08,1.8-2.32,4.05-5.22,1.97-8.93l-1.83-3.28,3.28,1.81c2.19,1.2,6.4,2.48,9.93,2.48,4.49,0,8.99-1.44,13.36-2.82,4.47-1.44,8.7-2.8,12.18-2.14,5.93,1.13,15.46,5.12,15.86,5.29l-.53,2.05c-10.05-.95-15.98,3.85-21.7,8.62-4.64,3.87-9.02,7.53-15.2,7.53Zm-12.52-18.05c.76,3.77-1.6,6.8-3.11,8.75-.48.62-1.15,1.48-1.2,1.78,0,1.85,3.51,5.37,16.82,5.37,5.41,0,9.3-3.26,13.81-7.04,4.68-3.9,9.85-8.23,17.52-9.1-3.2-1.18-7.21-2.54-10.17-3.1-2.81-.55-6.88.72-11.12,2.07-4.32,1.37-9.2,2.92-14.01,2.92-2.86,0-6.06-.73-8.54-1.65Z" style="fill: #d7dde8; stroke: #d7dde8; stroke-miterlimit: 10; stroke-width: 2px;"/>
    </g>
    <path d="m331.1,264.65c-9.49,0-15.58-4.6-18.41-7.36-3.42-3.36-5.53-7.43-5.53-10.61,0-5.63,2.86-8.28,5.16-10.41,1.83-1.69,3.28-3.03,3.28-5.48,0-7.22,5.27-11.82,8.03-11.82,1.15,0,1.85.27,2.58.55,1.35.52,3.42,1.31,11.28,1,.78-.03,1.52-.21,2.17-.37,1.09-.29,2.05-.5,2.83.1.43.34.65.87.65,1.55v.07c-.37,5.67.62,8.33,1.04,9.19,2.72.59,3.51,1.76,4.15,3.02.45.92.78,1.58,4.12,1.58,1.83,0,4.88-1.16,6.59-3.02.95-1.03,1.37-2.13,1.27-3.26-.05-.68-.25-.81-1.04-1.23-1.07-.57-2.7-1.42-3.39-4.61-.67-2.97-.17-4.31.59-6.35.19-.48.39-1.03.61-1.65.06-.2.19-.38.33-.58-2.08-.72-4.04-1.46-4.04-5.8,0-2.17.92-3.48,1.68-4.19.96-.89,2.27-1.38,3.67-1.38,2.66,0,5.48,1.86,5.48,5.32,0,2.2-.57,4.81-3,5.98.62.62,1.13,1.48,1.13,2.66,0,.88-.25,1.6-.45,2.18-.16.41-.28.78-.28,1.08.05-.05.33,0,.53.03,2.5.38,4.8,1.58,4.8,7.7,0,1.36.26,1.65.26,1.65,0-.04.62-.09,2.67-1.95,1.17-1.07,2.78-1.62,4.33-2.16,1.8-.61,3.5-1.2,4.04-2.42.14-.3.34-.9.45-1.37-1.63-.21-4.21-.97-4.21-6.18,0-3.35,2.56-4.93,4.94-4.99,2.5-.13,5.25,1.61,5.41,4.93.19,4.02-1.18,5.2-2.78,5.79,1.01.95,2.03,2.53,2.03,5.44,0,1.23-1.99,4.56-8.14,6.96-2.1.82-4.16,3.46-6.34,6.26-3.29,4.2-7.01,8.96-12.18,8.96-1.72,0-3.25-.75-5.02-1.61-2.44-1.2-5.5-2.7-10.72-3.11l-.33-.08c-2.02-.84-3.29-1.65-4.15-2.66l-.22-.44c-.7-2.9-1.04-4.35-8.17-4.52h-.08c-1.65,0-3.68,1.05-5.44,2.83-2.81,2.83-4.43,6.74-4.32,10.48.19,6.17,1.24,10.98,12.71,12.13l-.09,2.14c-.15.02-.31.03-.48.03Zm-7.47-43.54c-1.41,0-5.89,3.54-5.89,9.68,0,3.39-2.02,5.26-3.96,7.06-2.21,2.03-4.47,4.13-4.47,8.83,0,2.59,1.93,6.15,4.89,9.08,1.13,1.12,2.87,2.56,5.19,3.83-2.07-2.59-2.45-5.86-2.55-9.15-.12-4.31,1.72-8.82,4.94-12.05,2.19-2.21,4.72-3.46,6.96-3.46h.14c8.14.19,9.26,2.36,10.13,5.9.61.63,1.57,1.21,3.01,1.82,5.53.47,8.87,2.11,11.32,3.32,1.65.81,2.84,1.39,4.07,1.39,4.13,0,7.36-4.14,10.49-8.14,2.38-3.04,4.61-5.91,7.25-6.94,5.14-2,6.68-4.51,6.77-5.03,0-2.09-.67-3.17-1.32-3.79-.2.63-.42,1.1-.42,1.11-.9,2.06-3.14,2.83-5.3,3.56-1.35.47-2.75.95-3.6,1.72-2.02,1.85-3.6,2.93-5.03,2.29-1.32-.58-1.48-2.32-1.48-3.58,0-5.13-1.58-5.36-2.97-5.58-.82-.12-2.36-.36-2.36-2.13,0-.68.2-1.25.39-1.81.17-.5.34-.96.34-1.48,0-.66-.4-1.12-.9-1.49-.09.12-.19.22-.23.3-.17.54-.37,1.1-.57,1.61-.71,1.9-1.04,2.76-.51,5.13.48,2.21,1.37,2.67,2.3,3.16.87.45,2.03,1.07,2.19,2.95.14,1.73-.48,3.43-1.83,4.89-2.21,2.41-5.86,3.71-8.17,3.71-4.32,0-5.27-1.2-6.04-2.77-.43-.86-.78-1.55-3.09-1.96l-.4-.07-.26-.33c-.22-.29-2.1-2.96-1.66-10.62-.25.05-.56.12-.82.18-.71.18-1.6.39-2.58.43-8.4.35-10.62-.55-12.15-1.14-.67-.27-1.07-.43-1.82-.43Zm17.37.6h0Zm38.55-8.42h-.09c-1.3.03-2.84.8-2.84,2.84,0,3.83,1.34,3.96,2.76,4.1l.57.07c.26-.11.54-.2.84-.29,1.13-.33,2.03-.6,1.88-3.84-.09-1.99-1.66-2.88-3.12-2.88Zm-20.84-7.54c-.85,0-1.65.29-2.21.81-.67.61-.99,1.49-.99,2.62,0,2.88.68,3.11,2.7,3.81.3.1.61.21.92.33,1.06-.14,2.92-.58,2.92-4.38,0-2.11-1.68-3.19-3.34-3.19Z" style="fill: #d7dde8; stroke: #d7dde8; stroke-miterlimit: 10; stroke-width: 2px;"/>
    <path d="m337.78,241.54c-.59,0-1.07-.47-1.07-1.06-.03-2.34-1.15-3.42-2.69-4.91-1.3-1.27-2.92-2.83-4.07-5.51-.02,0-.02-.02-.03-.03-.56-.97-.59-2.11-.05-3.06.62-1.07,1.83-1.73,3.2-1.73,3.28,0,7.36-2.83,7.36-3.9,0-.59.48-1.07,1.07-1.07s1.07.48,1.07,1.07c0,2.86-5.67,6.04-9.51,6.04-.71,0-1.15.33-1.34.65-.09.16-.17.42-.05.73.05.07.11.16.14.25,0,.02.02.02.02.04.61.83,2.42,1.65,5.9,1.65.59,0,1.3-.02,1.9-.02,1.44,0,2.67.05,3.68.23.59.11.98.67.87,1.25-.11.58-.67.92-1.24.86-1.23-.22-2.98-.23-4.91-.19-1.57.03-2.97-.12-4.04-.37.5.57,1.01,1.06,1.51,1.55,1.69,1.64,3.31,3.19,3.34,6.42.02.6-.47,1.08-1.06,1.09h0v.02Z" style="fill: #d7dde8; stroke: #d7dde8; stroke-miterlimit: 10; stroke-width: 2px;"/>
    <path d="m263.99,355.27c1.17-.52,3.03-2.88,5.24-4.15,2.64-1.52,5.31-1.96,7.15.4,1.5,1.94,1.31,3.23.98,4.22.45-.03,2.43-.16,3.62,1.81,2.17,3.6,1.12,4.73-.44,6.43-2.11,2.3-5.28,2.61-7.34,4.92-1.27-2.87-2.33-5.35-3.58-7.23-1.98-2.96-4.16-5.79-5.63-6.4h0Zm4.57-.08c1.03,1.58.87,1.25,2.24,3.17,3.17-2.05,4.94-2.71,3.35-4.97-1.31-1.87-3.42-.07-5.59,1.8h0Zm3.79,5.52c1.24,2.17,1.69,3.34,2.24,4.16,2.61-1.49,6.06-3.01,3.97-5.65-1.87-2.36-4.1-.12-6.21,1.49h0Zm40.57-67.9s-1.33.05-3.03-1.65c-.18.78-2.98,14.78-5.46,16.27,2.48.4,1.99.78,3.67,1.56-.49-1,3.8-14.88,4.82-16.18h0Zm-15.47-6.39c-1.32-.29-2.27-.42-3.99-1.12.43.81-1.91,16.39-4.38,18.43,3.88,1.44,10.59.32,11.5,2.13.43-1.85,1.2-2.93,1.08-3.18-1.07.08-4.97-1.24-8.32-1.08.73-1.98,1.7-11.33,4.11-15.18h0Zm-65.6,77.24c.3-1.68.78-2.96,1.33-4.75,2.63.69,6.04.6,5.14,3.89-.99,3.6-4.44,1.53-6.47.86h0Zm9.2-.86c1.17-5.12-3.88-6.08-10.33-7.36.46.5.34,1.41.08,2.05-1.85,4.64-4.46,14.07-6.22,14.63,2.19,1.44,3.73,1.03,3.73,1.03-.07-1.45,1.21-4.63,2.49-6.87,1.66.66,2.77.88,3.84,1.16.39,2.67.55,2.91,1.3,5.58.17.61.18,1.74-.18,2.19,2.2.2,1.69.09,3.63.59-.86-2.17-1.33-3.86-2.03-8.1,2.44-.56,3.01-1.96,3.69-4.9h0Zm-85.38-77.37c-.81-.12-1.99-.06-3.42.37.22.62-3.6,15.24-3.85,15.9,4.91-.19,7,1.52,10.74,2.89.06-1.62.3-1.96.68-3.26-.57.35-5.28-2.48-7.82-2.42-.11-.57,2.67-11.25,3.67-13.48h0Zm6.02,20.24c3.13.81,7.33,3.48,9.81,5.65,0,0,1.12-1.92,1.49-3.35-2.3-.09-4.6-2.4-7.95-3.66.81-1.86,1.12-2.3,1.86-3.73,2.73.84,2.55.87,4.1,1.8.39-1.07.5-1.49,1.18-2.67-.87-.06-1.06-.25-4.1-1.68.5-1.12,1.3-2.3,1.8-3.85,2.18.4,5.43,2.14,6.58,3.23,0,0,.25-1.12.75-3.1-3.04-1.99-5.84-3.17-8.44-3.6.13.49-6.02,12.4-7.08,14.96h0Zm22.29-6.27c-1.2.72-1.24.62-2.98.87,1.66,1.5,2.05,1.8,3.35,3.41-2.08,2.2-9.38,9.13-10.68,9.31,2.13,1.66,1.92,1.49,2.98,2.73-.06-.93,6.15-6.96,9.62-10,1.45,1.81,2.24,1.89,3.66,3.91,0,0,.33-1.63.93-3.1-3.96-3.6-3.51-3.28-6.88-7.13h0Zm16.05,24.25c-1.46.06-2.24-.19-3.81-.15.84,2.11,1.61,3.07,2.6,5.09-4.76,1.96-12.61,5.53-13.68,5.27,1.17,1.6.73,2.96,2.13,3.98.65-1.89,9.85-5.16,12.98-6.46.66,1.35,2.79,3.84,2.79,4.41,1.2-.48,1.5-1.88,2.64-2.45-2.28-1.66-5.44-7.16-5.65-9.69h0Zm8.52,11.94c-.45,2.11-11.35,9.26-15.69,11.43,1.86.99,2.19,1.64,3.64,2.78,0-1.78,4.94-4.7,6.26-5.18,1.45,2.05,2.48,3.3,3.2,4.26-2.47,2.65-4.04,3.7-6.33,4.97,0,0,1.45,2.09,2.53,3.54,0-1.39,12.29-11.99,13.85-11.8-1.26-1.21-.71-2.1-1.92-3.91.03.42-3.76,4.32-5.96,5.4-1.57-1.57-1.94-2.88-3.02-3.97,1.93-1.93,4.11-3.52,7-4.66-1.26-1.26-2.54-1.11-3.56-2.86h0Zm10.05,12.37c.06.54-8.8,12.37-11.3,14.87,2.48,1.12,9.68,4.64,11.49,6.92,1.21-1.08,2.67-3.2,2.67-3.2-.51.15-7.11-3.01-9.15-4.82,1.2-1.69,1.66-2.15,3.23-3.84,1.81,1.45,3.14,1.36,4.22,3.29.24-.36,1.44-1.47,1.92-2.67-2.17-1.2-3.17-1.74-4.53-3.1.36-.84,1.39-2.35,2.5-3.31,3.31,2.2,4.58,2.51,6.75,4.99.6-1.44.37-1.49,1.24-3.42-4.1-1.74-4.85-2.3-9.04-5.71h0Zm25.46,11.3c1.43,2.7.86,4.95,1.12,8.2.11,1.41.15,8.07-.84,8.66,6.52,1.46,12.23-.28,12.23-.28l.56-3.97c-1.3,1.86-6.87,1.74-9.19,1.74l.06-5.09c2.51,0,3.97-.71,5.4-.31l-.37-2.92c-.81.28-3.09.75-5.09.5l-.19-3.97c3.6-.47,8.2-.71,9-.16l-.93-3.32-11.76.92h0Zm37.1-18.45c-.81,3.42-1.24,3.73-4.47,6.46,1.91-.13,8.07,6.95,10.8,10.93,2.36-1.61,5.15-3.1,6.21-6.58-.37-.43-1.83-2.86-1.83-2.86,0,0-1.09,4.19-3.69,5.37-1.02-1.06-1.18-1.12-2.3-2.61,1.43-1.24,1.8-1.86,2.36-3.85-.87-.19-1.33-.87-2.2-1.68-.25.87-.65,2.11-2.08,3.48-.62-.62-1.59-1.88-2.67-2.64,1.74-1.74,1.71-2.36,2.83-5.22-1-.05-1.59-.42-2.96-.8h0Zm42.05-44.98c-3.59-.74-8.81,1.48-9.65,8.02-.63,4.94,2.65,9.68,6.11,10.34,5.81,1.09,6.95-4.21,7.29-7.75.06-.61.7-.8.71-1.35-.67-.01-4.74-1.28-6.12-1.46-.13,1.19-.07,1.24-.66,2.59,1.78.14,2.36.44,3.32.95.02.51-.17,5.17-3.67,4.19-2.96-.84-4.45-2.89-4.02-7.39.36-3.76,3.1-6.27,6.09-5.71,2.08.39,3.21,1.27,3.21,2.57,1.47-.72,2.52-1.54,2.52-1.54-1.5-2.24-1.83-2.77-5.13-3.46h0Zm11.51.77c-.78.56-3.73.87-3.73.87.81.4,1.83,13.13,1.7,14.58-.05.61-.6,1.21-.6,1.57,2.02-.15,2.22.29,4.11-.47-.96-.12-.98-6.25-.98-7.24,1.54-.33,4.39-1.64,6.66-.39.15,1.69,1.17,7.4.87,7.82,1.56-.57,2.99-.13,3.35-.31-.99-.2-2.02-11.03-2.33-15.43-.03-.37.13-.99.41-1.46,0,0-2.94-.92-3.66-.5.62.21,1.21,7.1,1.21,7.1-2.55-.57-4.23-.22-6.64.63-.3-1.56-.59-4.41-.37-6.77h0Zm13.15.34c-.43.62-1.24,3.55-1.15,3.82,1.61-.78,2.39-.9,4.63-1.21.62,2.86,2.89,9.9,3.04,13.47,1.44-.6,2.03-.73,3.54-1.18-.53-.25-2.26-6.03-3.82-12.7,1.21-.43,3.55-1.27,4.91-1.18-.96-.99-1.12-1.3-2.2-2.83-3.09,1.96-5.05,1.72-8.95,1.81h0Z" style="fill: #d7dde8; stroke: #d7dde8; stroke-miterlimit: 10; stroke-width: 2px;"/>
  </g>
</svg>