<?xml version="1.0" encoding="UTF-8"?>
<svg id="Layer_1" data-name="Layer 1" xmlns="http://www.w3.org/2000/svg" viewBox="0 0 495.55 495.55">
  <path d="m247.78,0h0v.02c68.42,0,130.37,27.73,175.19,72.56,44.83,44.83,72.56,106.77,72.56,175.19h.02s-.02,0-.02,0c0,68.42-27.73,130.36-72.56,175.19-44.83,44.83-106.77,72.56-175.19,72.56v.02h0v-.02c-68.42,0-130.37-27.73-175.19-72.56C27.75,378.14.02,316.2.02,247.78h-.02s.02,0,.02,0c0-68.42,27.73-130.37,72.56-175.19C117.41,27.75,179.35.02,247.77.02v-.02h0Zm0,62.15h0v.02c51.26,0,97.67,20.77,131.25,54.35,33.58,33.58,54.35,79.98,54.35,131.24h.02s-.02,0-.02,0c0,51.26-20.77,97.67-54.35,131.25-33.58,33.58-79.98,54.35-131.25,54.35v.02h0v-.02c-51.26,0-97.67-20.77-131.25-54.35-33.58-33.58-54.35-79.98-54.35-131.24h-.02s.02,0,.02,0c0-51.26,20.77-97.67,54.35-131.25,33.58-33.58,79.98-54.35,131.24-54.35v-.02h0Zm0,11.09v.02h0v-.02c-48.17,0-91.79,19.55-123.39,51.14-31.6,31.6-51.14,75.22-51.14,123.39h.02s-.02,0-.02,0c0,48.17,19.55,91.79,51.14,123.39,31.6,31.6,75.23,51.14,123.39,51.14v-.02h0v.02c48.17,0,91.8-19.55,123.39-51.14,31.6-31.6,51.14-75.22,51.14-123.39h-.02s.02,0,.02,0c0-48.17-19.55-91.79-51.14-123.39-31.6-31.6-75.22-51.14-123.39-51.14h0Zm0-62.15v.02h0v-.02c-65.33,0-124.49,26.5-167.34,69.35C37.59,123.28,11.09,182.45,11.09,247.77h.02s-.02,0-.02,0c0,65.33,26.5,124.49,69.35,167.33,42.84,42.84,102.01,69.35,167.34,69.35v-.02h0v.02c65.33,0,124.49-26.5,167.33-69.35,42.84-42.84,69.35-102.01,69.35-167.34h-.02s.02,0,.02,0c0-65.33-26.5-124.49-69.35-167.34C372.27,37.59,313.11,11.09,247.78,11.09h0Z" style="fill: rgb(var(--accent-light)); stroke-width: 0px;"/>
  <path d="m214.49,402.86c-10.27-6.75-20.85-14.85-33.92-25.14h0c-3.78-2.98-7.52-6.28-11.18-9.87-3.59-3.52-7.07-7.33-10.39-11.36-17.08-20.76-29.38-47.29-29.38-73.83V122.65h5.56s112.57-.16,112.57-.16v-.02h.06v.02l112.57.16h5.56v160.01h0s-.02,0-.02,0c0,18.51-5.95,36.98-15.33,53.49-1.48,2.6-3.08,5.21-4.81,7.84-8.67,13.17-19.43,24.79-30.79,33.74-13.07,10.29-23.65,18.38-33.92,25.14-10.46,6.88-21.51,12.82-33.27,17.16-11.77-4.29-22.85-10.29-33.3-17.16h0Zm-73.76-182.14h214.09v-87.01l-107.02-.15v.02h-.06v-.02l-107.02.15v87.01h0Zm214.09,9.57h-102.73v176.01c7.95-3.55,15.26-7.66,22.89-12.68,9.65-6.35,20.1-14.35,33.14-24.62,10.51-8.27,20.43-18.99,28.4-31.09,1.51-2.29,2.98-4.7,4.42-7.23,8.5-14.96,13.9-31.56,13.9-48.02h-.02v-52.37h0Zm-112.3,175.59v-175.59h-101.79v52.37c0,23.82,11.23,47.85,26.82,66.8,3.03,3.69,6.25,7.2,9.61,10.5,3.29,3.23,6.73,6.26,10.26,9.04h0c13.04,10.26,23.49,18.27,33.14,24.62,7.33,4.82,14.37,8.81,21.96,12.26h0Z" style="fill: rgb(var(--accent-light)); stroke-width: 0px;"/>
  <path d="m192.55,258.64v86.89c7.76.33,16.78-.71,24.62-1.61,2.51-.29,4.89-.57,7.82-.84,5.88-.55,10.71-.59,14.72.1,3.12.54,5.79,1.5,8.07,2.97,2.28-1.47,4.95-2.43,8.07-2.97,4.01-.69,8.84-.65,14.72-.1,2.93.27,5.31.55,7.82.84,7.84.9,16.86,1.94,24.62,1.61v-86.89c-8.65.4-18.14-.7-26.39-1.65-2.97-.34-5.79-.67-7.61-.84-4.94-.46-8.9-.52-11.97.01-2.39.41-4.11,1.17-5.27,2.38l-3.99-3.99-3.99,3.99c-1.16-1.22-2.88-1.97-5.27-2.38-3.08-.53-7.03-.47-11.97-.01-1.81.17-4.64.5-7.61.84-8.25.95-17.73,2.05-26.39,1.65h0Zm40.33,16.43c-2.62.03-5.05.11-7.43.27-2.43.17-4.92.45-7.66.92h-.08c-.54.1-1.37.23-2.48.38-1.02.14-1.85.25-2.49.32-3.99.44-8.11.66-12.15.68v-7.39c3.86,0,7.82-.21,11.68-.64.97-.11,1.75-.2,2.32-.28.48-.07,1.23-.18,2.25-.36h.08c2.84-.49,5.57-.79,8.38-.99,2.49-.17,4.96-.25,7.57-.29v7.39h0Zm0,11.67v7.39c-2.62.04-5.05.11-7.43.28-2.43.17-4.92.45-7.66.92h-.08c-.54.1-1.37.23-2.48.38-1.02.14-1.85.25-2.49.32-3.99.44-8.11.66-12.15.68v-7.39c3.86-.01,7.82-.21,11.68-.64.97-.11,1.75-.2,2.32-.28.48-.07,1.23-.18,2.25-.36h.08c2.84-.49,5.57-.79,8.38-.99,2.49-.17,4.96-.25,7.57-.29h0Zm0,19.06v7.39c-2.62.04-5.05.11-7.43.28-2.43.17-4.92.45-7.66.92h-.08c-.54.1-1.37.23-2.48.38-1.02.14-1.85.25-2.49.32-3.99.44-8.11.66-12.15.68v-7.39c3.86-.01,7.82-.21,11.68-.64.97-.11,1.75-.2,2.32-.28.48-.07,1.23-.18,2.25-.36h.08c2.84-.49,5.57-.79,8.38-.99,2.49-.17,4.96-.25,7.57-.29h0Zm0,19.06v7.39c-2.62.04-5.05.11-7.43.28-2.43.17-4.92.45-7.66.92h-.08c-.54.1-1.37.23-2.48.38-1.02.14-1.85.25-2.49.32-3.99.44-8.11.66-12.15.68v-7.39c3.86-.01,7.82-.21,11.68-.64.97-.11,1.75-.2,2.32-.28.48-.07,1.23-.18,2.25-.36h.08c2.84-.49,5.57-.79,8.38-.99,2.49-.17,4.96-.25,7.57-.29h0Zm29.79-49.78c2.62.03,5.05.11,7.43.27,2.43.17,4.92.45,7.66.92h.08c.54.1,1.37.23,2.48.38,1.02.14,1.85.25,2.49.32,3.99.44,8.11.66,12.15.68v-7.39c-3.86,0-7.82-.21-11.68-.64-.97-.11-1.75-.2-2.31-.28-.48-.07-1.23-.18-2.25-.36h-.08c-2.84-.49-5.57-.79-8.38-.99-2.49-.17-4.96-.25-7.57-.29v7.39h0Zm0,11.67v7.39c2.62.04,5.05.11,7.43.28,2.43.17,4.92.45,7.66.92h.08c.54.1,1.37.23,2.48.38,1.02.14,1.85.25,2.49.32,3.99.44,8.11.66,12.15.68v-7.39c-3.86-.01-7.82-.21-11.68-.64-.97-.11-1.75-.2-2.31-.28-.48-.07-1.23-.18-2.25-.36h-.08c-2.84-.49-5.57-.79-8.38-.99-2.49-.17-4.96-.25-7.57-.29h0Zm0,19.06v7.39c2.62.04,5.05.11,7.43.28,2.43.17,4.92.45,7.66.92h.08c.54.1,1.37.23,2.48.38,1.02.14,1.85.25,2.49.32,3.99.44,8.11.66,12.15.68v-7.39c-3.86-.01-7.82-.21-11.68-.64-.97-.11-1.75-.2-2.31-.28-.48-.07-1.23-.18-2.25-.36h-.08c-2.84-.49-5.57-.79-8.38-.99-2.49-.17-4.96-.25-7.57-.29h0Zm0,19.06v7.39c2.62.04,5.05.11,7.43.28,2.43.17,4.92.45,7.66.92h.08c.54.1,1.37.23,2.48.38,1.02.14,1.85.25,2.49.32,3.99.44,8.11.66,12.15.68v-7.39c-3.86-.01-7.82-.21-11.68-.64-.97-.11-1.75-.2-2.31-.28-.48-.07-1.23-.18-2.25-.36h-.08c-2.84-.49-5.57-.79-8.38-.99-2.49-.17-4.96-.25-7.57-.29h0Zm-19.47,31.65c-1.16-1.22-2.88-1.97-5.27-2.38-3.08-.53-7.03-.47-11.97-.01-1.81.17-4.64.5-7.61.84-10.04,1.16-21.92,2.53-31.9,1.16h-.04s-4.7-.66-4.7-.66v-18.16h-11.42v-13.28h11.42v-14.7h-11.42v-13.28h11.42v-18.74h-11.42v-13.28h11.42v-16.43c11.84,0,24.28-.25,36.03-1.61,2.51-.29,4.89-.56,7.82-.84,5.88-.55,10.71-.59,14.72.1,2.86.49,5.34,1.34,7.49,2.61,2.15-1.27,4.63-2.12,7.49-2.61,4.01-.69,8.84-.65,14.72-.1,2.93.27,5.31.55,7.82.84,11.75,1.35,24.19,1.61,36.03,1.61v16.43h11.42v13.28h-11.42v18.74h11.42v13.28h-11.42v14.7h11.42v13.28h-11.42v18.16l-4.7.66h-.02s-.02,0-.02,0c-9.98,1.37-21.86,0-31.9-1.16-2.97-.34-5.79-.67-7.61-.84-4.94-.46-8.9-.52-11.97.01-2.39.41-4.54,1.17-5.69,2.38h-8.73Z" style="fill: rgb(var(--accent-light)); stroke-width: 0px;"/>
  <path d="m192.75,140.66h.05v.02h28.37s5.56,0,5.56,0v44.02h0s-.02,0-.02,0c0,11.03-16.28,21.12-27.07,27.43-2.82,1.65,3.37-2.03-4.06,2.35l-2.84,1.68-2.82-1.7c-1.18-.71-1.9-1.14-2.65-1.58-10.7-6.34-28.43-16.84-28.43-28.17v-44.02h5.56s28.37,0,28.37,0v-.02h0Zm-22.82,21.47h45.68v-10.38h-22.81s0,.02,0,.02h-.05v-.02h-22.82v10.38h0Zm45.68,10.55h-45.68v12.03c0,5,14.22,13.44,22.87,18.56l1.24-.73h0c8.61-5.03,21.59-12.88,21.59-17.83h-.02v-12.03h0Z" style="fill: rgb(var(--accent-light)); stroke-width: 0px;"/>
  <path d="m302.75,140.66h.05v.02h28.37s5.56,0,5.56,0v44.02h0s-.02,0-.02,0c0,11.03-16.28,21.12-27.07,27.43-2.82,1.65,3.37-2.03-4.06,2.35l-2.85,1.68-2.82-1.7c-1.19-.71-1.9-1.14-2.65-1.58-10.7-6.34-28.43-16.84-28.43-28.17v-44.02h5.56s28.37,0,28.37,0v-.02h0Zm-22.82,30.07l22.84-15.76,22.84,15.76v-18.98h-22.81s0,.02,0,.02h-.05v-.02h-22.82v18.98h0Zm45.68,12.76l-22.84-15.76-22.84,15.76v1.22c0,5,14.22,13.44,22.86,18.56l1.24-.73h0c8.61-5.03,21.59-12.88,21.59-17.83h-.02v-1.22h0Z" style="fill: rgb(var(--accent-light)); stroke-width: 0px;"/>
  <path d="m48.7,223.46c.69,1.69,1,4.91.76,7.6-.64,7.28-6.24,11.13-13.19,10.52-6.99-.61-11.98-5.48-11.37-12.52.21-2.44.76-4.76,2.45-7.22l-5.73-.99c-1.2,2.41-1.9,5.35-2.09,7.6-1.01,11.59,4.91,19.3,16.6,20.32,11.54,1.01,17.74-6.18,18.71-17.23.23-2.59-.03-5.32-.4-7.87l-5.75-.21h0Zm-9.61-15.22c10.09,2.89,18.73-.65,21.76-11.22,2.99-10.42-2.55-18.19-12.51-21.04-9.95-2.85-18.6.95-21.56,11.28-3,10.47,2.21,18.09,12.31,20.99h0Zm1.97-6.89c-5.8-1.66-10.97-6.06-9.09-12.61,1.88-6.56,8.59-7.54,14.4-5.88,5.94,1.7,11.22,5.92,9.28,12.67-1.93,6.75-8.64,7.53-14.59,5.82h0Zm7.02-52.42l1.06-1.99c1.61-3.03,3.71-6.25,7.35-4.32,3.77,2,2.38,5.66.79,8.65l-1.06,1.99-8.15-4.33h0Zm22.25,19.61l3.23-6.07-12.56-6.68,1.04-1.95c1.36-2.56,2.64-2.88,5.35-2.54l11.38,1.38,3.59-6.76-14.41-1.44c-1.67-.11-3.82-.03-4.82,1.55l-.09-.05c1.53-4.13-.15-8.08-3.7-9.97-8.41-4.47-12.31,3.4-15.77,9.9l-3.48,6.54,30.24,16.08h0Zm18.5-32.71l4.14-5.11-19.91-16.12.06-.08,28.15,5.94,5.28-6.52-26.62-21.56-4.14,5.11,19.91,16.12-.06.08-28.12-5.98-5.31,6.56,26.62,21.56h0Zm28.52-32.5l16.01-12.51-3.32-4.25-10.6,8.28-5.92-7.58,9.63-7.52-3.32-4.25-9.63,7.52-5.2-6.65,10.52-8.22-3.32-4.25-15.93,12.45,21.09,26.99h0Zm28.21-20.58l17.64-9.78-2.62-4.72-11.63,6.45-13.99-25.24-6.01,3.33,16.61,29.96h0Zm28.37-14.51l19.18-6.23-1.67-5.13-12.65,4.11-8.92-27.44-6.53,2.12,10.58,32.58h0Zm42.74-24.62c.64,9.15,6.09,12.57,14.86,11.96,8.76-.61,13.69-4.75,13.05-13.91l-1.53-21.83-6.85.48,1.38,19.73c.41,5.83-1.19,9.77-6.42,10.14-5.24.37-7.36-3.32-7.77-9.15l-1.38-19.73-6.85.48,1.53,21.83h0Zm43.63,10.58l6.53.8,3.12-25.42h.1s9.88,27.03,9.88,27.03l8.33,1.02,4.17-34-6.53-.8-3.12,25.42h-.1s-9.83-27.03-9.83-27.03l-8.38-1.03-4.17,34h0Zm42.01,7.96l6.53,2.12,10.58-32.58-6.53-2.12-10.58,32.57h0Zm27.82,10.41l7.52,3.83,25.82-25.28-6.08-3.1-19.95,20.02-.09-.04,4.38-27.95-6.56-3.34-5.06,35.87h0Zm27.97,16.02l16.01,12.51,3.32-4.25-10.59-8.28,5.92-7.58,9.63,7.52,3.32-4.25-9.63-7.52,5.2-6.65,10.52,8.22,3.32-4.25-15.93-12.45-21.09,26.99h0Zm52.26,7.95l1.48,1.7c2.25,2.59,4.5,5.71,1.39,8.41-3.22,2.8-6.14.2-8.36-2.36l-1.48-1.7,6.96-6.05h0Zm-26.28,13.75l4.51,5.18,10.74-9.34,1.45,1.67c1.9,2.18,1.74,3.5.46,5.91l-5.37,10.13,5.02,5.78,6.5-12.94c.7-1.52,1.4-3.55.28-5.06l.07-.06c3.31,2.91,7.6,2.76,10.63.12,7.18-6.25,1.24-12.71-3.59-18.27l-4.86-5.59-25.85,22.47h0Zm63.07,29.03c-.53-2.59-1.56-5.16-3.03-7.71-3.02-5.23-8.41-8.97-15.04-5.14-9.82,5.67.03,17.32-5.62,20.59-2.68,1.55-5.57-.81-6.87-3.06-1.35-2.34-1.98-5.09-2.05-7.77l-5.67,2.54c.96,3.35,1.37,5.04,3.24,8.27,3.46,5.99,8.9,9.71,15.4,5.95,9.94-5.74.27-17.49,5.41-20.46,3.23-1.86,5.64.26,6.82,2.29,1.2,2.08,1.94,4.43,2.21,6.77l5.21-2.27h0Zm-22.28,30.44l2.57,6.37,31.76-12.83-2.57-6.37-31.76,12.83h0Zm8.9,26.3l1.89,6.6,27.74-7.95,2.71,9.43,5.19-1.49-7.3-25.47-5.19,1.49,2.71,9.43-27.74,7.95h0Zm6.56,37.05l.6,6.84,13.49-1.18,21.7,10.42-.63-7.24-15.04-6.96,13.62-9.32-.7-8.02-19.54,14.27-13.49,1.18h0Z" style="fill: rgb(var(--accent-light)); stroke-width: 0px;"/>
  <path d="m24.91,301.02l1.78,6.64,14.5-3.89,3,11.19,5.21-1.4-3-11.19,8.15-2.18,3.15,11.76,5.21-1.4-4.93-18.39-33.08,8.86h0Zm25.36,24.54c-9.44,4.6-13.48,13.02-8.66,22.9,4.75,9.75,14.07,11.81,23.37,7.27,9.31-4.54,13.19-13.15,8.48-22.81-4.78-9.79-13.75-11.96-23.19-7.36h0Zm3.14,6.44c5.42-2.65,12.21-2.84,15.2,3.29,2.99,6.13-1.34,11.36-6.77,14-5.56,2.71-12.3,3.1-15.37-3.2-3.08-6.31,1.39-11.38,6.94-14.09h0Zm16.92,40.49c-7.23,5.65-7.01,12.08-1.6,19,5.41,6.92,11.59,8.69,18.82,3.04l17.25-13.47-4.23-5.41-15.58,12.18c-4.6,3.59-8.77,4.48-12,.34-3.23-4.14-1.36-7.96,3.24-11.56l15.58-12.17-4.23-5.41-17.25,13.47h0Zm21.91,44.2l5.18,4.05,15.77-20.18.08.06-5.45,28.25,6.61,5.17,21.09-26.99-5.18-4.05-15.77,20.18-.08-.06,5.48-28.22-6.65-5.2-21.09,26.99h0Zm42.08,29.99l8.35,4.26c9.36,4.77,19.22,5.83,25.39-6.28,6.17-12.11-.49-19.47-9.85-24.24l-8.35-4.26-15.55,30.52h0Zm19.22-22.59l3.41,1.74c5.12,2.61,8.12,8.93,4.73,15.57s-10.26,7.93-15.38,5.33l-3.41-1.74,10.65-20.9h0Zm24.42,41.51l19.53,5.6,1.49-5.19-12.92-3.71,2.65-9.24,11.75,3.37,1.49-5.19-11.75-3.37,2.33-8.11,12.83,3.68,1.49-5.19-19.43-5.57-9.44,32.93h0Zm41.73,9.06l9.34.82c10.46.92,20.01-1.8,21.19-15.34s-7.75-17.87-18.21-18.78l-9.34-.82-2.99,34.12h0Zm9.36-28.14l3.81.33c5.72.5,10.87,5.24,10.22,12.67-.65,7.43-6.55,11.2-12.27,10.7l-3.81-.33,2.04-23.37h0Zm65.76,10.97l-9.71,2.42,1.39-14.91.1-.02,8.23,12.51h0Zm-18.22,18.2l6.9-1.72,1.01-8.34,13.47-3.36,4.76,6.91,7.38-1.84-21.33-29.98-7.52,1.88-4.67,36.46h0Zm42.68-10.87l6.46-2.35-2.35-6.46-6.45,2.35,2.35,6.45h0Zm23.4-8.99l8.35-4.26c9.36-4.77,16.02-12.13,9.84-24.24-6.17-12.11-16.04-11.05-25.39-6.28l-8.35,4.25,15.55,30.52h0Zm-6.98-28.83l3.41-1.74c5.12-2.61,11.99-1.32,15.38,5.33,3.39,6.65.38,12.97-4.73,15.57l-3.41,1.74-10.65-20.9h0Zm39.23,10.49l5.56-4.04-4.04-5.56-5.56,4.04,4.04,5.56h0Zm9.09-39.82l5.61.53.5-7.45,19.34,18.04,4.69-5.02-25.05-23.36-4.15,4.45-.94,12.81h0Zm32.45-24c-.72,4.53.22,7.82,3.35,10.01,5.71,4,11.18,1.24,15.01-4.23,3.88-5.55,4.26-11.4-1.41-15.37-3.22-2.25-6.81-2.25-11.13.24l-.04-.03c.92-3.97-.92-7.59-3.45-9.36-4.7-3.29-9.88-.27-13.34,4.68-3.57,5.1-3.88,10.58,1.15,14.1,2.93,2.06,6.56,1.84,9.78-.1l.08.06h0Zm-5.93-5.23c-2.25-1.58-1.94-4.41-.5-6.46,1.49-2.13,3.87-2.44,5.96-.98,1.73,1.21,2.4,4.02,1.86,5.98-2.08,1.42-4.91,3.16-7.32,1.47h0Zm13.14,9.56c-2.37-1.66-2.56-4.13-2.12-6.81,2.4-1.8,5.38-3.24,8.16-1.3,2.33,1.63,2.5,4.39.92,6.64-1.58,2.25-4.63,3.11-6.96,1.47h0Zm3.06-54.09c-1.72,1.81-3.04,3.8-4.05,6.09-4.51,10.13,3.6,17.02,12.07,20.79,7.35,3.27,15.43,4.56,19.31-4.14,3.15-7.08.14-12.4-6.63-15.41-5.78-2.58-10.99-1.02-13.62,4.89-1.18,2.64-1.05,5.01.44,7.45l-.13.05c-4.58-2.25-8.78-6.33-6.37-11.75.94-2.11,2.24-3.57,3.69-4.91l-4.71-3.06h0Zm11.12,15.69c1.34-3,4.72-3,7.77-1.64,2.78,1.24,5.06,3.71,3.77,6.62-1.38,3.09-4.54,3.19-7.49,1.87-3.14-1.4-5.4-3.8-4.04-6.85h0Zm-1.22-48.01l-5.09,19.01,17.69,5.1c-.1-2.11.14-4.13.69-6.17,1.02-3.79,3.5-7.19,7.77-6.05,4.22,1.13,4.86,5.16,3.94,8.62-.78,2.89-2.38,4.9-3.48,6.33l5.89,1.73c1.11-2.04,2.34-4.91,3.03-7.47,2.29-8.53-1.58-14.24-7.79-15.9-8.58-2.3-12.37,3.14-13.62,7.78-.34,1.28-.42,2.33-.48,3.12l-7.02-2.03,3.42-12.75-4.93-1.32h0Z" style="fill: rgb(var(--accent-light)); stroke-width: 0px;"/>
</svg>