<?xml version="1.0" encoding="UTF-8"?>
<svg id="Layer_2" data-name="Layer 2" xmlns="http://www.w3.org/2000/svg" viewBox="0 0 194.11 156.59">
  <g id="Layer_1-2" data-name="Layer 1">
    <path d="m82.71,58.54c10.23-4.27,20.35-8.88,31.2-11.46,5.95-1.41,11.85-3.13,18.06-3.27-2.89,1.55-6.1,2.04-9.21,2.84-13.25,3.39-25.83,8.44-37.73,15.18-1.43.81-2.73,1.86-4.09,2.79-2.27.7-4.13,2.02-5.7,3.78-8.9,5.66-16.4,12.84-23.54,20.98,4.16,6.32,8.14,12.37,12.47,18.94h-9.34c-2.44-3.75-5.13-7.88-8.05-12.37-3.36,3.9-5.45,8.22-8.19,12.5-2.42.35-5.03.26-8.11,0,3.42-6.75,8.2-12.3,12.31-18.52-3.84-6.19-7.67-12.36-11.78-18.98,3.05-.47,5.45-.34,7.93-.16,3.61,3.98,5.82,8.9,9.46,13.31,8.6-8.62,18.16-15.77,28.3-22.15,2.16-.85,4.35-1.67,6.01-3.42Z" style="fill: #d7dde8; stroke-width: 0px;"/>
    <path d="m0,70.86h19.4c.54,1.94.44,3.68.06,5.94H7.62c-1.04,3.38-.51,6.34-.46,9.4,3.8.97,7.66.04,11.47.61,1.3,1.67.41,3.48.71,5.4-4.14,1.12-8.2-.21-12.33.97v15.06c-2.52.71-4.75.38-7.01.33v-37.71Z" style="fill: #d7dde8; stroke-width: 0px;"/>
    <path d="m75.24,68.4c1.57-1.76,3.43-3.08,5.7-3.78-2.45,15.32-1.9,30.44,2.9,45.29,5.18,16.03,14.56,29.26,27.03,40.42-.17.18-.35.35-.53.52-11-6.84-18.79-16.65-25.15-27.66-9.84-17.04-12.23-35.52-9.96-54.8Z" style="fill: none; stroke: #d7dde8; stroke-miterlimit: 10;"/>
    <path d="m160.6,108.12c-1.35.84-2.62.64-3.88.24-1.72-2.72-2.04-5.96-3.6-8.97h-17.05c-2.09,2.39-2.08,5.96-3.75,8.87-1.17.71-2.4.51-3.73-.02,4.68-12.53,9.3-24.93,13.86-37.15,1.36-.61,2.5-.52,4.2-.18,4.58,12.23,9.27,24.72,13.95,37.21Zm-16.41-32.6c-2.45,7.01-4.7,13.44-7.07,20.22,5.21.4,9.77.34,15.01.1-3.04-6.84-4.6-13.6-7.95-20.32Z" style="fill: none; stroke: #d7dde8; stroke-miterlimit: 10;"/>
    <path d="m82.71,58.54c-1.65,1.75-3.84,2.56-6.01,3.42,7.07-29.82,25.4-49.73,53.46-61.09-23.59,12.8-40.34,31.26-47.46,57.67Z" style="fill: none; stroke: #d7dde8; stroke-miterlimit: 10;"/>
    <path d="m99.69,70.85c4.2,0,8.04-.37,11.78.09,5.47.66,8.7,3.84,9.29,8.24.73,5.45-1.56,9.95-6.22,12.51-3.48,1.91-7.32,1.78-11.46,2.05v14.15c-1.26.97-2.2.83-3.39.46v-37.5Zm3.57,19.52c4.97.23,9.58.34,12.61-4.21,1.81-2.72,1.66-6.93-.36-9.35-3.35-4.03-7.8-3.24-12.26-2.95v16.5Z" style="fill: none; stroke: #d7dde8; stroke-miterlimit: 10;"/>
    <path d="m179.08,105.67h13.96c.77,1.06.7,1.81.22,2.78h-17.43v-37.31c.89-.79,1.84-.49,3.25-.19v34.71Z" style="fill: none; stroke: #d7dde8; stroke-miterlimit: 10;"/>
    <path d="m132.1,0c.29.04.58.07.87.11-.25.05-.51.11-.76.14-.02,0-.07-.16-.11-.25Z" style="fill: #111010; stroke-width: 0px;"/>
    <path d="m112.08,151.17c.63.36,1.42.54,1.5,1.46l.12-.09c-1.21.94-1.69.05-2.15-.87.18-.17.35-.33.53-.5Z" style="fill: none; stroke: #d7dde8; stroke-miterlimit: 10;"/>
    <path d="m111.55,151.66c-.61.04-1.04-.17-1.21-.8.18-.17.35-.35.53-.52.56.05.96.33,1.21.83-.18.16-.35.33-.53.5Z" style="fill: none; stroke: #d7dde8; stroke-miterlimit: 10;"/>
    <path d="m113.58,152.63c.66-.02,1.07.23,1.03.97l.11-.1c-.41-.02-.82-.04-1.27-.07.11-.38.18-.64.25-.89l-.12.09Z" style="fill: none; stroke: #d7dde8; stroke-miterlimit: 10;"/>
    <path d="m114.61,153.59c.42,0,.78.1.88.63-.83.37-.91-.06-.77-.73l-.11.1Z" style="fill: none; stroke: #d7dde8; stroke-miterlimit: 10;"/>
    <path d="m117.64,155.51c-.31-.08-.62-.16-.95-.25.7-.72.7-.03.83.38l.12-.12Z" style="fill: none; stroke: #d7dde8; stroke-miterlimit: 10;"/>
    <path d="m117.52,155.63c.26.1.51.21.82.33-.67.44-.45-.36-.7-.45l-.12.12Z" style="fill: none; stroke: #d7dde8; stroke-miterlimit: 10;"/>
    <path d="m144.19,75.51c3.35,6.72,4.91,13.47,7.95,20.32-5.24.24-9.8.3-15.01-.1,2.37-6.78,4.62-13.21,7.07-20.22Z" style="fill: none; stroke: #d7dde8; stroke-miterlimit: 10;"/>
    <path d="m103.25,90.37v-16.5c4.45-.29,8.9-1.08,12.26,2.95,2.01,2.42,2.17,6.63.36,9.35-3.03,4.55-7.64,4.44-12.61,4.21Z" style="fill: none; stroke: #d7dde8; stroke-miterlimit: 10;"/>
  </g>
</svg>