<?xml version="1.0" encoding="UTF-8"?>
<svg id="svg4173" xmlns="http://www.w3.org/2000/svg" viewBox="0 0 229.64 229.64">
  <g id="g330">
    <path id="path332" d="m114.82,20.98c-51.74,0-93.84,42.09-93.84,93.84s42.1,93.84,93.84,93.84,93.83-42.09,93.83-93.84S166.56,20.98,114.82,20.98m0,188.75c-52.34,0-94.91-42.58-94.91-94.91S62.48,19.91,114.82,19.91s94.91,42.58,94.91,94.91-42.58,94.91-94.91,94.91" style="fill: #d7dde8; stroke-width: 0px;"/>
  </g>
  <path id="path334" d="m111.31,114.5h7.98v-30.01h-7.98v30.01Z" style="fill: #d7dde8; stroke-width: 0px;"/>
  <g id="g336">
    <path id="path338" d="m153.94,84.49v6.25h10.03v23.75h7.97v-23.75h10.03v-6.25h-28.04Z" style="fill: #d7dde8; stroke-width: 0px;"/>
  </g>
  <g id="g340">
    <path id="path342" d="m142.83,96.37h-6.67c-1.77,0-3.2-.73-3.2-2.81s1.43-2.81,3.2-2.81h14.33v-6.25h-15.28c-5.7,0-10.33,3.29-10.33,9.06s4.63,9.06,10.33,9.06h6.86c1.77,0,3.2.73,3.2,2.82s-1.44,2.81-3.2,2.81h-16.08v6.25h16.83c5.71,0,10.33-3.29,10.33-9.06s-4.62-9.07-10.33-9.07" style="fill: #d7dde8; stroke-width: 0px;"/>
  </g>
  <g id="g344">
    <path id="path346" d="m87.04,84.49l-11.28,27-10.75-12,13.44-15.01h-9.11l-12.74,14.25v-14.25h-7.98v30.01h7.98v-14.24l12.74,14.24h13.26l9.13-22.63,6.63,16.63h-10.54l2.51,5.99h18.64l-12.54-30.01h-9.4Z" style="fill: #d7dde8; stroke-width: 0px;"/>
  </g>
  <g id="g356">
    <g id="g358">
      <path id="path376" d="m30.12,127.1c27.82,3.96,56.26,6,85.18,6h0c28.91,0,57.35-2.05,85.17-6h0c-27.82-3.95-56.26-6-85.17-6h0c-28.92,0-57.35,2.05-85.18,6" style="fill: #d7dde8; stroke-width: 0px;"/>
    </g>
  </g>
  <g id="g386">
    <path id="path388" d="m34.74,189.35l-1.39-1.59,3.44-3.02-.03-.03-5.74.4-1.54-1.75,5.24-.32,2.31-7.08,1.53,1.75-1.76,5.17,2.24-.12,2.23-1.95,1.39,1.58-7.94,6.96Z" style="fill: #d7dde8; stroke-width: 0px;"/>
  </g>
  <g id="g390">
    <path id="path392" d="m27.87,172.25c-1.86,1.31-2.39,2.9-1.49,4.18.9,1.28,2.58,1.32,4.44.02,1.84-1.29,2.45-2.94,1.55-4.22-.9-1.28-2.66-1.27-4.5.02m4.19,5.96c-2.81,1.98-5.55,1.55-7.16-.74-1.61-2.29-1.07-5.02,1.73-6.99,2.8-1.97,5.62-1.6,7.23.69,1.61,2.29,1,5.07-1.8,7.04" style="fill: #d7dde8; stroke-width: 0px;"/>
  </g>
  <g id="g394">
    <path id="path396" d="m23.58,165.89l-.66-1.2c-.65-1.19-1.51-1.57-2.5-1.02-1,.55-.98,1.38-.33,2.58l.66,1.2,2.83-1.55Zm3.22-5.91l-2.46,3.82.71,1.29,3.5-1.92,1.01,1.85-9.26,5.07-1.77-3.23c-1.06-1.94-1.23-3.85.9-5.02,1.39-.76,2.63-.53,3.63.31l2.61-4.24,1.13,2.06Z" style="fill: #d7dde8; stroke-width: 0px;"/>
  </g>
  <g id="g398">
    <path id="path400" d="m14.96,159.82l-2.52-5.97,1.62-.68,1.69,4.02,2.25-.94-1.44-3.42,1.63-.69,1.44,3.42,2.6-1.1-1.76-4.17,1.63-.69,2.58,6.11-9.72,4.1Z" style="fill: #d7dde8; stroke-width: 0px;"/>
  </g>
  <g id="g402">
    <path id="path404" d="m15.52,143.46l-1.02.64c-.96.64-2.03,1.26-3.03,1.89l.02.05c1.18-.08,2.42-.13,3.56-.15l1.2-.04-.73-2.4Zm1.43-.92l1,3.28,2.81-.08.63,2.04-11.08-.15-.72-2.37,9.1-6.33.65,2.11-2.37,1.5Z" style="fill: #d7dde8; stroke-width: 0px;"/>
  </g>
  <g id="g406">
    <path id="path408" d="m12.39,128.86l-1.09.48c-1.04.49-2.19.95-3.27,1.43v.06c1.19.09,2.42.22,3.56.37l1.19.14-.38-2.48Zm1.56-.7l.51,3.38,2.79.33.32,2.11-10.94-1.76-.37-2.45,9.92-4.94.33,2.18-2.57,1.14Z" style="fill: #d7dde8; stroke-width: 0px;"/>
  </g>
  <g id="g410">
    <path id="path412" d="m14.19,119.97c-.08-1.97-1.19-3.15-3.76-3.03-2.58.11-3.49,1.38-3.4,3.35l.03.65,7.17-.31-.03-.66Zm-8.73,3.15l-.13-2.89c-.14-3.22,1.44-5.29,5-5.45,3.55-.15,5.4,1.76,5.54,4.87l.13,3-10.54.47Z" style="fill: #d7dde8; stroke-width: 0px;"/>
  </g>
  <g id="g414">
    <path id="path416" d="m5.11,112.63l.12-2.21,5.21-1.1c1.19-.26,2.25-.42,3.45-.69v-.07c-1.16-.39-2.2-.7-3.35-1.09l-5.05-1.66.12-2.13,10.36,3.83-.14,2.5-10.72,2.62Z" style="fill: #d7dde8; stroke-width: 0px;"/>
  </g>
  <g id="g418">
    <path id="path420" d="m12.76,97.52l-1.19.14c-1.13.16-2.38.26-3.55.4v.06c1.09.44,2.23.93,3.27,1.41l1.09.48.38-2.48Zm1.69-.2l-.52,3.38,2.57,1.14-.33,2.11-9.92-4.93.38-2.45,10.94-1.77-.33,2.19-2.79.32Z" style="fill: #d7dde8; stroke-width: 0px;"/>
  </g>
  <g id="g422">
    <path id="path424" d="m7.86,89.96l.56-2.08,6.22-1.51,2.48-.43v-.07c-1.07-.17-2.46-.38-3.62-.69l-4.07-1.09.52-1.93,10.19,2.73-.55,2.07-6.24,1.49-2.47.44-.02.07c1.13.2,2.45.39,3.62.7l4.09,1.1-.52,1.93-10.19-2.73Z" style="fill: #d7dde8; stroke-width: 0px;"/>
  </g>
  <g id="g426">
    <path id="path428" d="m16.13,80.33c-3.24-1.26-4.33-4.09-3.37-6.57.48-1.25,1.47-2.01,2.38-2.39l.85,1.52c-.67.31-1.23.74-1.52,1.49-.58,1.49.26,3.1,2.38,3.92,2.14.83,3.82.32,4.43-1.24.33-.84.18-1.65-.18-2.41l1.63-.56c.63,1.18.72,2.42.23,3.7-.96,2.48-3.53,3.81-6.81,2.54" style="fill: #d7dde8; stroke-width: 0px;"/>
  </g>
  <g id="g430">
    <path id="path432" d="m15.62,67.61l2.93-5.78,1.56.79-1.97,3.89,2.17,1.1,1.68-3.31,1.57.8-1.68,3.31,2.52,1.28,2.05-4.03,1.58.8-3,5.91-9.41-4.78Z" style="fill: #d7dde8; stroke-width: 0px;"/>
  </g>
  <g id="g434">
    <path id="path436" d="m29.47,60.82c1.07-1.66.84-3.26-1.32-4.65-2.17-1.39-3.65-.89-4.71.76l-.36.55,6.03,3.88.35-.55Zm-8.94-2.47l1.57-2.43c1.74-2.71,4.23-3.48,7.23-1.55,2.98,1.93,3.39,4.56,1.71,7.17l-1.63,2.53-8.87-5.71Z" style="fill: #d7dde8; stroke-width: 0px;"/>
  </g>
  <g id="g438">
    <path id="path440" d="m30.21,44.71l1.36-1.61,8.08,6.8-1.36,1.61-8.07-6.8Z" style="fill: #d7dde8; stroke-width: 0px;"/>
  </g>
  <g id="g442">
    <path id="path444" d="m34.32,39.91l1.52-1.53,6.14,1.79,2.36.86.05-.05c-.86-.7-1.96-1.57-2.81-2.42l-2.98-2.97,1.41-1.41,7.47,7.44-1.51,1.52-6.16-1.83-2.36-.84-.05.05c.88.74,1.93,1.56,2.79,2.42l3,2.99-1.41,1.41-7.47-7.45Z" style="fill: #d7dde8; stroke-width: 0px;"/>
  </g>
  <g id="g446">
    <path id="path448" d="m48.52,38.93l.02-1.89c1.03.06,2.1-.2,2.82-.78.85-.69,1.01-1.43.54-2-.5-.61-1.15-.39-2.13-.11l-1.48.42c-1.11.33-2.48.34-3.45-.85-1.09-1.34-.75-3.32.91-4.67.95-.77,2.21-1.17,3.42-1.03v1.7c-.86-.01-1.61.18-2.28.73-.72.58-.92,1.28-.48,1.83.47.59,1.23.32,2.15.03l1.44-.42c1.33-.4,2.49-.3,3.45.88,1.09,1.34.9,3.39-.99,4.92-1.09.89-2.54,1.35-3.96,1.23" style="fill: #d7dde8; stroke-width: 0px;"/>
  </g>
  <g id="g450">
    <path id="path452" d="m54.52,24.98l-2.48,1.64-.96-1.47,6.73-4.45.96,1.47-2.5,1.65,4.85,7.34-1.76,1.17-4.85-7.34Z" style="fill: #d7dde8; stroke-width: 0px;"/>
  </g>
  <g id="g454">
    <path id="path456" d="m60.67,19.1l1.84-1.03,5.13,9.22-1.85,1.02-5.13-9.22Z" style="fill: #d7dde8; stroke-width: 0px;"/>
  </g>
  <g id="g458">
    <path id="path460" d="m68.81,16.85l-2.7,1.24-.73-1.59,7.33-3.37.73,1.59-2.72,1.25,3.68,8-1.92.88-3.68-8Z" style="fill: #d7dde8; stroke-width: 0px;"/>
  </g>
  <g id="g462">
    <path id="path464" d="m77.83,17.33l-1.85-5.5,2-.67,1.91,5.68c.7,2.08,1.65,2.55,2.83,2.15,1.19-.4,1.71-1.36,1.01-3.44l-1.91-5.68,1.92-.64,1.85,5.5c1.12,3.32.16,5.16-2.29,5.99-2.43.82-4.35-.06-5.47-3.38" style="fill: #d7dde8; stroke-width: 0px;"/>
  </g>
  <g id="g466">
    <path id="path468" d="m90.4,9.36l-2.89.64-.38-1.71,7.88-1.74.38,1.71-2.93.65,1.9,8.59-2.06.46-1.9-8.59Z" style="fill: #d7dde8; stroke-width: 0px;"/>
  </g>
  <g id="g470">
    <path id="path472" d="m98.42,6.02l6.43-.78.21,1.74-4.33.52.29,2.42,3.68-.44.21,1.75-3.68.44.34,2.81,4.48-.55.21,1.76-6.58.79-1.26-10.47Z" style="fill: #d7dde8; stroke-width: 0px;"/>
  </g>
  <g id="g474">
    <path id="path476" d="m120.47,10.2c.07-2.27-.89-3.65-2.46-3.69-1.57-.05-2.61,1.28-2.67,3.54-.06,2.25.89,3.72,2.46,3.77,1.57.04,2.61-1.37,2.67-3.62m-7.28-.21c.1-3.43,2.09-5.37,4.88-5.29,2.79.08,4.66,2.15,4.56,5.57-.1,3.42-2.09,5.46-4.88,5.37-2.79-.08-4.66-2.24-4.55-5.65" style="fill: #d7dde8; stroke-width: 0px;"/>
  </g>
  <g id="g478">
    <path id="path480" d="m126.66,5.45l6.45.86-.23,1.74-4.35-.59-.37,2.73,3.72.5-.24,1.75-3.72-.5-.57,4.24-2.09-.28,1.4-10.46Z" style="fill: #d7dde8; stroke-width: 0px;"/>
  </g>
  <g id="g482">
    <path id="path484" d="m138.26,16.75l1.56-1.07c.54.88,1.37,1.6,2.27,1.85,1.06.29,1.75,0,1.95-.71.21-.75-.34-1.16-1.14-1.8l-1.2-.96c-.91-.72-1.71-1.82-1.29-3.31.47-1.66,2.28-2.53,4.34-1.95,1.18.33,2.23,1.13,2.82,2.2l-1.39.99c-.49-.72-1.09-1.21-1.93-1.44-.89-.25-1.58-.02-1.77.66-.2.72.45,1.19,1.22,1.78l1.17.93c1.09.86,1.68,1.87,1.27,3.34-.46,1.66-2.25,2.69-4.6,2.03-1.36-.38-2.57-1.3-3.29-2.52" style="fill: #d7dde8; stroke-width: 0px;"/>
  </g>
  <g id="g486">
    <path id="path488" d="m149.29,15.94c1.28-3.24,4.1-4.32,6.59-3.34,1.24.49,2.01,1.48,2.38,2.39l-1.53.84c-.3-.67-.74-1.24-1.48-1.53-1.49-.59-3.1.25-3.93,2.36-.84,2.14-.34,3.82,1.21,4.43.84.33,1.66.19,2.41-.17l.56,1.63c-1.18.62-2.43.71-3.7.21-2.48-.98-3.8-3.55-2.51-6.82" style="fill: #d7dde8; stroke-width: 0px;"/>
  </g>
  <g id="g490">
    <path id="path492" d="m161.85,15.45l1.9.93-4.63,9.48-1.9-.93,4.63-9.48Z" style="fill: #d7dde8; stroke-width: 0px;"/>
  </g>
  <g id="g494">
    <path id="path496" d="m167.43,18.26l5.59,3.27-.89,1.51-3.76-2.21-1.24,2.11,3.2,1.88-.89,1.52-3.2-1.88-1.43,2.44,3.9,2.29-.89,1.53-5.72-3.35,5.34-9.1Z" style="fill: #d7dde8; stroke-width: 0px;"/>
  </g>
  <g id="g498">
    <path id="path500" d="m176.4,23.72l1.73,1.28-.86,6.34-.5,2.47.06.04c.56-.95,1.26-2.17,1.97-3.13l2.49-3.39,1.61,1.18-6.25,8.5-1.72-1.27.89-6.36.48-2.46-.06-.04c-.59.98-1.25,2.14-1.97,3.11l-2.51,3.41-1.61-1.19,6.26-8.5Z" style="fill: #d7dde8; stroke-width: 0px;"/>
  </g>
  <g id="g502">
    <path id="path504" d="m182.35,34.94c2.35-2.56,5.38-2.55,7.34-.75.99.91,1.34,2.1,1.36,3.09l-1.73.24c-.04-.74-.24-1.42-.83-1.97-1.18-1.08-2.98-.88-4.52.79-1.55,1.69-1.69,3.44-.46,4.57.66.61,1.48.77,2.31.71l-.07,1.72c-1.33.16-2.52-.21-3.53-1.13-1.97-1.8-2.27-4.68.11-7.27" style="fill: #d7dde8; stroke-width: 0px;"/>
  </g>
  <g id="g506">
    <path id="path508" d="m194.37,39.07l4.32,4.82-1.31,1.17-2.91-3.25-1.82,1.63,2.47,2.76-1.32,1.18-2.47-2.76-2.1,1.88,3.01,3.37-1.32,1.18-4.42-4.94,7.86-7.04Z" style="fill: #d7dde8; stroke-width: 0px;"/>
  </g>
  <g id="g510">
    <path id="path512" d="m201.51,58.17l.79-.9c.73-.88,1.58-1.79,2.36-2.69l-.03-.05c-1.11.42-2.28.82-3.37,1.17l-1.14.38,1.39,2.09Zm-1.11,1.29l-1.9-2.85-2.66.88-1.19-1.78,10.66-3.04,1.37,2.07-6.9,8.68-1.22-1.84,1.84-2.12Z" style="fill: #d7dde8; stroke-width: 0px;"/>
  </g>
  <g id="g514">
    <path id="path516" d="m210.23,60.44l.99,1.91-3.58,5.31-1.53,1.98.03.07c.92-.61,2.09-1.39,3.15-1.94l3.73-1.94.92,1.77-9.37,4.86-.98-1.9,3.61-5.31,1.52-1.99-.04-.06c-.96.62-2.07,1.36-3.15,1.92l-3.76,1.95-.92-1.77,9.37-4.86Z" style="fill: #d7dde8; stroke-width: 0px;"/>
  </g>
  <g id="g518">
    <path id="path520" d="m208.48,77.44c.7,1.84,2.13,2.6,4.53,1.69,2.41-.92,2.87-2.41,2.17-4.25l-.23-.61-6.7,2.56.24.61Zm7.28-5.75l1.03,2.7c1.15,3.01.31,5.48-3.02,6.75-3.32,1.27-5.68.04-6.8-2.87l-1.08-2.81,9.86-3.77Z" style="fill: #d7dde8; stroke-width: 0px;"/>
  </g>
  <g id="g522">
    <path id="path524" d="m219.84,90.15l-.64-2.9,1.72-.37,1.73,7.88-1.72.38-.64-2.93-8.59,1.89-.45-2.06,8.6-1.89Z" style="fill: #d7dde8; stroke-width: 0px;"/>
  </g>
  <g id="g526">
    <path id="path528" d="m223.18,98.17l.77,6.43-1.74.21-.52-4.33-2.42.29.44,3.68-1.76.21-.44-3.68-2.81.34.54,4.49-1.76.21-.79-6.59,10.48-1.26Z" style="fill: #d7dde8; stroke-width: 0px;"/>
  </g>
  <g id="g530">
    <path id="path532" d="m218.89,107.97c3.48-.08,5.56,2.11,5.63,4.77.03,1.34-.59,2.43-1.28,3.13l-1.37-1.08c.5-.54.86-1.16.84-1.96-.04-1.59-1.43-2.76-3.7-2.7-2.3.05-3.65,1.17-3.61,2.84.02.9.46,1.6,1.09,2.16l-1.29,1.14c-1.03-.84-1.6-1.96-1.63-3.33-.06-2.66,1.8-4.88,5.32-4.96" style="fill: #d7dde8; stroke-width: 0px;"/>
  </g>
  <g id="g534">
    <path id="path536" d="m224.29,119.57l-.17,2.1-4.14-.34-.33,3.98,4.14.35-.17,2.09-10.52-.88.17-2.09,4.55.38.34-3.98-4.55-.38.18-2.11,10.51.88Z" style="fill: #d7dde8; stroke-width: 0px;"/>
  </g>
  <g id="g538">
    <path id="path540" d="m222.98,132.19l-.43,2.11-6.11,1.9-2.45.58v.07c1.09.1,2.49.23,3.66.47l4.12.83-.39,1.96-10.34-2.08.42-2.1,6.14-1.87,2.43-.6.02-.07c-1.14-.12-2.47-.23-3.66-.48l-4.15-.83.39-1.96,10.35,2.08Z" style="fill: #d7dde8; stroke-width: 0px;"/>
  </g>
  <g id="g542">
    <path id="path544" d="m213.15,149.33c2.16.71,3.75.18,4.24-1.31.49-1.5-.49-2.86-2.65-3.57-2.14-.7-3.82-.2-4.31,1.29-.49,1.49.57,2.89,2.71,3.59m2.27-6.93c3.27,1.07,4.56,3.52,3.69,6.18-.87,2.66-3.38,3.86-6.63,2.8-3.25-1.07-4.65-3.55-3.78-6.21.87-2.65,3.46-3.83,6.72-2.77" style="fill: #d7dde8; stroke-width: 0px;"/>
  </g>
  <g id="g546">
    <path id="path548" d="m215.95,156.62l-.86,1.93-8.02-3.59-1.75,3.9-1.62-.72,2.61-5.83,9.63,4.31Z" style="fill: #d7dde8; stroke-width: 0px;"/>
  </g>
  <g id="g550">
    <path id="path552" d="m203.9,168.74c1.96,1.13,3.64.94,4.42-.41.78-1.36.11-2.9-1.86-4.03-1.95-1.13-3.7-.99-4.48.38-.79,1.35-.04,2.94,1.91,4.07m3.64-6.31c2.97,1.71,3.75,4.38,2.35,6.8-1.4,2.42-4.1,3.09-7.06,1.38-2.96-1.71-3.82-4.43-2.42-6.85,1.39-2.42,4.17-3.04,7.14-1.33" style="fill: #d7dde8; stroke-width: 0px;"/>
  </g>
  <g id="g554">
    <path id="path556" d="m201.13,172.98c2.79,2.08,3.09,5.1,1.42,7.35-.91,1.22-2.07,1.68-3.04,1.82l-.4-1.7c.71-.11,1.37-.36,1.94-1.13,1.05-1.4.67-3.2-1.14-4.56-1.85-1.37-3.59-1.35-4.82.31-.31.41-.5.91-.47,1.3l1.67,1.24,1.11-1.5,1.39,1.03-2.23,3.01-3.83-2.84c-.14-.99.15-2.32,1.02-3.5,1.72-2.31,4.55-2.93,7.38-.83" style="fill: #d7dde8; stroke-width: 0px;"/>
  </g>
  <g id="g558">
    <path id="path560" d="m191.5,182.95l7.07,2.17-1.51,1.66-2.61-.95c-.78-.31-1.52-.6-2.34-.9l-.04.04c.38.79.71,1.52,1.09,2.28l1.19,2.51-1.48,1.62-2.8-6.86-2.86-2.61,1.42-1.56,2.85,2.6Z" style="fill: #d7dde8; stroke-width: 0px;"/>
  </g>
  <g id="g562">
    <path id="path564" d="m70.81,206.74l-.75,1.37-1.53-.85-2.07,3.75-1.66-.91,4.78-8.65,1.66.92-1.95,3.52,1.53.85Zm-8.66-1.39c.73.4,1.44.35,1.8-.29.34-.63,0-1.26-.72-1.66-.74-.41-1.44-.35-1.79.27-.36.64-.03,1.26.71,1.67m5.4-1.74l-6.8-3.76.71-1.29,2.56,1.42.68-1.23,1.67.92-.68,1.23,2.59,1.42-.73,1.29Zm-6.09,2.99c-1.66-.92-2.34-2.47-1.6-3.8.72-1.31,2.41-1.57,4.06-.65,1.66.91,2.33,2.48,1.61,3.79-.73,1.32-2.41,1.58-4.07.67m-1.57,2.6l6.21,3.43-.73,1.32-7.87-4.34,1.85-3.35,1.65.91-1.12,2.03Z" style="fill: #d7dde8; stroke-width: 0px;"/>
  </g>
  <g id="g566">
    <path id="path568" d="m81.02,213.5l-.62,1.76,3.46,1.21-1.56,4.45-1.8-.63,1.07-3.04-7.05-2.47.49-1.4,3.6,1.26.62-1.76-4.73-1.66.5-1.42,7.93,2.77c.63-1.06.98-1.95,1.28-2.77l-6.81-2.38.5-1.44,8.56,3-.35,1c-.33.93-.69,1.97-1.4,3.21l1.57.55-.5,1.42-4.76-1.66Z" style="fill: #d7dde8; stroke-width: 0px;"/>
  </g>
  <g id="g570">
    <path id="path572" d="m102.95,218.85l-1.75-.3-1.07,6.22-1.87-.32,2.24-13.01,1.87.33-.91,5.24,1.75.3-.27,1.55Zm-6.97-.8c.61-1.8.9-3.19,1.1-4.35l-4.86-.84.26-1.48,6.69,1.15-.18,1.06c-.22,1.26-.49,2.84-1.21,4.92l-1.8-.47Zm-1.3,1.45c1.26.17,2.55.31,3.76.37l-.13,1.36c-2.72,0-5.64-.45-7.9-.83l.09-1.55c.72.12,1.51.26,2.33.39l.66-3.84,1.83.31-.65,3.79Z" style="fill: #d7dde8; stroke-width: 0px;"/>
  </g>
  <g id="g574">
    <path id="path576" d="m120.47,217.4h-1.74s0,3.31,0,3.31h-1.89s.01-8.27.01-8.27h1.89s0,3.4,0,3.4h1.75s0,1.57,0,1.57Zm-8.25,1.52c.85,0,1.43-.33,1.43-1.01,0-.66-.58-.99-1.43-.99-.86,0-1.43.33-1.43.99,0,.67.57,1,1.43,1.01m-2.3,2.31l8.8.02v4.4s-1.9,0-1.9,0v-2.88s-6.9-.01-6.9-.01v-1.52Zm2.3-.88c-1.89,0-3.24-1-3.24-2.44,0-1.43,1.36-2.42,3.25-2.41,1.91,0,3.24,1,3.23,2.43,0,1.45-1.34,2.43-3.24,2.43m3.89-5.27h-7.77v-1.5h2.93s0-1.23,0-1.23h1.91s0,1.23,0,1.23h2.94s0,1.5,0,1.5Z" style="fill: #d7dde8; stroke-width: 0px;"/>
  </g>
  <g id="g578">
    <path id="path580" d="m135.66,210.2l2.22,13.02-1.88.31-2.22-13.01,1.88-.32Zm-3.64,2.02c.67,3.98-.12,7.46-4.36,10.49l-1.23-1.31c3.05-2.16,4.15-4.44,3.93-7.37l-4.34.74-.26-1.48,6.25-1.07Z" style="fill: #d7dde8; stroke-width: 0px;"/>
  </g>
  <g id="g582">
    <path id="path584" d="m149.71,212.93l.28.8,3.38-1.19,1.13,3.24-6.82,2.39.25.7,7.14-2.51.47,1.34-8.92,3.12-1.15-3.27,6.83-2.4-.23-.67-6.85,2.4-.46-1.33,3.43-1.2-.28-.8-4.73,1.66-.49-1.4,11.25-3.95.49,1.41-4.75,1.66Zm2.92-3.18c-2.23.53-4.05.26-5.24-.61-.38,1.42-1.66,2.77-3.73,3.76l-1.05-1.14c2.7-1.26,3.62-2.99,3.19-4.19l-.08-.23,1.84-.64.09.23c.42,1.2,2.21,1.99,5.11,1.27l-.13,1.55Z" style="fill: #d7dde8; stroke-width: 0px;"/>
  </g>
  <g id="g586">
    <path id="path588" d="m167.83,205.6l-3.68-6.73,1.66-.91,4.8,8.78-1.66.91-.5-.92-2.18,1.19-.62-1.14,2.18-1.18Zm-8.05-1.14c.31.57,1.01.56,1.79.14.77-.42,1.15-1.01.84-1.57-.31-.56-1.02-.57-1.78-.15-.78.42-1.16,1.02-.85,1.59m11.79,3.43l.72,1.32-8.59,4.7-1.88-3.45,1.61-.88-.85-1.55c-.99.61-1.96,1.15-2.82,1.63l-.94-1.21c2.11-1.17,4.91-2.73,7.18-4.38l.75,1.12c-.81.66-1.69,1.26-2.59,1.84l1.2,2.19-1.6.87.87,1.58,6.93-3.79Zm-13.36-2.57c-.67-1.23.06-2.73,1.76-3.66,1.68-.92,3.34-.73,4.02.5.67,1.23-.07,2.72-1.75,3.64-1.7.93-3.35.75-4.02-.48" style="fill: #d7dde8; stroke-width: 0px;"/>
  </g>
  <g id="g590">
    <path id="path592" d="m181.99,194.92c0,1.07-.86,1.93-1.94,1.93s-1.93-.87-1.93-1.93.87-1.94,1.93-1.94,1.94.87,1.94,1.94" style="fill: #d7dde8; stroke-width: 0px;"/>
  </g>
  <g id="g594">
    <path id="path596" d="m49.86,194.92c0,1.07-.86,1.93-1.94,1.93s-1.94-.87-1.94-1.93.87-1.94,1.94-1.94,1.94.87,1.94,1.94" style="fill: #d7dde8; stroke-width: 0px;"/>
  </g>
  <g id="g598">
    <path id="path600" d="m93.33,169.33h2.96v-7.92h-2.57v-2.06c1.5-.28,2.47-.66,3.45-1.25h2.45v11.24h2.51v2.7h-8.81v-2.7Z" style="fill: #d7dde8; stroke-width: 0px;"/>
  </g>
  <g id="g602">
    <path id="path604" d="m111.2,163.28c-.28-2.3-1.16-2.96-2.02-2.96s-1.63.62-1.63,2.23c0,1.5.75,2.04,1.69,2.04.67,0,1.43-.36,1.97-1.31m-4.76,5.36c.47.51,1.33.95,2.13.95,1.43,0,2.55-1.01,2.68-4.06-.67.9-1.85,1.4-2.66,1.4-2.34,0-4.08-1.39-4.08-4.38s2.1-4.72,4.59-4.72c2.64,0,5.21,2.01,5.21,7.06s-2.66,7.4-5.51,7.4c-1.87,0-3.23-.79-4.1-1.67l1.74-1.99Z" style="fill: #d7dde8; stroke-width: 0px;"/>
  </g>
  <g id="g606">
    <path id="path608" d="m121.86,160.87h-6v-2.77h9.56v2.02c-3.23,3.84-3.56,6.46-3.81,11.92h-3.35c.27-4.59.98-7.54,3.6-11.17" style="fill: #d7dde8; stroke-width: 0px;"/>
  </g>
  <g id="g610">
    <path id="path612" d="m127.5,169.33h2.96v-7.92h-2.57v-2.06c1.5-.28,2.47-.66,3.45-1.25h2.45v11.24h2.51v2.7h-8.81v-2.7Z" style="fill: #d7dde8; stroke-width: 0px;"/>
  </g>
  <g id="g614">
    <path id="path616" d="m114.82,1.07C52.1,1.07,1.07,52.1,1.07,114.82s51.03,113.75,113.75,113.75,113.75-51.03,113.75-113.75S177.54,1.07,114.82,1.07m0,228.57C51.51,229.64,0,178.13,0,114.82S51.51,0,114.82,0s114.82,51.51,114.82,114.82-51.51,114.82-114.82,114.82" style="fill: #d7dde8; stroke-width: 0px;"/>
  </g>
</svg>