<?xml version="1.0" encoding="UTF-8"?>
<svg id="Layer_2" data-name="Layer 2" xmlns="http://www.w3.org/2000/svg" viewBox="0 0 195.11 195.13">
  <g id="svg2">
    <g id="g6558">
      <g id="g6564">
        <path id="path6566" d="m19.01,67.76c-2-.64-3.92-.56-5.4.21-1.16.59-1.95,1.57-2.36,2.8-.48,1.55-.63,4.37,4,5.84,3.74,1.18,7.03-.13,8.01-3.21.18-.55.39-1.65-.21-2.82-.63-1.22-1.98-2.17-4.04-2.82" style="fill: #d7dde8; stroke-width: 0px;"/>
      </g>
      <g id="g6568">
        <path id="path6570" d="m131.38,174.78c1.1-.53,1.54-1.89,1-3.04-.55-1.13-1.89-1.64-2.99-1.12-1.11.54-1.56,1.9-1,3.04.55,1.15,1.89,1.65,2.99,1.12" style="fill: #d7dde8; stroke-width: 0px;"/>
      </g>
      <g id="g6572">
        <path id="path6574" d="m31.73,145.65c-1.05.93-1.23,2.46-.37,3.45.85.97,2.41,1.02,3.46.09,1.06-.91,1.23-2.46.37-3.44-.85-.98-2.4-1.01-3.46-.1" style="fill: #d7dde8; stroke-width: 0px;"/>
      </g>
      <g id="g6576">
        <path id="path6578" d="m188.31,95.81c-.02-.2-.1-.47-.27-.71-.21-.33-.42-.5-.94-.85-.8-.53-5.3-2.65-6.09-2.87-.65-.21-1.19-.15-1.77-.09,0,0-1.67.17-3.01.3-1.36.13-1.19,1.08-1.08,2.11l-.59.06-.62-6.16.63-.07c.08.91.18,1.55,1.36,1.42,1.17-.11,3.05-.29,3.05-.29.94-.09,1.3-.29,1.8-.59.25-.14,4-2.96,4.9-3.7.56-.48,1-.96,1.16-1.33.21-.47.12-1.19.12-1.19l.64-.07.51,5.23-.64.07s-.02-.31-.06-.43l-.03-.09c-.03-.09-.11-.12-.17-.11-.15,0-.44.2-.54.25-.42.25-4.86,3.44-4.86,3.44,0,0,4.68,2.03,4.97,2.13.37.12.67.17.9.15.17-.02.28-.15.27-.28-.02-.13-.05-.48-.05-.48l.67-.07.45,4.65-.66.06s-.03-.33-.05-.5m-10.3,28.01c-1.54,0-2.78-1.25-2.78-2.79s1.23-2.79,2.78-2.79,2.78,1.24,2.78,2.79-1.24,2.79-2.78,2.79m-4.95-44.81l-.63.18-1.77-5.98.64-.19c.32,1.08.47,1.53,1.35,1.27,0,0,9.23-2.73,10.85-3.2-.59-2.01-.72-2.45-.78-2.67-.36-1.22-1.05-1.16-2.01-1.01l-.21-.72,2.88-.42,3.39,11.46-2.64,1.2-.22-.72c.88-.4,1.5-.74,1.14-1.94-.07-.22-.2-.66-.79-2.65-1.41.4-9.91,2.92-10.86,3.2-1.03.31-.59,1.31-.33,2.2m-9.54,82.81c-.12-.09-1.41-1.16-1.53-1.27.11-.11,1.82-2.18,1.82-2.18l-3.22-2.66c-.4-.33-.97-.45-1.16-.21h0c-.08-.06-.19-.17-.27-.23.11-.12,1.7-2.05,1.8-2.17.13.11,4.27,3.55,4.27,3.55l.83-1s-4.15-3.44-4.27-3.55c.09-.12,1.44-1.73,1.54-1.87.13.11,4.29,3.55,4.29,3.55,0,0,.54-.66,1.23-1.5-1.83-1.53-8.21-6.81-8.21-6.81,0,0-6.22,7.48-6.32,7.62-.12-.1-1.4-1.16-1.51-1.25.1-.15,7.94-9.58,7.94-9.58h0c.11.09,7.7,6.39,9.73,8.07.54-.65.94-1.15.97-1.19.12.1,1.4,1.17,1.53,1.26-.11.13-9.36,11.28-9.46,11.41m-65.99,6.82c-39.26,0-71.09-31.82-71.09-71.08S58.29,26.46,97.55,26.46s71.1,31.84,71.1,71.11-31.84,71.08-71.1,71.08m43.73,10.45c-.06-.15-1.46-3.08-1.46-3.08,0,0-9.4,4.5-9.55,4.58-.08-.13-.79-1.63-.86-1.78.17-.06,11.68-5.6,11.85-5.68.08.16,2.26,4.71,2.33,4.86-.14.06-2.14,1.03-2.29,1.1m-.63-7.17c-.13.07-2.14,1.03-2.28,1.1-.07-.15-3.34-6.93-3.34-6.93-.22-.49-.69-.82-.96-.69h0c-.04-.09-.11-.23-.15-.31.14-.07,2.66-1.28,2.81-1.35.06.16,1.92,3.99,1.92,3.99,0,0,2.09-1.01,2.24-1.08.06.13.7,1.46.77,1.61-.14.07-2.25,1.08-2.25,1.08,0,0,1.18,2.45,1.24,2.6m-14.32,2.71c-.48-1.01-.45-2.14,0-3.15-.89.43-1.5.73-1.55.74-.06-.14-.78-1.65-.85-1.77.15-.08,3.41-1.64,3.41-1.64l-.05-.09c-.25-.43-.65-.67-.89-.56-.04-.09-.11-.24-.15-.32.14-.07,2.8-1.35,2.8-1.35.06.14.58,1.21.58,1.21,0,0,3.05-1.46,3.2-1.54.06.14.78,1.65.84,1.77-.04.04-.71.36-1.69.84,1.07.28,1.98.97,2.46,1.95.94,1.99-.1,4.47-2.34,5.55-2.24,1.07-4.83.34-5.78-1.65m-21.64,15.36h-2.54v-9.51h-1.15v9.51h-2.36v-3.13h-8.59v-10.9c0-.54-.28-1.03-.58-1.03v-.35h7.14v1.96h-4.04v8.36h6.07v-9.33c0-.53-.28-1.04-.57-1.04v-.36h2.93v4.33h1.15v-4.33h2.54v15.81Zm-41.37-6.33c-.15-.06-2.17-.99-2.31-1.04.07-.17,6.54-14.22,6.61-14.39.15.06,2.29,1.06,2.29,1.06h.02c-.08.17-6.55,14.2-6.61,14.37m-5.29-2.44c.07-.15,3.98-8.64,3.98-8.64,0,0-2.26-1.04-2.41-1.11.07-.13.76-1.65.83-1.8.14.07,2.41,1.11,2.41,1.11l1.23-2.66c.22-.49.18-1.06-.09-1.18h0c.05-.09.11-.24.16-.32.14.06,2.55,1.17,2.55,1.17v.02c-.07.14-6.54,14.2-6.6,14.35-.14-.06-1.9-.88-2.04-.94m-2.14-9.23l-.04-.08-.08.04c-2.42,1.38-4.19,1.58-4.22,1.58h0c-.05-.11-.54-1.35-.59-1.5,5.35-1.76,7.15-5.65,7.18-5.73h0c.54-1.17-.09-1.65-.12-1.68.03-.08.11-.23.15-.31.14.06,3.19,1.46,3.33,1.53-.93,2.02-2.24,3.66-4,4.99l-.06.05.08.16c.93,1.72,1.59,3.32,1.88,4.53-.1.05-1.86,1.05-2.08,1.17-.52-2.89-1.07-4.01-1.42-4.76m-21.19-12.94c-.09-.11-1.56-1.78-1.67-1.91.13-.11,3.09-2.71,3.09-2.71,0,0-1.4-1.62-2.13-2.45-1.42.11-2.94-.47-4-1.71-1.73-1.97-1.65-4.87.17-6.45,1.82-1.58,4.69-1.27,6.42.71.95,1.09,1.35,2.45,1.22,3.73.44.49,2.34,2.69,2.34,2.69l.45-.41c.41-.35.6-.89.41-1.11.06-.07.19-.17.26-.25.1.13,1.94,2.23,2.04,2.35-.12.11-8.48,7.41-8.6,7.51m-3.09,2.97c-.11-.13-7.84-9.01-7.95-9.13.12-.11,2.83-2.47,2.83-2.47.4-.33.59-.88.4-1.09.07-.07.2-.18.26-.24.11.12,2.05,2.34,2.05,2.34-.13.1-2.37,2.07-2.37,2.07,0,0,6.17,7.09,6.29,7.22-.12.08-1.38,1.19-1.5,1.29M14.95,79.45c-1.89-.6-3.47-1.91-4.34-3.58-.89-1.71-.99-3.77-.3-5.97.7-2.25,1.98-3.91,3.66-4.78,1.53-.82,3.35-.9,5.27-.28,2.04.64,3.66,1.96,4.58,3.71.91,1.77,1.04,3.81.36,5.94-1.54,4.91-5.86,6.01-9.23,4.95m5.55,13.58l-.61-.06c.09-.89.11-1.55-1.06-1.65-1.18-.11-3.06-.28-3.06-.28-.94-.09-1.34.04-1.89.24-.27.09-4.48,2.14-5.51,2.71-.65.36-1.16.75-1.38,1.08-.29.43-.33,1.16-.33,1.16l-.64-.06.47-5.25.65.07s-.04.3-.02.43c0,0,.02.08.02.09,0,.09.09.13.15.13.14.02.46-.1.56-.15.46-.16,5.44-2.46,5.44-2.46,0,0-4.22-2.87-4.49-3.02-.34-.19-.63-.3-.85-.32-.17-.02-.31.09-.32.21-.02.13-.05.48-.05.48l-.67-.07.43-4.64.66.06s-.03.34-.05.51c-.02.19.02.47.13.75.13.35.32.55.77.99.68.67,4.72,3.59,5.44,3.99.6.31,1.14.36,1.73.42,0,0,1.66.14,3.02.27,1.35.13,1.35-.85,1.45-1.88l.59.06-.57,6.17h0Zm-2.44,30.36c-1.52,0-2.74-1.24-2.74-2.75s1.22-2.75,2.74-2.75,2.75,1.23,2.75,2.75-1.23,2.75-2.75,2.75m-1.06-69.15c2.32-.51,13.43-2.95,13.79-3.03,0,0-5.67-3.5-6.89-4.26-1.22-.75-1.76.25-2.14.86l-.56-.36,2.54-4.11.57.36c-.41.65-.86,1.26.36,2.01,1.23.75,10.31,6.36,10.31,6.36l-.49.81-13.6,3.06,6.64,4.11c1.42.86,1.88-.24,2.37-1.02l.57.36-2.75,4.46-.57-.36c.44-.7.95-1.38-.38-2.2-1.34-.82-10.22-6.31-10.22-6.31,0,0,.46-.74.46-.74Zm14.79-20.28c1.51-1.58,2.37-1.69,2.37-1.69l2.19,2.11-.54.57s-.52-.68-1.44-.78c-.46-.05-1.15,0-1.89.78-.84.88-.9,1.92-.14,2.64.51.49,1.13.68,3.1.36,0,0,.63-.09.63-.1,2.83-.42,4.3-.13,5.59,1.1.59.55,1.51,1.76,1.16,3.59-.18.96-.67,1.84-1.5,2.7-.75.8-1.97,1.74-2.75,1.76l-2.55-2.43.51-.51s.85.59,1.16.75c1.38.71,2.44-.06,2.94-.58,1.03-1.08.86-2.33.2-2.98-.63-.6-1.42-.95-3.21-.68l-1.06.16c-2.45.36-3.97.04-5.14-1.08-1.54-1.47-1.38-3.8.41-5.69m14.66-12.29l1.73,2.31-.53.4c-.57-.77-1.01-1.28-2.02-.53-.44.32-2.14,1.6-2.14,1.6l2.84,3.78,2.17-1.61c.75-.56.59-.83,0-1.61l.53-.39,2.29,3.05-.53.39c-.58-.78-.78-1.01-1.54-.45l-2.18,1.62s0,.02,0,.02l3.38,4.53s1.84-1.38,2.34-1.75c.76-.57.91-1.29.09-2.4l.52-.4,1.9,2.52-7.45,5.56-.44-.56c.86-.64,1.31-.84.4-2.06,0,0-5.29-7.08-6.09-8.14-.79-1.05-1.71-.26-2.2.11l-.39-.53,7.3-5.45h0Zm11.32-6.2l.3.59c-.99.51-1.37.75-.96,1.56,0,0,4.52,8.78,5.01,9.75.49.96,1.39.35,2.22-.08l.29.59-5.54,2.85-.3-.59c.99-.51,1.4-.75.98-1.57,0,0-4.74-9.23-5-9.75-.54-1.04-1.85-.12-1.85-.12l-.3-.59s5.14-2.64,5.14-2.64Zm20.46-7.05l.14.66c-1.12.22-1.54.34-1.36,1.23l1.25,6.23c.57,2.83,1.41,3.62,2.22,4.06.89.47,1.66.4,2.31.28.43-.09,1.53-.4,2.2-1.42.74-1.12.51-2.67.13-4.57,0,0-1.16-5.73-1.19-5.96-.23-1.16-1.75-.61-1.75-.61l-.13-.65,4.94-.99.13.65c-1.1.23-1.51.33-1.35,1.23l1.13,5.63c.42,2.1.63,4.24-.65,5.89-1.13,1.46-2.5,1.88-3.57,2.1-.79.15-2.67.53-4.34-.46-1.33-.79-2.16-2.23-2.62-4.54,0,0-1.23-6.09-1.27-6.34-.23-1.15-1.75-.62-1.75-.62l-.13-.64,5.67-1.14h0Zm14.59,11.09c.83.06,1.67.2,1.76-1.37.09-1.57.74-11.99.74-11.99l.87.06c1.55,1.8,8.94,10.42,9.18,10.7,0,0,.4-6.64.49-8.07.09-1.44-1.04-1.45-1.76-1.5l.04-.66,4.82.29-.05.67c-.77-.04-1.51-.17-1.61,1.27-.07,1.43-.73,12.1-.73,12.1l-.94-.05-9.12-10.53-.47,7.78c-.1,1.66,1.08,1.57,2.01,1.61l-.04.67-5.23-.31.04-.69h0Zm20.12,1.83c1.09.25,1.55.33,1.76-.56,0,0,2.33-10.11,2.46-10.68.27-1.15-1.33-1.27-1.33-1.27l.14-.64,5.64,1.31-.16.64c-1.09-.25-1.53-.32-1.73.57,0,0-2.23,9.63-2.48,10.68-.24,1.05.84,1.17,1.75,1.38l-.14.63-6.08-1.4.15-.64h0Zm13.71-10.52l4.91,2.14-.26.6-.49-.21c-.25-.09-.41,0-.45.05-.13.13-.11.4-.13.5l-.1,1.94c-.12,2.21-.36,7.27-.38,7.64.32-.31,2.54-2.53,2.54-2.53l3.93-3.96c.23-.28.47-.56.52-.8.04-.16-.09-.29-.25-.36l-.49-.21.27-.62,4.22,1.84-.17.66-.46-.21c-.89-.41-1.78.36-1.78.36l-2.68,2.43-7.48,6.89-.54-.25.21-13.18c.02-.64-.07-1.19-.25-1.5-.25-.39-.93-.66-.93-.66l.26-.59Zm17.63,8.55l7.57,5.06-1.61,2.41-.55-.38c.53-.78.87-1.38-.17-2.07-.47-.31-2.22-1.49-2.22-1.49l-2.64,3.94,2.26,1.51c.78.51.96.26,1.5-.54l.55.36-2.13,3.18-.56-.38c.56-.81.71-1.07-.06-1.6l-2.26-1.5h0s-3.15,4.69-3.15,4.69c0,0,1.91,1.28,2.43,1.63.78.53,1.51.43,2.29-.73l.55.39-1.74,2.62-7.73-5.19.4-.59c.89.59,1.23.95,2.07-.31,0,0,4.93-7.36,5.66-8.45.73-1.08-.32-1.69-.83-2.03l.37-.55Zm13.54,9.53l3.88,3.85c.8.79,1.65,1.76,1.89,3.01.1.54.07,1.79-.89,2.77-1.08,1.08-2.45,1.45-4.59,1.27-.02.18-.1.88-.1.88-.23,2.15-.43,3.85-.45,5.21-.02,1.4.4,2.01.55,2.26l.32.38-.43.44-1.34-1.31c-.72-.73-1.01-1.14-1.18-1.69-.27-.85-.17-1.94.1-3.75l.51-3.17-1.19-1.17-2.92,2.95c-.76.77.09,1.43.76,2.09l-.46.46-4.42-4.38.46-.48c.79.79,1.15,1.11,1.8.46,0,0,7.3-7.38,7.71-7.79.82-.84-.47-1.78-.47-1.78,0,0,.46-.48.46-.48Zm7.76,21.77l.07-1.07c.15-2.46.8-3.9,2.12-4.8,1.76-1.21,4.01-.57,5.48,1.57,1.23,1.81,1.16,2.67,1.16,2.67l-2.52,1.73-.45-.66s.78-.36,1.06-1.26c.13-.43.25-1.11-.36-2.01-.69-1-1.7-1.27-2.55-.69-.6.41-.92.97-1.02,2.96l-.03.63c-.17,2.87-.76,4.24-2.23,5.24-.66.45-2.03,1.11-3.75.39-.89-.36-1.65-1.04-2.33-2.03-.62-.9-1.29-2.29-1.14-3.06l2.9-1.99.4.62s-.77.71-.98.97c-.99,1.21-.45,2.39-.04,2.99.84,1.23,2.1,1.34,2.86.82.74-.51,1.23-1.2,1.34-3.01m12.08,4.72l.59-.28,2.55,5.19-.59.28c-.5-1-.71-1.38-1.53-.98,0,0-8.87,4.36-9.84,4.84-.97.47-.37,1.38.04,2.22l-.59.28-2.74-5.59.59-.29c.5,1,.72,1.42,1.54,1.02,0,0,9.31-4.58,9.84-4.84,1.06-.52.15-1.84.15-1.84M97.55,0C43.77,0,0,43.75,0,97.54s43.77,97.59,97.55,97.59,97.56-43.78,97.56-97.59S151.36,0,97.55,0" style="fill: #d7dde8; stroke-width: 0px;"/>
      </g>
      <g id="g6580">
        <path id="path6582" d="m156.65,37.95c.51.5.7.59,1.07.65.47.07,1.43.02,2.59-1.16,1.79-1.8,1.05-3.45.35-4.14l-.63-.63-4.3,4.35.93.92Z" style="fill: #d7dde8; stroke-width: 0px;"/>
      </g>
      <g id="g6584">
        <path id="path6586" d="m36.39,151.01c-.12.12-.25.21-.4.31.74.83,1.61,1.84,1.61,1.84l1.04-.9s-.94-1.06-1.65-1.89c-.17.25-.37.45-.6.64" style="fill: #d7dde8; stroke-width: 0px;"/>
      </g>
      <g id="g6588">
        <path id="path6590" d="m97.55,63.41c-5.78,0-10.45,4.68-10.45,10.45s4.68,10.45,10.45,10.45,10.45-4.67,10.45-10.45-4.68-10.45-10.45-10.45" style="fill: #d7dde8; stroke-width: 0px;"/>
      </g>
      <g id="g6592">
        <path id="path6594" d="m100.01,147.26c-.4.26-1.04.81-1.04,1.78,0,.82.59,1.43,1.32,1.43s1.28-.56,1.28-1.38c0-.89-.71-1.34-1.57-1.83" style="fill: #d7dde8; stroke-width: 0px;"/>
      </g>
      <g id="g6596">
        <path id="path6598" d="m100.48,146.19c.4-.17.85-.58.85-1.36,0-.74-.49-1.07-.97-1.07-.8,0-1.08.56-1.08,1.04,0,.53.33.87,1.2,1.38" style="fill: #d7dde8; stroke-width: 0px;"/>
      </g>
      <g id="g6600">
        <path id="path6602" d="m100.48,143.06c1.34,0,2.21.63,2.21,1.69s-.84,1.65-1.32,1.87c.7.39,1.68,1.03,1.68,2.25s-.96,2.37-2.81,2.37c-1.63,0-2.69-.81-2.69-2.12,0-.94.65-1.75,1.72-2.24-.62-.35-1.32-.91-1.32-1.85,0-.78.68-1.95,2.54-1.95m3.97,7.32s.03-1.15.03-1.16c0-.06.07-.29.26-.29.09,0,.22.03.22.32,0,.8.41,1.2,1.23,1.2.7,0,1.54-.44,1.54-1.69,0-1.58-1.75-2.16-2.43-2.25-.3-.06-.32-.25-.32-.36l.25-2.67c0-.09.05-.25.32-.25h2.48l.65-.05.12-.03c.24,0,.24.23.24.35l-.13,1.31c-.02.13-.12.21-.25.21-.03,0-.24,0-.24-.27,0-.19,0-.41-.72-.41h-1.72c-.02.2-.09.79-.11,1,1.63.28,3.32,1.19,3.32,2.91,0,1.43-1.08,2.98-3.46,2.98-.37,0-.77-.07-1.01-.19h-.02c-.25-.13-.25-.31-.25-.52,0,0,0-.13,0-.13Zm-11.21.85c-1.61,0-2.67-.81-2.67-2.12,0-.94.64-1.75,1.72-2.24-.62-.35-1.32-.91-1.32-1.85,0-.78.68-1.95,2.55-1.95,1.33,0,2.22.63,2.22,1.69s-.88,1.65-1.33,1.87c.7.39,1.67,1.03,1.67,2.25s-.96,2.37-2.83,2.37m-4.23-.14l-1.25-.02h-.93l-1.22.02c-.26,0-.32-.12-.32-.22,0-.17.1-.26.22-.26l.78-.06c.21-.04.25-.1.29-.4l.03-2.26v-2.93s0-.18-.02-.21c-.1,0-.58.23-.8.32l-.31.14-.19.05c-.12,0-.21-.11-.21-.25,0-.09.06-.21.17-.26.06-.05,1.94-1.28,2.31-1.54l.35-.15c.06,0,.25.02.25.33v.16l-.06,2.48v1.86l.06,2.26c0,.3.07.36.28.4l.63.06c.12,0,.23.09.23.26,0,.1-.04.22-.3.22m-16.71-2.25c6.54,5.69,14.8,11.12,25.24,15.93,10.45-4.81,18.69-10.24,25.24-15.93l-25.24-25.31-25.24,25.31Z" style="fill: #d7dde8; stroke-width: 0px;"/>
      </g>
      <g id="g6604">
        <path id="path6606" d="m93.52,146.19c.39-.17.83-.58.83-1.36,0-.74-.49-1.07-.96-1.07-.8,0-1.08.56-1.08,1.04,0,.53.31.87,1.2,1.38" style="fill: #d7dde8; stroke-width: 0px;"/>
      </g>
      <g id="g6608">
        <path id="path6610" d="m93.05,147.26c-.42.26-1.04.81-1.04,1.78,0,.82.58,1.43,1.32,1.43s1.28-.56,1.28-1.38c0-.89-.72-1.34-1.56-1.83" style="fill: #d7dde8; stroke-width: 0px;"/>
      </g>
      <g id="g6612">
        <path id="path6614" d="m137.27,77.31s.52-.05.36.42l-.63,1.94s-.12.25-.49.25h-7.34c-.38,0-.48-.25-.48-.25l-.62-1.92c-.22-.51.31-.44.31-.44h2.28c.16-.35.21-.72,0-1.08-1.2-1.7-3.77-2.86-3.75-4.12.02-1.46,2.17-3.55,2.22-3.59.13-.1.28-.06.23.07-.83,3.38,4.75,3.93,4.16,6.17-.25.92-.87,1.85-1.46,2.56h1.44c.63-.76,1.65-2.37,1.29-3.36-.18-.54-.47-.83-.82-1.17-.73-.74-1.68-1.27-2.4-1.88-.89-.74-1.41-1.55-1.4-2.29.02-1.87,3.64-4.57,3.73-4.63.17-.13.32-.1.27.06-.42.85-.73,1.92-.58,2.7.25,1.73,4.68,4.01,4.95,5.6.25,1.46-2.12,4.08-3.15,4.98h1.87Zm-3.4,12.27c-.04.33-.32.61-.68.61h-.68c-.36,0-.65-.28-.69-.61l-1.3-8.29c-.02-.21.13-.36.34-.36h3.97c.21,0,.36.15.34.36l-1.31,8.29Zm-36.32,4.66c-11.28,0-20.43-9.12-20.43-20.39s9.15-20.4,20.43-20.4,20.44,9.14,20.44,20.4-9.15,20.39-20.44,20.39m-27.24-10.29c0,.16-.13.29-.3.29h-6.09c-.42.78-1.23,1.3-2.18,1.3s-1.75-.52-2.18-1.3h-6.09c-.17,0-.3-.13-.3-.29v-10.38c0-.17.13-.29.3-.29h1.01v9.78h6.09v.1c.06.59.57,1.06,1.17,1.06s1.11-.47,1.16-1.06v-.1h6.09v-9.78h1.01c.17,0,.3.13.3.29v10.38h0Zm-14.6-12.09c0-.17.13-.31.29-.31h3.9c.66,0,1.21.55,1.21,1.21v8.95c0,.17-.13.31-.3.31h-4.81c-.16,0-.29-.13-.29-.31v-9.85Zm6.66.9c0-.66.54-1.21,1.21-1.21h3.89c.17,0,.3.13.3.31v9.85c0,.17-.13.31-.3.31h-4.8c-.17,0-.3-.13-.3-.31,0,0,0-8.95,0-8.95Zm86.57,15.85v-34.87s-29.74.95-51.39-15.7c-21.64,16.65-51.38,15.7-51.38,15.7v34.87s-.19,7.49,1.11,15.67c16.27-2.98,33.07-4.56,50.27-4.56s34.01,1.57,50.29,4.56c1.29-8.18,1.1-15.67,1.1-15.67" style="fill: #d7dde8; stroke-width: 0px;"/>
      </g>
      <g id="g6616">
        <path id="path6618" d="m47.8,107.21c.22,1.09.47,2.18.76,3.24,2.41,9.21,6.72,19.84,15.53,30.11l33.47-33.54,33.47,33.54c8.8-10.27,13.12-20.9,15.53-30.11.28-1.07.54-2.15.76-3.24-16.11-2.97-32.73-4.52-49.75-4.52s-33.64,1.55-49.75,4.52" style="fill: #d7dde8; stroke-width: 0px;"/>
      </g>
    </g>
  </g>
</svg>